%TF.GenerationSoftware,KiCad,Pcbnew,5.1.10*%
%TF.CreationDate,2021-07-23T12:05:05+02:00*%
%TF.ProjectId,kicad,6b696361-642e-46b6-9963-61645f706362,rev?*%
%TF.SameCoordinates,Original*%
%TF.FileFunction,Copper,L1,Top*%
%TF.FilePolarity,Positive*%
%FSLAX46Y46*%
G04 Gerber Fmt 4.6, Leading zero omitted, Abs format (unit mm)*
G04 Created by KiCad (PCBNEW 5.1.10) date 2021-07-23 12:05:05*
%MOMM*%
%LPD*%
G01*
G04 APERTURE LIST*
%TA.AperFunction,ComponentPad*%
%ADD10C,1.404000*%
%TD*%
%TA.AperFunction,ComponentPad*%
%ADD11C,1.304000*%
%TD*%
%TA.AperFunction,ComponentPad*%
%ADD12O,1.600000X1.600000*%
%TD*%
%TA.AperFunction,ComponentPad*%
%ADD13C,1.600000*%
%TD*%
%TA.AperFunction,ComponentPad*%
%ADD14O,1.700000X1.700000*%
%TD*%
%TA.AperFunction,ComponentPad*%
%ADD15R,1.700000X1.700000*%
%TD*%
%TA.AperFunction,ComponentPad*%
%ADD16C,1.800000*%
%TD*%
%TA.AperFunction,ComponentPad*%
%ADD17R,1.300000X1.300000*%
%TD*%
%TA.AperFunction,ComponentPad*%
%ADD18R,1.600000X1.600000*%
%TD*%
%TA.AperFunction,ViaPad*%
%ADD19C,0.800000*%
%TD*%
%TA.AperFunction,Conductor*%
%ADD20C,0.250000*%
%TD*%
%TA.AperFunction,Conductor*%
%ADD21C,0.500000*%
%TD*%
%TA.AperFunction,Conductor*%
%ADD22C,0.750000*%
%TD*%
%TA.AperFunction,Conductor*%
%ADD23C,1.000000*%
%TD*%
G04 APERTURE END LIST*
D10*
%TO.P,U1,13*%
%TO.N,Net-(U1-Pad13)*%
X167640000Y-36773400D03*
%TO.P,U1,33*%
%TO.N,+5V*%
X152400000Y-67253400D03*
%TO.P,U1,34*%
%TO.N,Net-(U1-Pad34)*%
X154940000Y-64713400D03*
%TO.P,U1,32*%
%TO.N,Net-(U1-Pad32)*%
X152400000Y-64713400D03*
%TO.P,U1,31*%
%TO.N,Net-(RV1-Pad1)*%
X152400000Y-62173400D03*
%TO.P,U1,30*%
%TO.N,Net-(RV1-Pad2)*%
X152400000Y-59633400D03*
%TO.P,U1,29*%
%TO.N,Net-(R1-Pad1)*%
X152400000Y-57093400D03*
%TO.P,U1,28*%
%TO.N,Net-(U1-Pad28)*%
X152400000Y-54553400D03*
%TO.P,U1,27*%
%TO.N,Net-(U1-Pad27)*%
X152400000Y-52013400D03*
%TO.P,U1,26*%
%TO.N,Net-(U1-Pad26)*%
X152400000Y-49473400D03*
%TO.P,U1,25*%
%TO.N,Net-(U1-Pad25)*%
X152400000Y-46933400D03*
%TO.P,U1,24*%
%TO.N,Net-(A1-Pad23)*%
X152400000Y-44393400D03*
%TO.P,U1,23*%
%TO.N,Net-(A1-Pad24)*%
X152400000Y-41853400D03*
%TO.P,U1,22*%
%TO.N,Net-(U1-Pad22)*%
X152400000Y-39313400D03*
%TO.P,U1,21*%
%TO.N,Net-(U1-Pad21)*%
X152400000Y-36773400D03*
%TO.P,U1,20*%
%TO.N,Net-(U1-Pad20)*%
X152400000Y-34233400D03*
%TO.P,U1,19*%
%TO.N,Net-(U1-Pad19)*%
X154940000Y-34233400D03*
%TO.P,U1,18*%
%TO.N,Net-(U1-Pad18)*%
X157480000Y-34233400D03*
%TO.P,U1,17*%
%TO.N,Net-(U1-Pad17)*%
X160020000Y-34233400D03*
%TO.P,U1,16*%
%TO.N,Net-(U1-Pad16)*%
X162560000Y-34233400D03*
%TO.P,U1,15*%
%TO.N,Net-(U1-Pad15)*%
X165100000Y-34233400D03*
%TO.P,U1,14*%
%TO.N,Net-(U1-Pad14)*%
X167640000Y-34233400D03*
%TO.P,U1,12*%
%TO.N,Net-(U1-Pad12)*%
X167640000Y-39313400D03*
%TO.P,U1,11*%
%TO.N,Net-(U1-Pad11)*%
X167640000Y-41853400D03*
%TO.P,U1,10*%
%TO.N,Net-(U1-Pad10)*%
X167640000Y-44393400D03*
%TO.P,U1,9*%
%TO.N,Net-(U1-Pad9)*%
X167640000Y-46933400D03*
%TO.P,U1,8*%
%TO.N,Net-(U1-Pad8)*%
X167640000Y-49473400D03*
%TO.P,U1,7*%
%TO.N,Net-(U1-Pad7)*%
X167640000Y-52013400D03*
%TO.P,U1,6*%
%TO.N,Net-(U1-Pad6)*%
X167640000Y-54553400D03*
%TO.P,U1,5*%
%TO.N,Net-(U1-Pad5)*%
X167640000Y-57093400D03*
%TO.P,U1,4*%
%TO.N,Net-(U1-Pad4)*%
X167640000Y-59633400D03*
%TO.P,U1,3*%
%TO.N,Net-(U1-Pad3)*%
X167640000Y-62173400D03*
D11*
%TO.P,U1,54*%
%TO.N,Net-(J1-Pad3)*%
X161290000Y-65983400D03*
%TO.P,U1,53*%
%TO.N,Net-(J1-Pad2)*%
X158750000Y-65983400D03*
D10*
%TO.P,U1,2*%
%TO.N,Net-(U1-Pad2)*%
X167640000Y-64713400D03*
%TO.P,U1,1*%
%TO.N,GND*%
X167640000Y-67253400D03*
%TD*%
D12*
%TO.P,R4,2*%
%TO.N,Net-(R1-Pad1)*%
X147320000Y-56515000D03*
D13*
%TO.P,R4,1*%
%TO.N,Net-(R4-Pad1)*%
X147320000Y-64135000D03*
%TD*%
D12*
%TO.P,R3,2*%
%TO.N,Net-(R1-Pad1)*%
X144145000Y-56515000D03*
D13*
%TO.P,R3,1*%
%TO.N,Net-(R3-Pad1)*%
X144145000Y-64135000D03*
%TD*%
D12*
%TO.P,R2,2*%
%TO.N,Net-(R1-Pad1)*%
X140970000Y-56515000D03*
D13*
%TO.P,R2,1*%
%TO.N,Net-(R2-Pad1)*%
X140970000Y-64135000D03*
%TD*%
D12*
%TO.P,R1,2*%
%TO.N,GND*%
X137795000Y-56515000D03*
D13*
%TO.P,R1,1*%
%TO.N,Net-(R1-Pad1)*%
X137795000Y-64135000D03*
%TD*%
D14*
%TO.P,SW2,6*%
%TO.N,Net-(RV1-Pad1)*%
X154940000Y-77470000D03*
%TO.P,SW2,5*%
X154940000Y-80010000D03*
%TO.P,SW2,4*%
X152400000Y-77470000D03*
%TO.P,SW2,3*%
%TO.N,Net-(R4-Pad1)*%
X152400000Y-80010000D03*
%TO.P,SW2,2*%
%TO.N,Net-(R3-Pad1)*%
X149860000Y-77470000D03*
D15*
%TO.P,SW2,1*%
%TO.N,Net-(R2-Pad1)*%
X149860000Y-80010000D03*
%TD*%
D14*
%TO.P,RV1,3*%
%TO.N,GND*%
X139700000Y-80010000D03*
%TO.P,RV1,2*%
%TO.N,Net-(RV1-Pad2)*%
X137160000Y-80010000D03*
D15*
%TO.P,RV1,1*%
%TO.N,Net-(RV1-Pad1)*%
X134620000Y-80010000D03*
%TD*%
D14*
%TO.P,J5,3*%
%TO.N,Net-(J4-Pad3)*%
X184150000Y-80010000D03*
%TO.P,J5,2*%
%TO.N,Net-(J4-Pad2)*%
X181610000Y-80010000D03*
D15*
%TO.P,J5,1*%
%TO.N,GND*%
X179070000Y-80010000D03*
%TD*%
D14*
%TO.P,J4,3*%
%TO.N,Net-(J4-Pad3)*%
X198120000Y-80010000D03*
%TO.P,J4,2*%
%TO.N,Net-(J4-Pad2)*%
X195580000Y-80010000D03*
D15*
%TO.P,J4,1*%
%TO.N,GND*%
X193040000Y-80010000D03*
%TD*%
D14*
%TO.P,J3,2*%
%TO.N,+5V*%
X135890000Y-27305000D03*
D15*
%TO.P,J3,1*%
%TO.N,GND*%
X133350000Y-27305000D03*
%TD*%
D14*
%TO.P,J2,3*%
%TO.N,Net-(J2-Pad3)*%
X128270000Y-40005000D03*
%TO.P,J2,2*%
%TO.N,Net-(J2-Pad2)*%
X128270000Y-37465000D03*
D15*
%TO.P,J2,1*%
%TO.N,Net-(J2-Pad1)*%
X128270000Y-34925000D03*
%TD*%
D14*
%TO.P,J1,5*%
%TO.N,GND*%
X172720000Y-80010000D03*
%TO.P,J1,4*%
X170180000Y-80010000D03*
%TO.P,J1,3*%
%TO.N,Net-(J1-Pad3)*%
X167640000Y-80010000D03*
%TO.P,J1,2*%
%TO.N,Net-(J1-Pad2)*%
X165100000Y-80010000D03*
D15*
%TO.P,J1,1*%
%TO.N,Net-(C1-Pad1)*%
X162560000Y-80010000D03*
%TD*%
D16*
%TO.P,U4,4*%
%TO.N,+5V*%
X182340000Y-67185000D03*
%TO.P,U4,5*%
%TO.N,Net-(A1-Pad2)*%
X182340000Y-26545000D03*
%TO.P,U4,3*%
%TO.N,Net-(J4-Pad2)*%
X179800000Y-67185000D03*
%TO.P,U4,6*%
%TO.N,GND*%
X179800000Y-26545000D03*
%TO.P,U4,2*%
%TO.N,Net-(J4-Pad3)*%
X177260000Y-67185000D03*
%TO.P,U4,7*%
%TO.N,GND*%
X177260000Y-26545000D03*
%TO.P,U4,1*%
X174720000Y-67185000D03*
%TO.P,U4,8*%
%TO.N,Net-(U4-Pad8)*%
X174720000Y-26545000D03*
%TD*%
%TO.P,U3,8*%
%TO.N,Net-(C1-Pad1)*%
%TA.AperFunction,SMDPad,CuDef*%
G36*
G01*
X131675000Y-58570000D02*
X131675000Y-58270000D01*
G75*
G02*
X131825000Y-58120000I150000J0D01*
G01*
X133475000Y-58120000D01*
G75*
G02*
X133625000Y-58270000I0J-150000D01*
G01*
X133625000Y-58570000D01*
G75*
G02*
X133475000Y-58720000I-150000J0D01*
G01*
X131825000Y-58720000D01*
G75*
G02*
X131675000Y-58570000I0J150000D01*
G01*
G37*
%TD.AperFunction*%
%TO.P,U3,7*%
%TA.AperFunction,SMDPad,CuDef*%
G36*
G01*
X131675000Y-59840000D02*
X131675000Y-59540000D01*
G75*
G02*
X131825000Y-59390000I150000J0D01*
G01*
X133475000Y-59390000D01*
G75*
G02*
X133625000Y-59540000I0J-150000D01*
G01*
X133625000Y-59840000D01*
G75*
G02*
X133475000Y-59990000I-150000J0D01*
G01*
X131825000Y-59990000D01*
G75*
G02*
X131675000Y-59840000I0J150000D01*
G01*
G37*
%TD.AperFunction*%
%TO.P,U3,6*%
%TA.AperFunction,SMDPad,CuDef*%
G36*
G01*
X131675000Y-61110000D02*
X131675000Y-60810000D01*
G75*
G02*
X131825000Y-60660000I150000J0D01*
G01*
X133475000Y-60660000D01*
G75*
G02*
X133625000Y-60810000I0J-150000D01*
G01*
X133625000Y-61110000D01*
G75*
G02*
X133475000Y-61260000I-150000J0D01*
G01*
X131825000Y-61260000D01*
G75*
G02*
X131675000Y-61110000I0J150000D01*
G01*
G37*
%TD.AperFunction*%
%TO.P,U3,5*%
%TO.N,Net-(U3-Pad5)*%
%TA.AperFunction,SMDPad,CuDef*%
G36*
G01*
X131675000Y-62380000D02*
X131675000Y-62080000D01*
G75*
G02*
X131825000Y-61930000I150000J0D01*
G01*
X133475000Y-61930000D01*
G75*
G02*
X133625000Y-62080000I0J-150000D01*
G01*
X133625000Y-62380000D01*
G75*
G02*
X133475000Y-62530000I-150000J0D01*
G01*
X131825000Y-62530000D01*
G75*
G02*
X131675000Y-62380000I0J150000D01*
G01*
G37*
%TD.AperFunction*%
%TO.P,U3,4*%
%TO.N,+5V*%
%TA.AperFunction,SMDPad,CuDef*%
G36*
G01*
X126725000Y-62380000D02*
X126725000Y-62080000D01*
G75*
G02*
X126875000Y-61930000I150000J0D01*
G01*
X128525000Y-61930000D01*
G75*
G02*
X128675000Y-62080000I0J-150000D01*
G01*
X128675000Y-62380000D01*
G75*
G02*
X128525000Y-62530000I-150000J0D01*
G01*
X126875000Y-62530000D01*
G75*
G02*
X126725000Y-62380000I0J150000D01*
G01*
G37*
%TD.AperFunction*%
%TO.P,U3,3*%
%TA.AperFunction,SMDPad,CuDef*%
G36*
G01*
X126725000Y-61110000D02*
X126725000Y-60810000D01*
G75*
G02*
X126875000Y-60660000I150000J0D01*
G01*
X128525000Y-60660000D01*
G75*
G02*
X128675000Y-60810000I0J-150000D01*
G01*
X128675000Y-61110000D01*
G75*
G02*
X128525000Y-61260000I-150000J0D01*
G01*
X126875000Y-61260000D01*
G75*
G02*
X126725000Y-61110000I0J150000D01*
G01*
G37*
%TD.AperFunction*%
%TO.P,U3,2*%
%TA.AperFunction,SMDPad,CuDef*%
G36*
G01*
X126725000Y-59840000D02*
X126725000Y-59540000D01*
G75*
G02*
X126875000Y-59390000I150000J0D01*
G01*
X128525000Y-59390000D01*
G75*
G02*
X128675000Y-59540000I0J-150000D01*
G01*
X128675000Y-59840000D01*
G75*
G02*
X128525000Y-59990000I-150000J0D01*
G01*
X126875000Y-59990000D01*
G75*
G02*
X126725000Y-59840000I0J150000D01*
G01*
G37*
%TD.AperFunction*%
%TO.P,U3,1*%
%TO.N,GND*%
%TA.AperFunction,SMDPad,CuDef*%
G36*
G01*
X126725000Y-58570000D02*
X126725000Y-58270000D01*
G75*
G02*
X126875000Y-58120000I150000J0D01*
G01*
X128525000Y-58120000D01*
G75*
G02*
X128675000Y-58270000I0J-150000D01*
G01*
X128675000Y-58570000D01*
G75*
G02*
X128525000Y-58720000I-150000J0D01*
G01*
X126875000Y-58720000D01*
G75*
G02*
X126725000Y-58570000I0J150000D01*
G01*
G37*
%TD.AperFunction*%
%TD*%
%TO.P,U2,14*%
%TO.N,+5V*%
%TA.AperFunction,SMDPad,CuDef*%
G36*
G01*
X145010000Y-33805000D02*
X145010000Y-33505000D01*
G75*
G02*
X145160000Y-33355000I150000J0D01*
G01*
X146810000Y-33355000D01*
G75*
G02*
X146960000Y-33505000I0J-150000D01*
G01*
X146960000Y-33805000D01*
G75*
G02*
X146810000Y-33955000I-150000J0D01*
G01*
X145160000Y-33955000D01*
G75*
G02*
X145010000Y-33805000I0J150000D01*
G01*
G37*
%TD.AperFunction*%
%TO.P,U2,13*%
%TO.N,Net-(U2-Pad13)*%
%TA.AperFunction,SMDPad,CuDef*%
G36*
G01*
X145010000Y-35075000D02*
X145010000Y-34775000D01*
G75*
G02*
X145160000Y-34625000I150000J0D01*
G01*
X146810000Y-34625000D01*
G75*
G02*
X146960000Y-34775000I0J-150000D01*
G01*
X146960000Y-35075000D01*
G75*
G02*
X146810000Y-35225000I-150000J0D01*
G01*
X145160000Y-35225000D01*
G75*
G02*
X145010000Y-35075000I0J150000D01*
G01*
G37*
%TD.AperFunction*%
%TO.P,U2,12*%
%TO.N,Net-(U2-Pad12)*%
%TA.AperFunction,SMDPad,CuDef*%
G36*
G01*
X145010000Y-36345000D02*
X145010000Y-36045000D01*
G75*
G02*
X145160000Y-35895000I150000J0D01*
G01*
X146810000Y-35895000D01*
G75*
G02*
X146960000Y-36045000I0J-150000D01*
G01*
X146960000Y-36345000D01*
G75*
G02*
X146810000Y-36495000I-150000J0D01*
G01*
X145160000Y-36495000D01*
G75*
G02*
X145010000Y-36345000I0J150000D01*
G01*
G37*
%TD.AperFunction*%
%TO.P,U2,11*%
%TO.N,Net-(U2-Pad11)*%
%TA.AperFunction,SMDPad,CuDef*%
G36*
G01*
X145010000Y-37615000D02*
X145010000Y-37315000D01*
G75*
G02*
X145160000Y-37165000I150000J0D01*
G01*
X146810000Y-37165000D01*
G75*
G02*
X146960000Y-37315000I0J-150000D01*
G01*
X146960000Y-37615000D01*
G75*
G02*
X146810000Y-37765000I-150000J0D01*
G01*
X145160000Y-37765000D01*
G75*
G02*
X145010000Y-37615000I0J150000D01*
G01*
G37*
%TD.AperFunction*%
%TO.P,U2,10*%
%TO.N,GND*%
%TA.AperFunction,SMDPad,CuDef*%
G36*
G01*
X145010000Y-38885000D02*
X145010000Y-38585000D01*
G75*
G02*
X145160000Y-38435000I150000J0D01*
G01*
X146810000Y-38435000D01*
G75*
G02*
X146960000Y-38585000I0J-150000D01*
G01*
X146960000Y-38885000D01*
G75*
G02*
X146810000Y-39035000I-150000J0D01*
G01*
X145160000Y-39035000D01*
G75*
G02*
X145010000Y-38885000I0J150000D01*
G01*
G37*
%TD.AperFunction*%
%TO.P,U2,9*%
%TO.N,Net-(U1-Pad22)*%
%TA.AperFunction,SMDPad,CuDef*%
G36*
G01*
X145010000Y-40155000D02*
X145010000Y-39855000D01*
G75*
G02*
X145160000Y-39705000I150000J0D01*
G01*
X146810000Y-39705000D01*
G75*
G02*
X146960000Y-39855000I0J-150000D01*
G01*
X146960000Y-40155000D01*
G75*
G02*
X146810000Y-40305000I-150000J0D01*
G01*
X145160000Y-40305000D01*
G75*
G02*
X145010000Y-40155000I0J150000D01*
G01*
G37*
%TD.AperFunction*%
%TO.P,U2,8*%
%TO.N,Net-(J2-Pad3)*%
%TA.AperFunction,SMDPad,CuDef*%
G36*
G01*
X145010000Y-41425000D02*
X145010000Y-41125000D01*
G75*
G02*
X145160000Y-40975000I150000J0D01*
G01*
X146810000Y-40975000D01*
G75*
G02*
X146960000Y-41125000I0J-150000D01*
G01*
X146960000Y-41425000D01*
G75*
G02*
X146810000Y-41575000I-150000J0D01*
G01*
X145160000Y-41575000D01*
G75*
G02*
X145010000Y-41425000I0J150000D01*
G01*
G37*
%TD.AperFunction*%
%TO.P,U2,7*%
%TO.N,GND*%
%TA.AperFunction,SMDPad,CuDef*%
G36*
G01*
X140060000Y-41425000D02*
X140060000Y-41125000D01*
G75*
G02*
X140210000Y-40975000I150000J0D01*
G01*
X141860000Y-40975000D01*
G75*
G02*
X142010000Y-41125000I0J-150000D01*
G01*
X142010000Y-41425000D01*
G75*
G02*
X141860000Y-41575000I-150000J0D01*
G01*
X140210000Y-41575000D01*
G75*
G02*
X140060000Y-41425000I0J150000D01*
G01*
G37*
%TD.AperFunction*%
%TO.P,U2,6*%
%TO.N,Net-(J2-Pad2)*%
%TA.AperFunction,SMDPad,CuDef*%
G36*
G01*
X140060000Y-40155000D02*
X140060000Y-39855000D01*
G75*
G02*
X140210000Y-39705000I150000J0D01*
G01*
X141860000Y-39705000D01*
G75*
G02*
X142010000Y-39855000I0J-150000D01*
G01*
X142010000Y-40155000D01*
G75*
G02*
X141860000Y-40305000I-150000J0D01*
G01*
X140210000Y-40305000D01*
G75*
G02*
X140060000Y-40155000I0J150000D01*
G01*
G37*
%TD.AperFunction*%
%TO.P,U2,5*%
%TO.N,Net-(U1-Pad21)*%
%TA.AperFunction,SMDPad,CuDef*%
G36*
G01*
X140060000Y-38885000D02*
X140060000Y-38585000D01*
G75*
G02*
X140210000Y-38435000I150000J0D01*
G01*
X141860000Y-38435000D01*
G75*
G02*
X142010000Y-38585000I0J-150000D01*
G01*
X142010000Y-38885000D01*
G75*
G02*
X141860000Y-39035000I-150000J0D01*
G01*
X140210000Y-39035000D01*
G75*
G02*
X140060000Y-38885000I0J150000D01*
G01*
G37*
%TD.AperFunction*%
%TO.P,U2,4*%
%TO.N,GND*%
%TA.AperFunction,SMDPad,CuDef*%
G36*
G01*
X140060000Y-37615000D02*
X140060000Y-37315000D01*
G75*
G02*
X140210000Y-37165000I150000J0D01*
G01*
X141860000Y-37165000D01*
G75*
G02*
X142010000Y-37315000I0J-150000D01*
G01*
X142010000Y-37615000D01*
G75*
G02*
X141860000Y-37765000I-150000J0D01*
G01*
X140210000Y-37765000D01*
G75*
G02*
X140060000Y-37615000I0J150000D01*
G01*
G37*
%TD.AperFunction*%
%TO.P,U2,3*%
%TO.N,Net-(J2-Pad1)*%
%TA.AperFunction,SMDPad,CuDef*%
G36*
G01*
X140060000Y-36345000D02*
X140060000Y-36045000D01*
G75*
G02*
X140210000Y-35895000I150000J0D01*
G01*
X141860000Y-35895000D01*
G75*
G02*
X142010000Y-36045000I0J-150000D01*
G01*
X142010000Y-36345000D01*
G75*
G02*
X141860000Y-36495000I-150000J0D01*
G01*
X140210000Y-36495000D01*
G75*
G02*
X140060000Y-36345000I0J150000D01*
G01*
G37*
%TD.AperFunction*%
%TO.P,U2,2*%
%TO.N,Net-(U1-Pad25)*%
%TA.AperFunction,SMDPad,CuDef*%
G36*
G01*
X140060000Y-35075000D02*
X140060000Y-34775000D01*
G75*
G02*
X140210000Y-34625000I150000J0D01*
G01*
X141860000Y-34625000D01*
G75*
G02*
X142010000Y-34775000I0J-150000D01*
G01*
X142010000Y-35075000D01*
G75*
G02*
X141860000Y-35225000I-150000J0D01*
G01*
X140210000Y-35225000D01*
G75*
G02*
X140060000Y-35075000I0J150000D01*
G01*
G37*
%TD.AperFunction*%
%TO.P,U2,1*%
%TO.N,GND*%
%TA.AperFunction,SMDPad,CuDef*%
G36*
G01*
X140060000Y-33805000D02*
X140060000Y-33505000D01*
G75*
G02*
X140210000Y-33355000I150000J0D01*
G01*
X141860000Y-33355000D01*
G75*
G02*
X142010000Y-33505000I0J-150000D01*
G01*
X142010000Y-33805000D01*
G75*
G02*
X141860000Y-33955000I-150000J0D01*
G01*
X140210000Y-33955000D01*
G75*
G02*
X140060000Y-33805000I0J150000D01*
G01*
G37*
%TD.AperFunction*%
%TD*%
D17*
%TO.P,C2,1*%
%TO.N,+5V*%
X142240000Y-49530000D03*
D13*
%TO.P,C2,2*%
%TO.N,GND*%
X144240000Y-49530000D03*
%TD*%
%TO.P,C1,2*%
%TO.N,GND*%
X135580000Y-49530000D03*
D18*
%TO.P,C1,1*%
%TO.N,Net-(C1-Pad1)*%
X132080000Y-49530000D03*
%TD*%
D12*
%TO.P,A1,16*%
%TO.N,Net-(A1-Pad16)*%
X203770000Y-64925000D03*
%TO.P,A1,15*%
%TO.N,Net-(A1-Pad15)*%
X188530000Y-64925000D03*
%TO.P,A1,30*%
%TO.N,+5V*%
X203770000Y-29365000D03*
%TO.P,A1,14*%
%TO.N,Net-(A1-Pad14)*%
X188530000Y-62385000D03*
%TO.P,A1,29*%
%TO.N,GND*%
X203770000Y-31905000D03*
%TO.P,A1,13*%
%TO.N,Net-(A1-Pad13)*%
X188530000Y-59845000D03*
%TO.P,A1,28*%
%TO.N,Net-(A1-Pad28)*%
X203770000Y-34445000D03*
%TO.P,A1,12*%
%TO.N,Net-(A1-Pad12)*%
X188530000Y-57305000D03*
%TO.P,A1,27*%
%TO.N,Net-(A1-Pad27)*%
X203770000Y-36985000D03*
%TO.P,A1,11*%
%TO.N,Net-(A1-Pad11)*%
X188530000Y-54765000D03*
%TO.P,A1,26*%
%TO.N,Net-(A1-Pad26)*%
X203770000Y-39525000D03*
%TO.P,A1,10*%
%TO.N,Net-(A1-Pad10)*%
X188530000Y-52225000D03*
%TO.P,A1,25*%
%TO.N,Net-(A1-Pad25)*%
X203770000Y-42065000D03*
%TO.P,A1,9*%
%TO.N,Net-(A1-Pad9)*%
X188530000Y-49685000D03*
%TO.P,A1,24*%
%TO.N,Net-(A1-Pad24)*%
X203770000Y-44605000D03*
%TO.P,A1,8*%
%TO.N,Net-(A1-Pad8)*%
X188530000Y-47145000D03*
%TO.P,A1,23*%
%TO.N,Net-(A1-Pad23)*%
X203770000Y-47145000D03*
%TO.P,A1,7*%
%TO.N,Net-(A1-Pad7)*%
X188530000Y-44605000D03*
%TO.P,A1,22*%
%TO.N,Net-(A1-Pad22)*%
X203770000Y-49685000D03*
%TO.P,A1,6*%
%TO.N,Net-(A1-Pad6)*%
X188530000Y-42065000D03*
%TO.P,A1,21*%
%TO.N,Net-(A1-Pad21)*%
X203770000Y-52225000D03*
%TO.P,A1,5*%
%TO.N,Net-(A1-Pad5)*%
X188530000Y-39525000D03*
%TO.P,A1,20*%
%TO.N,Net-(A1-Pad20)*%
X203770000Y-54765000D03*
%TO.P,A1,4*%
%TO.N,Net-(A1-Pad4)*%
X188530000Y-36985000D03*
%TO.P,A1,19*%
%TO.N,Net-(A1-Pad19)*%
X203770000Y-57305000D03*
%TO.P,A1,3*%
%TO.N,Net-(A1-Pad3)*%
X188530000Y-34445000D03*
%TO.P,A1,18*%
%TO.N,Net-(A1-Pad18)*%
X203770000Y-59845000D03*
%TO.P,A1,2*%
%TO.N,Net-(A1-Pad2)*%
X188530000Y-31905000D03*
%TO.P,A1,17*%
%TO.N,Net-(A1-Pad17)*%
X203770000Y-62385000D03*
D18*
%TO.P,A1,1*%
%TO.N,Net-(A1-Pad1)*%
X188530000Y-29365000D03*
%TD*%
D19*
%TO.N,Net-(U1-Pad25)*%
X139065000Y-34925000D03*
%TO.N,Net-(U1-Pad22)*%
X147955000Y-40005000D03*
%TO.N,Net-(U1-Pad21)*%
X139065000Y-38735000D03*
%TO.N,GND*%
X143510000Y-36830000D03*
X127635000Y-57150000D03*
%TO.N,Net-(C1-Pad1)*%
X134620000Y-59690000D03*
%TD*%
D20*
%TO.N,Net-(U1-Pad25)*%
X141035000Y-34925000D02*
X139065000Y-34925000D01*
%TO.N,Net-(U1-Pad22)*%
X145985000Y-40005000D02*
X147955000Y-40005000D01*
%TO.N,Net-(U1-Pad21)*%
X141035000Y-38735000D02*
X139065000Y-38735000D01*
D21*
%TO.N,+5V*%
X145985000Y-27370000D02*
X146050000Y-27305000D01*
X145985000Y-33655000D02*
X145985000Y-27370000D01*
D22*
X152400000Y-67253400D02*
X149860000Y-64713400D01*
D21*
X142240000Y-48230000D02*
X142240000Y-49530000D01*
X143480000Y-46990000D02*
X142240000Y-48230000D01*
X149860000Y-46990000D02*
X143480000Y-46990000D01*
D22*
X149860000Y-64713400D02*
X149860000Y-46990000D01*
X149860000Y-46990000D02*
X149860000Y-27305000D01*
D21*
X128677808Y-59690000D02*
X127700000Y-59690000D01*
X138837808Y-49530000D02*
X128677808Y-59690000D01*
X142240000Y-49530000D02*
X138837808Y-49530000D01*
X127700000Y-59690000D02*
X127700000Y-62230000D01*
D23*
X135890000Y-27305000D02*
X149860000Y-27305000D01*
X151225000Y-28670000D02*
X182340000Y-28670000D01*
X149860000Y-27305000D02*
X151225000Y-28670000D01*
D21*
X182340000Y-67185000D02*
X182340000Y-28670000D01*
D23*
X202219999Y-27814999D02*
X203770000Y-29365000D01*
X187129999Y-27814999D02*
X202219999Y-27814999D01*
X186274998Y-28670000D02*
X187129999Y-27814999D01*
X182340000Y-28670000D02*
X186274998Y-28670000D01*
D20*
%TO.N,GND*%
X143510000Y-35155000D02*
X143510000Y-36830000D01*
X142010000Y-33655000D02*
X143510000Y-35155000D01*
X141035000Y-33655000D02*
X142010000Y-33655000D01*
X142875000Y-37465000D02*
X143510000Y-36830000D01*
X141035000Y-37465000D02*
X142875000Y-37465000D01*
X145415000Y-38735000D02*
X143510000Y-36830000D01*
X145985000Y-38735000D02*
X145415000Y-38735000D01*
X143510000Y-39775000D02*
X143510000Y-36830000D01*
X142010000Y-41275000D02*
X143510000Y-39775000D01*
X141035000Y-41275000D02*
X142010000Y-41275000D01*
X127700000Y-57215000D02*
X127635000Y-57150000D01*
X127700000Y-58420000D02*
X127700000Y-57215000D01*
%TO.N,Net-(C1-Pad1)*%
X132650000Y-59690000D02*
X134620000Y-59690000D01*
X133350000Y-60960000D02*
X134620000Y-59690000D01*
X132650000Y-60960000D02*
X133350000Y-60960000D01*
X133350000Y-58420000D02*
X134620000Y-59690000D01*
X132650000Y-58420000D02*
X133350000Y-58420000D01*
%TO.N,Net-(J1-Pad3)*%
X161290000Y-73660000D02*
X167640000Y-80010000D01*
X161290000Y-65983400D02*
X161290000Y-73660000D01*
%TO.N,Net-(J1-Pad2)*%
X158750000Y-73660000D02*
X165100000Y-80010000D01*
X158750000Y-65983400D02*
X158750000Y-73660000D01*
%TO.N,Net-(J2-Pad3)*%
X145309990Y-41950010D02*
X145985000Y-41275000D01*
X130215010Y-41950010D02*
X145309990Y-41950010D01*
X128270000Y-40005000D02*
X130215010Y-41950010D01*
%TO.N,Net-(J2-Pad2)*%
X130810000Y-40005000D02*
X141035000Y-40005000D01*
X128270000Y-37465000D02*
X130810000Y-40005000D01*
%TO.N,Net-(J2-Pad1)*%
X129540000Y-36195000D02*
X141035000Y-36195000D01*
X128270000Y-34925000D02*
X129540000Y-36195000D01*
%TO.N,Net-(J4-Pad3)*%
X180295001Y-70220001D02*
X177260000Y-67185000D01*
X180295001Y-80508003D02*
X180295001Y-70220001D01*
X181021999Y-81235001D02*
X180295001Y-80508003D01*
X182924999Y-81235001D02*
X181021999Y-81235001D01*
X184150000Y-80010000D02*
X182924999Y-81235001D01*
X196894999Y-81235001D02*
X198120000Y-80010000D01*
X185375001Y-81235001D02*
X196894999Y-81235001D01*
X184150000Y-80010000D02*
X185375001Y-81235001D01*
%TO.N,Net-(J4-Pad2)*%
X181610000Y-68995000D02*
X179800000Y-67185000D01*
X181610000Y-80010000D02*
X181610000Y-68995000D01*
X194354999Y-78784999D02*
X195580000Y-80010000D01*
X182835001Y-78784999D02*
X194354999Y-78784999D01*
X181610000Y-80010000D02*
X182835001Y-78784999D01*
%TO.N,Net-(R1-Pad1)*%
X137795000Y-59690000D02*
X140970000Y-56515000D01*
X137795000Y-64135000D02*
X137795000Y-59690000D01*
X140970000Y-56515000D02*
X147320000Y-56515000D01*
%TO.N,Net-(R2-Pad1)*%
X140970000Y-71120000D02*
X149860000Y-80010000D01*
X140970000Y-64135000D02*
X140970000Y-71120000D01*
%TO.N,Net-(R3-Pad1)*%
X144145000Y-71755000D02*
X149860000Y-77470000D01*
X144145000Y-64135000D02*
X144145000Y-71755000D01*
%TO.N,Net-(R4-Pad1)*%
X151174999Y-78784999D02*
X152400000Y-80010000D01*
X151174999Y-67989999D02*
X151174999Y-78784999D01*
X147320000Y-64135000D02*
X151174999Y-67989999D01*
%TO.N,Net-(RV1-Pad1)*%
X153714999Y-81235001D02*
X154940000Y-80010000D01*
X144944998Y-77470000D02*
X148709999Y-81235001D01*
X136060000Y-77470000D02*
X144944998Y-77470000D01*
X148709999Y-81235001D02*
X153714999Y-81235001D01*
X134620000Y-78910000D02*
X136060000Y-77470000D01*
X134620000Y-80010000D02*
X134620000Y-78910000D01*
X154940000Y-80010000D02*
X154940000Y-77470000D01*
X154940000Y-77470000D02*
X152400000Y-77470000D01*
X153727001Y-63500401D02*
X152400000Y-62173400D01*
X153727001Y-76142999D02*
X153727001Y-63500401D01*
X152400000Y-77470000D02*
X153727001Y-76142999D01*
%TD*%
M02*
