M48
; DRILL file {KiCad 5.1.10} date Fri Jul 23 12:05:37 2021
; FORMAT={-:-/ absolute / inch / decimal}
; #@! TF.CreationDate,2021-07-23T12:05:37+02:00
; #@! TF.GenerationSoftware,Kicad,Pcbnew,5.1.10
FMAT,2
INCH
T1C0.0157
T2C0.0315
T3C0.0394
T4C0.0433
T5C0.0866
%
G90
G05
T1
X5.025Y-2.25
X5.3Y-2.35
X5.475Y-1.375
X5.475Y-1.525
X5.65Y-1.45
X5.825Y-1.575
T2
X5.2Y-1.95
X5.3378Y-1.95
X5.425Y-2.225
X5.425Y-2.525
X5.55Y-2.225
X5.55Y-2.525
X5.6Y-1.95
X5.675Y-2.225
X5.675Y-2.525
X5.6787Y-1.95
X5.8Y-2.225
X5.8Y-2.525
X6.8787Y-1.0451
X6.8787Y-2.6451
X6.9787Y-1.0451
X6.9787Y-2.6451
X7.0787Y-1.0451
X7.0787Y-2.6451
X7.1787Y-1.0451
X7.1787Y-2.6451
T3
X5.05Y-1.375
X5.05Y-1.475
X5.05Y-1.575
X5.25Y-1.075
X5.3Y-3.15
X5.35Y-1.075
X5.4Y-3.15
X5.5Y-3.15
X5.9Y-3.05
X5.9Y-3.15
X6.0Y-3.05
X6.0Y-3.15
X6.1Y-3.05
X6.1Y-3.15
X6.25Y-2.5978
X6.35Y-2.5978
X6.4Y-3.15
X6.5Y-3.15
X6.6Y-3.15
X6.7Y-3.15
X6.8Y-3.15
X7.05Y-3.15
X7.15Y-3.15
X7.25Y-3.15
X7.4224Y-1.1561
X7.4224Y-1.2561
X7.4224Y-1.3561
X7.4224Y-1.4561
X7.4224Y-1.5561
X7.4224Y-1.6561
X7.4224Y-1.7561
X7.4224Y-1.8561
X7.4224Y-1.9561
X7.4224Y-2.0561
X7.4224Y-2.1561
X7.4224Y-2.2561
X7.4224Y-2.3561
X7.4224Y-2.4561
X7.4224Y-2.5561
X7.6Y-3.15
X7.7Y-3.15
X7.8Y-3.15
X8.0224Y-1.1561
X8.0224Y-1.2561
X8.0224Y-1.3561
X8.0224Y-1.4561
X8.0224Y-1.5561
X8.0224Y-1.6561
X8.0224Y-1.7561
X8.0224Y-1.8561
X8.0224Y-1.9561
X8.0224Y-2.0561
X8.0224Y-2.1561
X8.0224Y-2.2561
X8.0224Y-2.3561
X8.0224Y-2.4561
X8.0224Y-2.5561
T4
X6.0Y-1.3478
X6.0Y-1.4478
X6.0Y-1.5478
X6.0Y-1.6478
X6.0Y-1.7478
X6.0Y-1.8478
X6.0Y-1.9478
X6.0Y-2.0478
X6.0Y-2.1478
X6.0Y-2.2478
X6.0Y-2.3478
X6.0Y-2.4478
X6.0Y-2.5478
X6.0Y-2.6478
X6.1Y-1.3478
X6.1Y-2.5478
X6.2Y-1.3478
X6.3Y-1.3478
X6.4Y-1.3478
X6.5Y-1.3478
X6.6Y-1.3478
X6.6Y-1.4478
X6.6Y-1.5478
X6.6Y-1.6478
X6.6Y-1.7478
X6.6Y-1.8478
X6.6Y-1.9478
X6.6Y-2.0478
X6.6Y-2.1478
X6.6Y-2.2478
X6.6Y-2.3478
X6.6Y-2.4478
X6.6Y-2.5478
X6.6Y-2.6478
T5
X5.025Y-1.025
X5.025Y-3.175
X8.075Y-1.025
X8.075Y-3.175
T0
M30
