%TF.GenerationSoftware,KiCad,Pcbnew,5.1.10*%
%TF.CreationDate,2021-07-23T12:05:05+02:00*%
%TF.ProjectId,kicad,6b696361-642e-46b6-9963-61645f706362,rev?*%
%TF.SameCoordinates,Original*%
%TF.FileFunction,Copper,L2,Bot*%
%TF.FilePolarity,Positive*%
%FSLAX46Y46*%
G04 Gerber Fmt 4.6, Leading zero omitted, Abs format (unit mm)*
G04 Created by KiCad (PCBNEW 5.1.10) date 2021-07-23 12:05:05*
%MOMM*%
%LPD*%
G01*
G04 APERTURE LIST*
%TA.AperFunction,ComponentPad*%
%ADD10C,1.404000*%
%TD*%
%TA.AperFunction,ComponentPad*%
%ADD11C,1.304000*%
%TD*%
%TA.AperFunction,ComponentPad*%
%ADD12O,1.600000X1.600000*%
%TD*%
%TA.AperFunction,ComponentPad*%
%ADD13C,1.600000*%
%TD*%
%TA.AperFunction,ComponentPad*%
%ADD14O,1.700000X1.700000*%
%TD*%
%TA.AperFunction,ComponentPad*%
%ADD15R,1.700000X1.700000*%
%TD*%
%TA.AperFunction,ComponentPad*%
%ADD16C,1.800000*%
%TD*%
%TA.AperFunction,ComponentPad*%
%ADD17R,1.300000X1.300000*%
%TD*%
%TA.AperFunction,ComponentPad*%
%ADD18R,1.600000X1.600000*%
%TD*%
%TA.AperFunction,ViaPad*%
%ADD19C,0.800000*%
%TD*%
%TA.AperFunction,Conductor*%
%ADD20C,0.250000*%
%TD*%
%TA.AperFunction,Conductor*%
%ADD21C,0.254000*%
%TD*%
%TA.AperFunction,Conductor*%
%ADD22C,0.100000*%
%TD*%
G04 APERTURE END LIST*
D10*
%TO.P,U1,13*%
%TO.N,Net-(U1-Pad13)*%
X167640000Y-36773400D03*
%TO.P,U1,33*%
%TO.N,+5V*%
X152400000Y-67253400D03*
%TO.P,U1,34*%
%TO.N,Net-(U1-Pad34)*%
X154940000Y-64713400D03*
%TO.P,U1,32*%
%TO.N,Net-(U1-Pad32)*%
X152400000Y-64713400D03*
%TO.P,U1,31*%
%TO.N,Net-(RV1-Pad1)*%
X152400000Y-62173400D03*
%TO.P,U1,30*%
%TO.N,Net-(RV1-Pad2)*%
X152400000Y-59633400D03*
%TO.P,U1,29*%
%TO.N,Net-(R1-Pad1)*%
X152400000Y-57093400D03*
%TO.P,U1,28*%
%TO.N,Net-(U1-Pad28)*%
X152400000Y-54553400D03*
%TO.P,U1,27*%
%TO.N,Net-(U1-Pad27)*%
X152400000Y-52013400D03*
%TO.P,U1,26*%
%TO.N,Net-(U1-Pad26)*%
X152400000Y-49473400D03*
%TO.P,U1,25*%
%TO.N,Net-(U1-Pad25)*%
X152400000Y-46933400D03*
%TO.P,U1,24*%
%TO.N,Net-(A1-Pad23)*%
X152400000Y-44393400D03*
%TO.P,U1,23*%
%TO.N,Net-(A1-Pad24)*%
X152400000Y-41853400D03*
%TO.P,U1,22*%
%TO.N,Net-(U1-Pad22)*%
X152400000Y-39313400D03*
%TO.P,U1,21*%
%TO.N,Net-(U1-Pad21)*%
X152400000Y-36773400D03*
%TO.P,U1,20*%
%TO.N,Net-(U1-Pad20)*%
X152400000Y-34233400D03*
%TO.P,U1,19*%
%TO.N,Net-(U1-Pad19)*%
X154940000Y-34233400D03*
%TO.P,U1,18*%
%TO.N,Net-(U1-Pad18)*%
X157480000Y-34233400D03*
%TO.P,U1,17*%
%TO.N,Net-(U1-Pad17)*%
X160020000Y-34233400D03*
%TO.P,U1,16*%
%TO.N,Net-(U1-Pad16)*%
X162560000Y-34233400D03*
%TO.P,U1,15*%
%TO.N,Net-(U1-Pad15)*%
X165100000Y-34233400D03*
%TO.P,U1,14*%
%TO.N,Net-(U1-Pad14)*%
X167640000Y-34233400D03*
%TO.P,U1,12*%
%TO.N,Net-(U1-Pad12)*%
X167640000Y-39313400D03*
%TO.P,U1,11*%
%TO.N,Net-(U1-Pad11)*%
X167640000Y-41853400D03*
%TO.P,U1,10*%
%TO.N,Net-(U1-Pad10)*%
X167640000Y-44393400D03*
%TO.P,U1,9*%
%TO.N,Net-(U1-Pad9)*%
X167640000Y-46933400D03*
%TO.P,U1,8*%
%TO.N,Net-(U1-Pad8)*%
X167640000Y-49473400D03*
%TO.P,U1,7*%
%TO.N,Net-(U1-Pad7)*%
X167640000Y-52013400D03*
%TO.P,U1,6*%
%TO.N,Net-(U1-Pad6)*%
X167640000Y-54553400D03*
%TO.P,U1,5*%
%TO.N,Net-(U1-Pad5)*%
X167640000Y-57093400D03*
%TO.P,U1,4*%
%TO.N,Net-(U1-Pad4)*%
X167640000Y-59633400D03*
%TO.P,U1,3*%
%TO.N,Net-(U1-Pad3)*%
X167640000Y-62173400D03*
D11*
%TO.P,U1,54*%
%TO.N,Net-(J1-Pad3)*%
X161290000Y-65983400D03*
%TO.P,U1,53*%
%TO.N,Net-(J1-Pad2)*%
X158750000Y-65983400D03*
D10*
%TO.P,U1,2*%
%TO.N,Net-(U1-Pad2)*%
X167640000Y-64713400D03*
%TO.P,U1,1*%
%TO.N,GND*%
X167640000Y-67253400D03*
%TD*%
D12*
%TO.P,R4,2*%
%TO.N,Net-(R1-Pad1)*%
X147320000Y-56515000D03*
D13*
%TO.P,R4,1*%
%TO.N,Net-(R4-Pad1)*%
X147320000Y-64135000D03*
%TD*%
D12*
%TO.P,R3,2*%
%TO.N,Net-(R1-Pad1)*%
X144145000Y-56515000D03*
D13*
%TO.P,R3,1*%
%TO.N,Net-(R3-Pad1)*%
X144145000Y-64135000D03*
%TD*%
D12*
%TO.P,R2,2*%
%TO.N,Net-(R1-Pad1)*%
X140970000Y-56515000D03*
D13*
%TO.P,R2,1*%
%TO.N,Net-(R2-Pad1)*%
X140970000Y-64135000D03*
%TD*%
D12*
%TO.P,R1,2*%
%TO.N,GND*%
X137795000Y-56515000D03*
D13*
%TO.P,R1,1*%
%TO.N,Net-(R1-Pad1)*%
X137795000Y-64135000D03*
%TD*%
D14*
%TO.P,SW2,6*%
%TO.N,Net-(RV1-Pad1)*%
X154940000Y-77470000D03*
%TO.P,SW2,5*%
X154940000Y-80010000D03*
%TO.P,SW2,4*%
X152400000Y-77470000D03*
%TO.P,SW2,3*%
%TO.N,Net-(R4-Pad1)*%
X152400000Y-80010000D03*
%TO.P,SW2,2*%
%TO.N,Net-(R3-Pad1)*%
X149860000Y-77470000D03*
D15*
%TO.P,SW2,1*%
%TO.N,Net-(R2-Pad1)*%
X149860000Y-80010000D03*
%TD*%
D14*
%TO.P,RV1,3*%
%TO.N,GND*%
X139700000Y-80010000D03*
%TO.P,RV1,2*%
%TO.N,Net-(RV1-Pad2)*%
X137160000Y-80010000D03*
D15*
%TO.P,RV1,1*%
%TO.N,Net-(RV1-Pad1)*%
X134620000Y-80010000D03*
%TD*%
D14*
%TO.P,J5,3*%
%TO.N,Net-(J4-Pad3)*%
X184150000Y-80010000D03*
%TO.P,J5,2*%
%TO.N,Net-(J4-Pad2)*%
X181610000Y-80010000D03*
D15*
%TO.P,J5,1*%
%TO.N,GND*%
X179070000Y-80010000D03*
%TD*%
D14*
%TO.P,J4,3*%
%TO.N,Net-(J4-Pad3)*%
X198120000Y-80010000D03*
%TO.P,J4,2*%
%TO.N,Net-(J4-Pad2)*%
X195580000Y-80010000D03*
D15*
%TO.P,J4,1*%
%TO.N,GND*%
X193040000Y-80010000D03*
%TD*%
D14*
%TO.P,J3,2*%
%TO.N,+5V*%
X135890000Y-27305000D03*
D15*
%TO.P,J3,1*%
%TO.N,GND*%
X133350000Y-27305000D03*
%TD*%
D14*
%TO.P,J2,3*%
%TO.N,Net-(J2-Pad3)*%
X128270000Y-40005000D03*
%TO.P,J2,2*%
%TO.N,Net-(J2-Pad2)*%
X128270000Y-37465000D03*
D15*
%TO.P,J2,1*%
%TO.N,Net-(J2-Pad1)*%
X128270000Y-34925000D03*
%TD*%
D14*
%TO.P,J1,5*%
%TO.N,GND*%
X172720000Y-80010000D03*
%TO.P,J1,4*%
X170180000Y-80010000D03*
%TO.P,J1,3*%
%TO.N,Net-(J1-Pad3)*%
X167640000Y-80010000D03*
%TO.P,J1,2*%
%TO.N,Net-(J1-Pad2)*%
X165100000Y-80010000D03*
D15*
%TO.P,J1,1*%
%TO.N,Net-(C1-Pad1)*%
X162560000Y-80010000D03*
%TD*%
D16*
%TO.P,U4,4*%
%TO.N,+5V*%
X182340000Y-67185000D03*
%TO.P,U4,5*%
%TO.N,Net-(A1-Pad2)*%
X182340000Y-26545000D03*
%TO.P,U4,3*%
%TO.N,Net-(J4-Pad2)*%
X179800000Y-67185000D03*
%TO.P,U4,6*%
%TO.N,GND*%
X179800000Y-26545000D03*
%TO.P,U4,2*%
%TO.N,Net-(J4-Pad3)*%
X177260000Y-67185000D03*
%TO.P,U4,7*%
%TO.N,GND*%
X177260000Y-26545000D03*
%TO.P,U4,1*%
X174720000Y-67185000D03*
%TO.P,U4,8*%
%TO.N,Net-(U4-Pad8)*%
X174720000Y-26545000D03*
%TD*%
D17*
%TO.P,C2,1*%
%TO.N,+5V*%
X142240000Y-49530000D03*
D13*
%TO.P,C2,2*%
%TO.N,GND*%
X144240000Y-49530000D03*
%TD*%
%TO.P,C1,2*%
%TO.N,GND*%
X135580000Y-49530000D03*
D18*
%TO.P,C1,1*%
%TO.N,Net-(C1-Pad1)*%
X132080000Y-49530000D03*
%TD*%
D12*
%TO.P,A1,16*%
%TO.N,Net-(A1-Pad16)*%
X203770000Y-64925000D03*
%TO.P,A1,15*%
%TO.N,Net-(A1-Pad15)*%
X188530000Y-64925000D03*
%TO.P,A1,30*%
%TO.N,+5V*%
X203770000Y-29365000D03*
%TO.P,A1,14*%
%TO.N,Net-(A1-Pad14)*%
X188530000Y-62385000D03*
%TO.P,A1,29*%
%TO.N,GND*%
X203770000Y-31905000D03*
%TO.P,A1,13*%
%TO.N,Net-(A1-Pad13)*%
X188530000Y-59845000D03*
%TO.P,A1,28*%
%TO.N,Net-(A1-Pad28)*%
X203770000Y-34445000D03*
%TO.P,A1,12*%
%TO.N,Net-(A1-Pad12)*%
X188530000Y-57305000D03*
%TO.P,A1,27*%
%TO.N,Net-(A1-Pad27)*%
X203770000Y-36985000D03*
%TO.P,A1,11*%
%TO.N,Net-(A1-Pad11)*%
X188530000Y-54765000D03*
%TO.P,A1,26*%
%TO.N,Net-(A1-Pad26)*%
X203770000Y-39525000D03*
%TO.P,A1,10*%
%TO.N,Net-(A1-Pad10)*%
X188530000Y-52225000D03*
%TO.P,A1,25*%
%TO.N,Net-(A1-Pad25)*%
X203770000Y-42065000D03*
%TO.P,A1,9*%
%TO.N,Net-(A1-Pad9)*%
X188530000Y-49685000D03*
%TO.P,A1,24*%
%TO.N,Net-(A1-Pad24)*%
X203770000Y-44605000D03*
%TO.P,A1,8*%
%TO.N,Net-(A1-Pad8)*%
X188530000Y-47145000D03*
%TO.P,A1,23*%
%TO.N,Net-(A1-Pad23)*%
X203770000Y-47145000D03*
%TO.P,A1,7*%
%TO.N,Net-(A1-Pad7)*%
X188530000Y-44605000D03*
%TO.P,A1,22*%
%TO.N,Net-(A1-Pad22)*%
X203770000Y-49685000D03*
%TO.P,A1,6*%
%TO.N,Net-(A1-Pad6)*%
X188530000Y-42065000D03*
%TO.P,A1,21*%
%TO.N,Net-(A1-Pad21)*%
X203770000Y-52225000D03*
%TO.P,A1,5*%
%TO.N,Net-(A1-Pad5)*%
X188530000Y-39525000D03*
%TO.P,A1,20*%
%TO.N,Net-(A1-Pad20)*%
X203770000Y-54765000D03*
%TO.P,A1,4*%
%TO.N,Net-(A1-Pad4)*%
X188530000Y-36985000D03*
%TO.P,A1,19*%
%TO.N,Net-(A1-Pad19)*%
X203770000Y-57305000D03*
%TO.P,A1,3*%
%TO.N,Net-(A1-Pad3)*%
X188530000Y-34445000D03*
%TO.P,A1,18*%
%TO.N,Net-(A1-Pad18)*%
X203770000Y-59845000D03*
%TO.P,A1,2*%
%TO.N,Net-(A1-Pad2)*%
X188530000Y-31905000D03*
%TO.P,A1,17*%
%TO.N,Net-(A1-Pad17)*%
X203770000Y-62385000D03*
D18*
%TO.P,A1,1*%
%TO.N,Net-(A1-Pad1)*%
X188530000Y-29365000D03*
%TD*%
D19*
%TO.N,Net-(U1-Pad25)*%
X139065000Y-34925000D03*
%TO.N,Net-(U1-Pad22)*%
X147955000Y-40005000D03*
%TO.N,Net-(U1-Pad21)*%
X139065000Y-38735000D03*
%TO.N,GND*%
X143510000Y-36830000D03*
X127635000Y-57150000D03*
%TO.N,Net-(C1-Pad1)*%
X134620000Y-59690000D03*
%TD*%
D20*
%TO.N,Net-(U1-Pad25)*%
X146116398Y-46933400D02*
X152400000Y-46933400D01*
X138289999Y-39107001D02*
X146116398Y-46933400D01*
X138289999Y-35700001D02*
X138289999Y-39107001D01*
X139065000Y-34925000D02*
X138289999Y-35700001D01*
%TO.N,Net-(U1-Pad22)*%
X151708400Y-40005000D02*
X152400000Y-39313400D01*
X147955000Y-40005000D02*
X151708400Y-40005000D01*
%TO.N,Net-(U1-Pad21)*%
X150438400Y-38735000D02*
X152400000Y-36773400D01*
X139065000Y-38735000D02*
X150438400Y-38735000D01*
%TO.N,Net-(A1-Pad24)*%
X202405001Y-43240001D02*
X203770000Y-44605000D01*
X153786601Y-43240001D02*
X202405001Y-43240001D01*
X152400000Y-41853400D02*
X153786601Y-43240001D01*
%TO.N,Net-(A1-Pad23)*%
X153477001Y-45470401D02*
X152400000Y-44393400D01*
X168025401Y-45470401D02*
X153477001Y-45470401D01*
X168524999Y-45969999D02*
X168025401Y-45470401D01*
X202594999Y-45969999D02*
X168524999Y-45969999D01*
X203770000Y-47145000D02*
X202594999Y-45969999D01*
%TO.N,Net-(A1-Pad2)*%
X187700000Y-31905000D02*
X188530000Y-31905000D01*
X182340000Y-26545000D02*
X187700000Y-31905000D01*
%TO.N,Net-(C1-Pad1)*%
X161334999Y-81235001D02*
X162560000Y-80010000D01*
X133469999Y-81235001D02*
X161334999Y-81235001D01*
X132080000Y-79845002D02*
X133469999Y-81235001D01*
X132080000Y-49530000D02*
X132080000Y-79845002D01*
X134620000Y-59690000D02*
X132080000Y-59690000D01*
%TO.N,Net-(R1-Pad1)*%
X151821600Y-56515000D02*
X152400000Y-57093400D01*
X147320000Y-56515000D02*
X151821600Y-56515000D01*
%TO.N,Net-(RV1-Pad2)*%
X151322999Y-60710401D02*
X152400000Y-59633400D01*
X151322999Y-64196439D02*
X151322999Y-60710401D01*
X137160000Y-78359438D02*
X151322999Y-64196439D01*
X137160000Y-80010000D02*
X137160000Y-78359438D01*
%TD*%
D21*
%TO.N,GND*%
X207620001Y-83160000D02*
X125120000Y-83160000D01*
X125120000Y-80474117D01*
X125900000Y-80474117D01*
X125900000Y-80815883D01*
X125966675Y-81151081D01*
X126097463Y-81466831D01*
X126287337Y-81750998D01*
X126529002Y-81992663D01*
X126813169Y-82182537D01*
X127128919Y-82313325D01*
X127464117Y-82380000D01*
X127805883Y-82380000D01*
X128141081Y-82313325D01*
X128456831Y-82182537D01*
X128740998Y-81992663D01*
X128982663Y-81750998D01*
X129172537Y-81466831D01*
X129303325Y-81151081D01*
X129370000Y-80815883D01*
X129370000Y-80474117D01*
X129303325Y-80138919D01*
X129172537Y-79823169D01*
X128982663Y-79539002D01*
X128740998Y-79297337D01*
X128456831Y-79107463D01*
X128141081Y-78976675D01*
X127805883Y-78910000D01*
X127464117Y-78910000D01*
X127128919Y-78976675D01*
X126813169Y-79107463D01*
X126529002Y-79297337D01*
X126287337Y-79539002D01*
X126097463Y-79823169D01*
X125966675Y-80138919D01*
X125900000Y-80474117D01*
X125120000Y-80474117D01*
X125120000Y-48730000D01*
X130641928Y-48730000D01*
X130641928Y-50330000D01*
X130654188Y-50454482D01*
X130690498Y-50574180D01*
X130749463Y-50684494D01*
X130828815Y-50781185D01*
X130925506Y-50860537D01*
X131035820Y-50919502D01*
X131155518Y-50955812D01*
X131280000Y-50968072D01*
X131320000Y-50968072D01*
X131320000Y-59652664D01*
X131316323Y-59690000D01*
X131320000Y-59727336D01*
X131320001Y-79807669D01*
X131316324Y-79845002D01*
X131320001Y-79882335D01*
X131330998Y-79993988D01*
X131344180Y-80037444D01*
X131374454Y-80137248D01*
X131445026Y-80269278D01*
X131516201Y-80356004D01*
X131540000Y-80385003D01*
X131568998Y-80408801D01*
X132906204Y-81746009D01*
X132929998Y-81775002D01*
X132958991Y-81798796D01*
X132958995Y-81798800D01*
X133029684Y-81856812D01*
X133045723Y-81869975D01*
X133177752Y-81940547D01*
X133321013Y-81984004D01*
X133432666Y-81995001D01*
X133432675Y-81995001D01*
X133469998Y-81998677D01*
X133507321Y-81995001D01*
X161297677Y-81995001D01*
X161334999Y-81998677D01*
X161372321Y-81995001D01*
X161372332Y-81995001D01*
X161483985Y-81984004D01*
X161627246Y-81940547D01*
X161759275Y-81869975D01*
X161875000Y-81775002D01*
X161898803Y-81745998D01*
X162146729Y-81498072D01*
X163410000Y-81498072D01*
X163534482Y-81485812D01*
X163654180Y-81449502D01*
X163764494Y-81390537D01*
X163861185Y-81311185D01*
X163940537Y-81214494D01*
X163999502Y-81104180D01*
X164021513Y-81031620D01*
X164153368Y-81163475D01*
X164396589Y-81325990D01*
X164666842Y-81437932D01*
X164953740Y-81495000D01*
X165246260Y-81495000D01*
X165533158Y-81437932D01*
X165803411Y-81325990D01*
X166046632Y-81163475D01*
X166253475Y-80956632D01*
X166370000Y-80782240D01*
X166486525Y-80956632D01*
X166693368Y-81163475D01*
X166936589Y-81325990D01*
X167206842Y-81437932D01*
X167493740Y-81495000D01*
X167786260Y-81495000D01*
X168073158Y-81437932D01*
X168343411Y-81325990D01*
X168586632Y-81163475D01*
X168793475Y-80956632D01*
X168915195Y-80774466D01*
X168984822Y-80891355D01*
X169179731Y-81107588D01*
X169413080Y-81281641D01*
X169675901Y-81406825D01*
X169823110Y-81451476D01*
X170053000Y-81330155D01*
X170053000Y-80137000D01*
X170307000Y-80137000D01*
X170307000Y-81330155D01*
X170536890Y-81451476D01*
X170684099Y-81406825D01*
X170946920Y-81281641D01*
X171180269Y-81107588D01*
X171375178Y-80891355D01*
X171450000Y-80765745D01*
X171524822Y-80891355D01*
X171719731Y-81107588D01*
X171953080Y-81281641D01*
X172215901Y-81406825D01*
X172363110Y-81451476D01*
X172593000Y-81330155D01*
X172593000Y-80137000D01*
X172847000Y-80137000D01*
X172847000Y-81330155D01*
X173076890Y-81451476D01*
X173224099Y-81406825D01*
X173486920Y-81281641D01*
X173720269Y-81107588D01*
X173915178Y-80891355D01*
X173933855Y-80860000D01*
X177581928Y-80860000D01*
X177594188Y-80984482D01*
X177630498Y-81104180D01*
X177689463Y-81214494D01*
X177768815Y-81311185D01*
X177865506Y-81390537D01*
X177975820Y-81449502D01*
X178095518Y-81485812D01*
X178220000Y-81498072D01*
X178784250Y-81495000D01*
X178943000Y-81336250D01*
X178943000Y-80137000D01*
X177743750Y-80137000D01*
X177585000Y-80295750D01*
X177581928Y-80860000D01*
X173933855Y-80860000D01*
X174064157Y-80641252D01*
X174161481Y-80366891D01*
X174040814Y-80137000D01*
X172847000Y-80137000D01*
X172593000Y-80137000D01*
X170307000Y-80137000D01*
X170053000Y-80137000D01*
X170033000Y-80137000D01*
X170033000Y-79883000D01*
X170053000Y-79883000D01*
X170053000Y-78689845D01*
X170307000Y-78689845D01*
X170307000Y-79883000D01*
X172593000Y-79883000D01*
X172593000Y-78689845D01*
X172847000Y-78689845D01*
X172847000Y-79883000D01*
X174040814Y-79883000D01*
X174161481Y-79653109D01*
X174064157Y-79378748D01*
X173933856Y-79160000D01*
X177581928Y-79160000D01*
X177585000Y-79724250D01*
X177743750Y-79883000D01*
X178943000Y-79883000D01*
X178943000Y-78683750D01*
X179197000Y-78683750D01*
X179197000Y-79883000D01*
X179217000Y-79883000D01*
X179217000Y-80137000D01*
X179197000Y-80137000D01*
X179197000Y-81336250D01*
X179355750Y-81495000D01*
X179920000Y-81498072D01*
X180044482Y-81485812D01*
X180164180Y-81449502D01*
X180274494Y-81390537D01*
X180371185Y-81311185D01*
X180450537Y-81214494D01*
X180509502Y-81104180D01*
X180531513Y-81031620D01*
X180663368Y-81163475D01*
X180906589Y-81325990D01*
X181176842Y-81437932D01*
X181463740Y-81495000D01*
X181756260Y-81495000D01*
X182043158Y-81437932D01*
X182313411Y-81325990D01*
X182556632Y-81163475D01*
X182763475Y-80956632D01*
X182880000Y-80782240D01*
X182996525Y-80956632D01*
X183203368Y-81163475D01*
X183446589Y-81325990D01*
X183716842Y-81437932D01*
X184003740Y-81495000D01*
X184296260Y-81495000D01*
X184583158Y-81437932D01*
X184853411Y-81325990D01*
X185096632Y-81163475D01*
X185303475Y-80956632D01*
X185368042Y-80860000D01*
X191551928Y-80860000D01*
X191564188Y-80984482D01*
X191600498Y-81104180D01*
X191659463Y-81214494D01*
X191738815Y-81311185D01*
X191835506Y-81390537D01*
X191945820Y-81449502D01*
X192065518Y-81485812D01*
X192190000Y-81498072D01*
X192754250Y-81495000D01*
X192913000Y-81336250D01*
X192913000Y-80137000D01*
X191713750Y-80137000D01*
X191555000Y-80295750D01*
X191551928Y-80860000D01*
X185368042Y-80860000D01*
X185465990Y-80713411D01*
X185577932Y-80443158D01*
X185635000Y-80156260D01*
X185635000Y-79863740D01*
X185577932Y-79576842D01*
X185465990Y-79306589D01*
X185368043Y-79160000D01*
X191551928Y-79160000D01*
X191555000Y-79724250D01*
X191713750Y-79883000D01*
X192913000Y-79883000D01*
X192913000Y-78683750D01*
X193167000Y-78683750D01*
X193167000Y-79883000D01*
X193187000Y-79883000D01*
X193187000Y-80137000D01*
X193167000Y-80137000D01*
X193167000Y-81336250D01*
X193325750Y-81495000D01*
X193890000Y-81498072D01*
X194014482Y-81485812D01*
X194134180Y-81449502D01*
X194244494Y-81390537D01*
X194341185Y-81311185D01*
X194420537Y-81214494D01*
X194479502Y-81104180D01*
X194501513Y-81031620D01*
X194633368Y-81163475D01*
X194876589Y-81325990D01*
X195146842Y-81437932D01*
X195433740Y-81495000D01*
X195726260Y-81495000D01*
X196013158Y-81437932D01*
X196283411Y-81325990D01*
X196526632Y-81163475D01*
X196733475Y-80956632D01*
X196850000Y-80782240D01*
X196966525Y-80956632D01*
X197173368Y-81163475D01*
X197416589Y-81325990D01*
X197686842Y-81437932D01*
X197973740Y-81495000D01*
X198266260Y-81495000D01*
X198553158Y-81437932D01*
X198823411Y-81325990D01*
X199066632Y-81163475D01*
X199273475Y-80956632D01*
X199435990Y-80713411D01*
X199535108Y-80474117D01*
X203370000Y-80474117D01*
X203370000Y-80815883D01*
X203436675Y-81151081D01*
X203567463Y-81466831D01*
X203757337Y-81750998D01*
X203999002Y-81992663D01*
X204283169Y-82182537D01*
X204598919Y-82313325D01*
X204934117Y-82380000D01*
X205275883Y-82380000D01*
X205611081Y-82313325D01*
X205926831Y-82182537D01*
X206210998Y-81992663D01*
X206452663Y-81750998D01*
X206642537Y-81466831D01*
X206773325Y-81151081D01*
X206840000Y-80815883D01*
X206840000Y-80474117D01*
X206773325Y-80138919D01*
X206642537Y-79823169D01*
X206452663Y-79539002D01*
X206210998Y-79297337D01*
X205926831Y-79107463D01*
X205611081Y-78976675D01*
X205275883Y-78910000D01*
X204934117Y-78910000D01*
X204598919Y-78976675D01*
X204283169Y-79107463D01*
X203999002Y-79297337D01*
X203757337Y-79539002D01*
X203567463Y-79823169D01*
X203436675Y-80138919D01*
X203370000Y-80474117D01*
X199535108Y-80474117D01*
X199547932Y-80443158D01*
X199605000Y-80156260D01*
X199605000Y-79863740D01*
X199547932Y-79576842D01*
X199435990Y-79306589D01*
X199273475Y-79063368D01*
X199066632Y-78856525D01*
X198823411Y-78694010D01*
X198553158Y-78582068D01*
X198266260Y-78525000D01*
X197973740Y-78525000D01*
X197686842Y-78582068D01*
X197416589Y-78694010D01*
X197173368Y-78856525D01*
X196966525Y-79063368D01*
X196850000Y-79237760D01*
X196733475Y-79063368D01*
X196526632Y-78856525D01*
X196283411Y-78694010D01*
X196013158Y-78582068D01*
X195726260Y-78525000D01*
X195433740Y-78525000D01*
X195146842Y-78582068D01*
X194876589Y-78694010D01*
X194633368Y-78856525D01*
X194501513Y-78988380D01*
X194479502Y-78915820D01*
X194420537Y-78805506D01*
X194341185Y-78708815D01*
X194244494Y-78629463D01*
X194134180Y-78570498D01*
X194014482Y-78534188D01*
X193890000Y-78521928D01*
X193325750Y-78525000D01*
X193167000Y-78683750D01*
X192913000Y-78683750D01*
X192754250Y-78525000D01*
X192190000Y-78521928D01*
X192065518Y-78534188D01*
X191945820Y-78570498D01*
X191835506Y-78629463D01*
X191738815Y-78708815D01*
X191659463Y-78805506D01*
X191600498Y-78915820D01*
X191564188Y-79035518D01*
X191551928Y-79160000D01*
X185368043Y-79160000D01*
X185303475Y-79063368D01*
X185096632Y-78856525D01*
X184853411Y-78694010D01*
X184583158Y-78582068D01*
X184296260Y-78525000D01*
X184003740Y-78525000D01*
X183716842Y-78582068D01*
X183446589Y-78694010D01*
X183203368Y-78856525D01*
X182996525Y-79063368D01*
X182880000Y-79237760D01*
X182763475Y-79063368D01*
X182556632Y-78856525D01*
X182313411Y-78694010D01*
X182043158Y-78582068D01*
X181756260Y-78525000D01*
X181463740Y-78525000D01*
X181176842Y-78582068D01*
X180906589Y-78694010D01*
X180663368Y-78856525D01*
X180531513Y-78988380D01*
X180509502Y-78915820D01*
X180450537Y-78805506D01*
X180371185Y-78708815D01*
X180274494Y-78629463D01*
X180164180Y-78570498D01*
X180044482Y-78534188D01*
X179920000Y-78521928D01*
X179355750Y-78525000D01*
X179197000Y-78683750D01*
X178943000Y-78683750D01*
X178784250Y-78525000D01*
X178220000Y-78521928D01*
X178095518Y-78534188D01*
X177975820Y-78570498D01*
X177865506Y-78629463D01*
X177768815Y-78708815D01*
X177689463Y-78805506D01*
X177630498Y-78915820D01*
X177594188Y-79035518D01*
X177581928Y-79160000D01*
X173933856Y-79160000D01*
X173915178Y-79128645D01*
X173720269Y-78912412D01*
X173486920Y-78738359D01*
X173224099Y-78613175D01*
X173076890Y-78568524D01*
X172847000Y-78689845D01*
X172593000Y-78689845D01*
X172363110Y-78568524D01*
X172215901Y-78613175D01*
X171953080Y-78738359D01*
X171719731Y-78912412D01*
X171524822Y-79128645D01*
X171450000Y-79254255D01*
X171375178Y-79128645D01*
X171180269Y-78912412D01*
X170946920Y-78738359D01*
X170684099Y-78613175D01*
X170536890Y-78568524D01*
X170307000Y-78689845D01*
X170053000Y-78689845D01*
X169823110Y-78568524D01*
X169675901Y-78613175D01*
X169413080Y-78738359D01*
X169179731Y-78912412D01*
X168984822Y-79128645D01*
X168915195Y-79245534D01*
X168793475Y-79063368D01*
X168586632Y-78856525D01*
X168343411Y-78694010D01*
X168073158Y-78582068D01*
X167786260Y-78525000D01*
X167493740Y-78525000D01*
X167206842Y-78582068D01*
X166936589Y-78694010D01*
X166693368Y-78856525D01*
X166486525Y-79063368D01*
X166370000Y-79237760D01*
X166253475Y-79063368D01*
X166046632Y-78856525D01*
X165803411Y-78694010D01*
X165533158Y-78582068D01*
X165246260Y-78525000D01*
X164953740Y-78525000D01*
X164666842Y-78582068D01*
X164396589Y-78694010D01*
X164153368Y-78856525D01*
X164021513Y-78988380D01*
X163999502Y-78915820D01*
X163940537Y-78805506D01*
X163861185Y-78708815D01*
X163764494Y-78629463D01*
X163654180Y-78570498D01*
X163534482Y-78534188D01*
X163410000Y-78521928D01*
X161710000Y-78521928D01*
X161585518Y-78534188D01*
X161465820Y-78570498D01*
X161355506Y-78629463D01*
X161258815Y-78708815D01*
X161179463Y-78805506D01*
X161120498Y-78915820D01*
X161084188Y-79035518D01*
X161071928Y-79160000D01*
X161071928Y-80423271D01*
X161020198Y-80475001D01*
X156354742Y-80475001D01*
X156367932Y-80443158D01*
X156425000Y-80156260D01*
X156425000Y-79863740D01*
X156367932Y-79576842D01*
X156255990Y-79306589D01*
X156093475Y-79063368D01*
X155886632Y-78856525D01*
X155712240Y-78740000D01*
X155886632Y-78623475D01*
X156093475Y-78416632D01*
X156255990Y-78173411D01*
X156367932Y-77903158D01*
X156425000Y-77616260D01*
X156425000Y-77323740D01*
X156367932Y-77036842D01*
X156255990Y-76766589D01*
X156093475Y-76523368D01*
X155886632Y-76316525D01*
X155643411Y-76154010D01*
X155373158Y-76042068D01*
X155086260Y-75985000D01*
X154793740Y-75985000D01*
X154506842Y-76042068D01*
X154236589Y-76154010D01*
X153993368Y-76316525D01*
X153786525Y-76523368D01*
X153670000Y-76697760D01*
X153553475Y-76523368D01*
X153346632Y-76316525D01*
X153103411Y-76154010D01*
X152833158Y-76042068D01*
X152546260Y-75985000D01*
X152253740Y-75985000D01*
X151966842Y-76042068D01*
X151696589Y-76154010D01*
X151453368Y-76316525D01*
X151246525Y-76523368D01*
X151130000Y-76697760D01*
X151013475Y-76523368D01*
X150806632Y-76316525D01*
X150563411Y-76154010D01*
X150293158Y-76042068D01*
X150006260Y-75985000D01*
X149713740Y-75985000D01*
X149426842Y-76042068D01*
X149156589Y-76154010D01*
X148913368Y-76316525D01*
X148706525Y-76523368D01*
X148544010Y-76766589D01*
X148432068Y-77036842D01*
X148375000Y-77323740D01*
X148375000Y-77616260D01*
X148432068Y-77903158D01*
X148544010Y-78173411D01*
X148706525Y-78416632D01*
X148838380Y-78548487D01*
X148765820Y-78570498D01*
X148655506Y-78629463D01*
X148558815Y-78708815D01*
X148479463Y-78805506D01*
X148420498Y-78915820D01*
X148384188Y-79035518D01*
X148371928Y-79160000D01*
X148371928Y-80475001D01*
X141103131Y-80475001D01*
X141141481Y-80366891D01*
X141020814Y-80137000D01*
X139827000Y-80137000D01*
X139827000Y-80157000D01*
X139573000Y-80157000D01*
X139573000Y-80137000D01*
X139553000Y-80137000D01*
X139553000Y-79883000D01*
X139573000Y-79883000D01*
X139573000Y-78689845D01*
X139827000Y-78689845D01*
X139827000Y-79883000D01*
X141020814Y-79883000D01*
X141141481Y-79653109D01*
X141044157Y-79378748D01*
X140895178Y-79128645D01*
X140700269Y-78912412D01*
X140466920Y-78738359D01*
X140204099Y-78613175D01*
X140056890Y-78568524D01*
X139827000Y-78689845D01*
X139573000Y-78689845D01*
X139343110Y-78568524D01*
X139195901Y-78613175D01*
X138933080Y-78738359D01*
X138699731Y-78912412D01*
X138504822Y-79128645D01*
X138435195Y-79245534D01*
X138313475Y-79063368D01*
X138106632Y-78856525D01*
X137920000Y-78731822D01*
X137920000Y-78674239D01*
X151228130Y-65366110D01*
X151361484Y-65565688D01*
X151547712Y-65751916D01*
X151766693Y-65898234D01*
X151972302Y-65983400D01*
X151766693Y-66068566D01*
X151547712Y-66214884D01*
X151361484Y-66401112D01*
X151215166Y-66620093D01*
X151114380Y-66863412D01*
X151063000Y-67121717D01*
X151063000Y-67385083D01*
X151114380Y-67643388D01*
X151215166Y-67886707D01*
X151361484Y-68105688D01*
X151547712Y-68291916D01*
X151766693Y-68438234D01*
X152010012Y-68539020D01*
X152268317Y-68590400D01*
X152531683Y-68590400D01*
X152789988Y-68539020D01*
X153033307Y-68438234D01*
X153252288Y-68291916D01*
X153368106Y-68176098D01*
X166896907Y-68176098D01*
X166956610Y-68410071D01*
X167195397Y-68521169D01*
X167451269Y-68583547D01*
X167714395Y-68594808D01*
X167974661Y-68554520D01*
X168222067Y-68464231D01*
X168323390Y-68410071D01*
X168364470Y-68249080D01*
X173835525Y-68249080D01*
X173919208Y-68503261D01*
X174191775Y-68634158D01*
X174484642Y-68709365D01*
X174786553Y-68725991D01*
X175085907Y-68683397D01*
X175371199Y-68583222D01*
X175520792Y-68503261D01*
X175604475Y-68249080D01*
X174720000Y-67364605D01*
X173835525Y-68249080D01*
X168364470Y-68249080D01*
X168383093Y-68176098D01*
X167640000Y-67433005D01*
X166896907Y-68176098D01*
X153368106Y-68176098D01*
X153438516Y-68105688D01*
X153584834Y-67886707D01*
X153685620Y-67643388D01*
X153737000Y-67385083D01*
X153737000Y-67327795D01*
X166298592Y-67327795D01*
X166338880Y-67588061D01*
X166429169Y-67835467D01*
X166483329Y-67936790D01*
X166717302Y-67996493D01*
X167460395Y-67253400D01*
X167819605Y-67253400D01*
X168562698Y-67996493D01*
X168796671Y-67936790D01*
X168907769Y-67698003D01*
X168970147Y-67442131D01*
X168978303Y-67251553D01*
X173179009Y-67251553D01*
X173221603Y-67550907D01*
X173321778Y-67836199D01*
X173401739Y-67985792D01*
X173655920Y-68069475D01*
X174540395Y-67185000D01*
X174899605Y-67185000D01*
X175784080Y-68069475D01*
X175965049Y-68009895D01*
X176067688Y-68163505D01*
X176281495Y-68377312D01*
X176532905Y-68545299D01*
X176812257Y-68661011D01*
X177108816Y-68720000D01*
X177411184Y-68720000D01*
X177707743Y-68661011D01*
X177987095Y-68545299D01*
X178238505Y-68377312D01*
X178452312Y-68163505D01*
X178530000Y-68047237D01*
X178607688Y-68163505D01*
X178821495Y-68377312D01*
X179072905Y-68545299D01*
X179352257Y-68661011D01*
X179648816Y-68720000D01*
X179951184Y-68720000D01*
X180247743Y-68661011D01*
X180527095Y-68545299D01*
X180778505Y-68377312D01*
X180992312Y-68163505D01*
X181070000Y-68047237D01*
X181147688Y-68163505D01*
X181361495Y-68377312D01*
X181612905Y-68545299D01*
X181892257Y-68661011D01*
X182188816Y-68720000D01*
X182491184Y-68720000D01*
X182787743Y-68661011D01*
X183067095Y-68545299D01*
X183318505Y-68377312D01*
X183532312Y-68163505D01*
X183700299Y-67912095D01*
X183816011Y-67632743D01*
X183875000Y-67336184D01*
X183875000Y-67033816D01*
X183816011Y-66737257D01*
X183700299Y-66457905D01*
X183532312Y-66206495D01*
X183318505Y-65992688D01*
X183067095Y-65824701D01*
X182787743Y-65708989D01*
X182491184Y-65650000D01*
X182188816Y-65650000D01*
X181892257Y-65708989D01*
X181612905Y-65824701D01*
X181361495Y-65992688D01*
X181147688Y-66206495D01*
X181070000Y-66322763D01*
X180992312Y-66206495D01*
X180778505Y-65992688D01*
X180527095Y-65824701D01*
X180247743Y-65708989D01*
X179951184Y-65650000D01*
X179648816Y-65650000D01*
X179352257Y-65708989D01*
X179072905Y-65824701D01*
X178821495Y-65992688D01*
X178607688Y-66206495D01*
X178530000Y-66322763D01*
X178452312Y-66206495D01*
X178238505Y-65992688D01*
X177987095Y-65824701D01*
X177707743Y-65708989D01*
X177411184Y-65650000D01*
X177108816Y-65650000D01*
X176812257Y-65708989D01*
X176532905Y-65824701D01*
X176281495Y-65992688D01*
X176067688Y-66206495D01*
X175965049Y-66360105D01*
X175784080Y-66300525D01*
X174899605Y-67185000D01*
X174540395Y-67185000D01*
X173655920Y-66300525D01*
X173401739Y-66384208D01*
X173270842Y-66656775D01*
X173195635Y-66949642D01*
X173179009Y-67251553D01*
X168978303Y-67251553D01*
X168981408Y-67179005D01*
X168941120Y-66918739D01*
X168850831Y-66671333D01*
X168796671Y-66570010D01*
X168562698Y-66510307D01*
X167819605Y-67253400D01*
X167460395Y-67253400D01*
X166717302Y-66510307D01*
X166483329Y-66570010D01*
X166372231Y-66808797D01*
X166309853Y-67064669D01*
X166298592Y-67327795D01*
X153737000Y-67327795D01*
X153737000Y-67121717D01*
X153685620Y-66863412D01*
X153584834Y-66620093D01*
X153438516Y-66401112D01*
X153252288Y-66214884D01*
X153033307Y-66068566D01*
X152827698Y-65983400D01*
X153033307Y-65898234D01*
X153252288Y-65751916D01*
X153438516Y-65565688D01*
X153584834Y-65346707D01*
X153670000Y-65141098D01*
X153755166Y-65346707D01*
X153901484Y-65565688D01*
X154087712Y-65751916D01*
X154306693Y-65898234D01*
X154550012Y-65999020D01*
X154808317Y-66050400D01*
X155071683Y-66050400D01*
X155329988Y-65999020D01*
X155573307Y-65898234D01*
X155635554Y-65856642D01*
X157463000Y-65856642D01*
X157463000Y-66110158D01*
X157512459Y-66358804D01*
X157609476Y-66593023D01*
X157750322Y-66803815D01*
X157929585Y-66983078D01*
X158140377Y-67123924D01*
X158374596Y-67220941D01*
X158623242Y-67270400D01*
X158876758Y-67270400D01*
X159125404Y-67220941D01*
X159359623Y-67123924D01*
X159570415Y-66983078D01*
X159749678Y-66803815D01*
X159890524Y-66593023D01*
X159987541Y-66358804D01*
X160020000Y-66195622D01*
X160052459Y-66358804D01*
X160149476Y-66593023D01*
X160290322Y-66803815D01*
X160469585Y-66983078D01*
X160680377Y-67123924D01*
X160914596Y-67220941D01*
X161163242Y-67270400D01*
X161416758Y-67270400D01*
X161665404Y-67220941D01*
X161899623Y-67123924D01*
X162110415Y-66983078D01*
X162289678Y-66803815D01*
X162430524Y-66593023D01*
X162527541Y-66358804D01*
X162577000Y-66110158D01*
X162577000Y-65856642D01*
X162527541Y-65607996D01*
X162430524Y-65373777D01*
X162289678Y-65162985D01*
X162110415Y-64983722D01*
X161899623Y-64842876D01*
X161665404Y-64745859D01*
X161416758Y-64696400D01*
X161163242Y-64696400D01*
X160914596Y-64745859D01*
X160680377Y-64842876D01*
X160469585Y-64983722D01*
X160290322Y-65162985D01*
X160149476Y-65373777D01*
X160052459Y-65607996D01*
X160020000Y-65771178D01*
X159987541Y-65607996D01*
X159890524Y-65373777D01*
X159749678Y-65162985D01*
X159570415Y-64983722D01*
X159359623Y-64842876D01*
X159125404Y-64745859D01*
X158876758Y-64696400D01*
X158623242Y-64696400D01*
X158374596Y-64745859D01*
X158140377Y-64842876D01*
X157929585Y-64983722D01*
X157750322Y-65162985D01*
X157609476Y-65373777D01*
X157512459Y-65607996D01*
X157463000Y-65856642D01*
X155635554Y-65856642D01*
X155792288Y-65751916D01*
X155978516Y-65565688D01*
X156124834Y-65346707D01*
X156225620Y-65103388D01*
X156277000Y-64845083D01*
X156277000Y-64581717D01*
X156225620Y-64323412D01*
X156124834Y-64080093D01*
X155978516Y-63861112D01*
X155792288Y-63674884D01*
X155573307Y-63528566D01*
X155329988Y-63427780D01*
X155071683Y-63376400D01*
X154808317Y-63376400D01*
X154550012Y-63427780D01*
X154306693Y-63528566D01*
X154087712Y-63674884D01*
X153901484Y-63861112D01*
X153755166Y-64080093D01*
X153670000Y-64285702D01*
X153584834Y-64080093D01*
X153438516Y-63861112D01*
X153252288Y-63674884D01*
X153033307Y-63528566D01*
X152827698Y-63443400D01*
X153033307Y-63358234D01*
X153252288Y-63211916D01*
X153438516Y-63025688D01*
X153584834Y-62806707D01*
X153685620Y-62563388D01*
X153737000Y-62305083D01*
X153737000Y-62041717D01*
X153685620Y-61783412D01*
X153584834Y-61540093D01*
X153438516Y-61321112D01*
X153252288Y-61134884D01*
X153033307Y-60988566D01*
X152827698Y-60903400D01*
X153033307Y-60818234D01*
X153252288Y-60671916D01*
X153438516Y-60485688D01*
X153584834Y-60266707D01*
X153685620Y-60023388D01*
X153737000Y-59765083D01*
X153737000Y-59501717D01*
X153685620Y-59243412D01*
X153584834Y-59000093D01*
X153438516Y-58781112D01*
X153252288Y-58594884D01*
X153033307Y-58448566D01*
X152827698Y-58363400D01*
X153033307Y-58278234D01*
X153252288Y-58131916D01*
X153438516Y-57945688D01*
X153584834Y-57726707D01*
X153685620Y-57483388D01*
X153737000Y-57225083D01*
X153737000Y-56961717D01*
X153685620Y-56703412D01*
X153584834Y-56460093D01*
X153438516Y-56241112D01*
X153252288Y-56054884D01*
X153033307Y-55908566D01*
X152827698Y-55823400D01*
X153033307Y-55738234D01*
X153252288Y-55591916D01*
X153438516Y-55405688D01*
X153584834Y-55186707D01*
X153685620Y-54943388D01*
X153737000Y-54685083D01*
X153737000Y-54421717D01*
X153685620Y-54163412D01*
X153584834Y-53920093D01*
X153438516Y-53701112D01*
X153252288Y-53514884D01*
X153033307Y-53368566D01*
X152827698Y-53283400D01*
X153033307Y-53198234D01*
X153252288Y-53051916D01*
X153438516Y-52865688D01*
X153584834Y-52646707D01*
X153685620Y-52403388D01*
X153737000Y-52145083D01*
X153737000Y-51881717D01*
X153685620Y-51623412D01*
X153584834Y-51380093D01*
X153438516Y-51161112D01*
X153252288Y-50974884D01*
X153033307Y-50828566D01*
X152827698Y-50743400D01*
X153033307Y-50658234D01*
X153252288Y-50511916D01*
X153438516Y-50325688D01*
X153584834Y-50106707D01*
X153685620Y-49863388D01*
X153737000Y-49605083D01*
X153737000Y-49341717D01*
X153685620Y-49083412D01*
X153584834Y-48840093D01*
X153438516Y-48621112D01*
X153252288Y-48434884D01*
X153033307Y-48288566D01*
X152827698Y-48203400D01*
X153033307Y-48118234D01*
X153252288Y-47971916D01*
X153438516Y-47785688D01*
X153584834Y-47566707D01*
X153685620Y-47323388D01*
X153737000Y-47065083D01*
X153737000Y-46801717D01*
X153685620Y-46543412D01*
X153584834Y-46300093D01*
X153538267Y-46230401D01*
X166501733Y-46230401D01*
X166455166Y-46300093D01*
X166354380Y-46543412D01*
X166303000Y-46801717D01*
X166303000Y-47065083D01*
X166354380Y-47323388D01*
X166455166Y-47566707D01*
X166601484Y-47785688D01*
X166787712Y-47971916D01*
X167006693Y-48118234D01*
X167212302Y-48203400D01*
X167006693Y-48288566D01*
X166787712Y-48434884D01*
X166601484Y-48621112D01*
X166455166Y-48840093D01*
X166354380Y-49083412D01*
X166303000Y-49341717D01*
X166303000Y-49605083D01*
X166354380Y-49863388D01*
X166455166Y-50106707D01*
X166601484Y-50325688D01*
X166787712Y-50511916D01*
X167006693Y-50658234D01*
X167212302Y-50743400D01*
X167006693Y-50828566D01*
X166787712Y-50974884D01*
X166601484Y-51161112D01*
X166455166Y-51380093D01*
X166354380Y-51623412D01*
X166303000Y-51881717D01*
X166303000Y-52145083D01*
X166354380Y-52403388D01*
X166455166Y-52646707D01*
X166601484Y-52865688D01*
X166787712Y-53051916D01*
X167006693Y-53198234D01*
X167212302Y-53283400D01*
X167006693Y-53368566D01*
X166787712Y-53514884D01*
X166601484Y-53701112D01*
X166455166Y-53920093D01*
X166354380Y-54163412D01*
X166303000Y-54421717D01*
X166303000Y-54685083D01*
X166354380Y-54943388D01*
X166455166Y-55186707D01*
X166601484Y-55405688D01*
X166787712Y-55591916D01*
X167006693Y-55738234D01*
X167212302Y-55823400D01*
X167006693Y-55908566D01*
X166787712Y-56054884D01*
X166601484Y-56241112D01*
X166455166Y-56460093D01*
X166354380Y-56703412D01*
X166303000Y-56961717D01*
X166303000Y-57225083D01*
X166354380Y-57483388D01*
X166455166Y-57726707D01*
X166601484Y-57945688D01*
X166787712Y-58131916D01*
X167006693Y-58278234D01*
X167212302Y-58363400D01*
X167006693Y-58448566D01*
X166787712Y-58594884D01*
X166601484Y-58781112D01*
X166455166Y-59000093D01*
X166354380Y-59243412D01*
X166303000Y-59501717D01*
X166303000Y-59765083D01*
X166354380Y-60023388D01*
X166455166Y-60266707D01*
X166601484Y-60485688D01*
X166787712Y-60671916D01*
X167006693Y-60818234D01*
X167212302Y-60903400D01*
X167006693Y-60988566D01*
X166787712Y-61134884D01*
X166601484Y-61321112D01*
X166455166Y-61540093D01*
X166354380Y-61783412D01*
X166303000Y-62041717D01*
X166303000Y-62305083D01*
X166354380Y-62563388D01*
X166455166Y-62806707D01*
X166601484Y-63025688D01*
X166787712Y-63211916D01*
X167006693Y-63358234D01*
X167212302Y-63443400D01*
X167006693Y-63528566D01*
X166787712Y-63674884D01*
X166601484Y-63861112D01*
X166455166Y-64080093D01*
X166354380Y-64323412D01*
X166303000Y-64581717D01*
X166303000Y-64845083D01*
X166354380Y-65103388D01*
X166455166Y-65346707D01*
X166601484Y-65565688D01*
X166787712Y-65751916D01*
X167006693Y-65898234D01*
X167215938Y-65984906D01*
X167057933Y-66042569D01*
X166956610Y-66096729D01*
X166896907Y-66330702D01*
X167640000Y-67073795D01*
X168383093Y-66330702D01*
X168329563Y-66120920D01*
X173835525Y-66120920D01*
X174720000Y-67005395D01*
X175604475Y-66120920D01*
X175520792Y-65866739D01*
X175248225Y-65735842D01*
X174955358Y-65660635D01*
X174653447Y-65644009D01*
X174354093Y-65686603D01*
X174068801Y-65786778D01*
X173919208Y-65866739D01*
X173835525Y-66120920D01*
X168329563Y-66120920D01*
X168323390Y-66096729D01*
X168084603Y-65985631D01*
X168070571Y-65982210D01*
X168273307Y-65898234D01*
X168492288Y-65751916D01*
X168678516Y-65565688D01*
X168824834Y-65346707D01*
X168925620Y-65103388D01*
X168977000Y-64845083D01*
X168977000Y-64581717D01*
X168925620Y-64323412D01*
X168824834Y-64080093D01*
X168678516Y-63861112D01*
X168492288Y-63674884D01*
X168273307Y-63528566D01*
X168067698Y-63443400D01*
X168273307Y-63358234D01*
X168492288Y-63211916D01*
X168678516Y-63025688D01*
X168824834Y-62806707D01*
X168925620Y-62563388D01*
X168977000Y-62305083D01*
X168977000Y-62041717D01*
X168925620Y-61783412D01*
X168824834Y-61540093D01*
X168678516Y-61321112D01*
X168492288Y-61134884D01*
X168273307Y-60988566D01*
X168067698Y-60903400D01*
X168273307Y-60818234D01*
X168492288Y-60671916D01*
X168678516Y-60485688D01*
X168824834Y-60266707D01*
X168925620Y-60023388D01*
X168977000Y-59765083D01*
X168977000Y-59501717D01*
X168925620Y-59243412D01*
X168824834Y-59000093D01*
X168678516Y-58781112D01*
X168492288Y-58594884D01*
X168273307Y-58448566D01*
X168067698Y-58363400D01*
X168273307Y-58278234D01*
X168492288Y-58131916D01*
X168678516Y-57945688D01*
X168824834Y-57726707D01*
X168925620Y-57483388D01*
X168977000Y-57225083D01*
X168977000Y-56961717D01*
X168925620Y-56703412D01*
X168824834Y-56460093D01*
X168678516Y-56241112D01*
X168492288Y-56054884D01*
X168273307Y-55908566D01*
X168067698Y-55823400D01*
X168273307Y-55738234D01*
X168492288Y-55591916D01*
X168678516Y-55405688D01*
X168824834Y-55186707D01*
X168925620Y-54943388D01*
X168977000Y-54685083D01*
X168977000Y-54421717D01*
X168925620Y-54163412D01*
X168824834Y-53920093D01*
X168678516Y-53701112D01*
X168492288Y-53514884D01*
X168273307Y-53368566D01*
X168067698Y-53283400D01*
X168273307Y-53198234D01*
X168492288Y-53051916D01*
X168678516Y-52865688D01*
X168824834Y-52646707D01*
X168925620Y-52403388D01*
X168977000Y-52145083D01*
X168977000Y-51881717D01*
X168925620Y-51623412D01*
X168824834Y-51380093D01*
X168678516Y-51161112D01*
X168492288Y-50974884D01*
X168273307Y-50828566D01*
X168067698Y-50743400D01*
X168273307Y-50658234D01*
X168492288Y-50511916D01*
X168678516Y-50325688D01*
X168824834Y-50106707D01*
X168925620Y-49863388D01*
X168977000Y-49605083D01*
X168977000Y-49341717D01*
X168925620Y-49083412D01*
X168824834Y-48840093D01*
X168678516Y-48621112D01*
X168492288Y-48434884D01*
X168273307Y-48288566D01*
X168067698Y-48203400D01*
X168273307Y-48118234D01*
X168492288Y-47971916D01*
X168678516Y-47785688D01*
X168824834Y-47566707D01*
X168925620Y-47323388D01*
X168977000Y-47065083D01*
X168977000Y-46801717D01*
X168962734Y-46729999D01*
X187149436Y-46729999D01*
X187095000Y-47003665D01*
X187095000Y-47286335D01*
X187150147Y-47563574D01*
X187258320Y-47824727D01*
X187415363Y-48059759D01*
X187615241Y-48259637D01*
X187847759Y-48415000D01*
X187615241Y-48570363D01*
X187415363Y-48770241D01*
X187258320Y-49005273D01*
X187150147Y-49266426D01*
X187095000Y-49543665D01*
X187095000Y-49826335D01*
X187150147Y-50103574D01*
X187258320Y-50364727D01*
X187415363Y-50599759D01*
X187615241Y-50799637D01*
X187847759Y-50955000D01*
X187615241Y-51110363D01*
X187415363Y-51310241D01*
X187258320Y-51545273D01*
X187150147Y-51806426D01*
X187095000Y-52083665D01*
X187095000Y-52366335D01*
X187150147Y-52643574D01*
X187258320Y-52904727D01*
X187415363Y-53139759D01*
X187615241Y-53339637D01*
X187847759Y-53495000D01*
X187615241Y-53650363D01*
X187415363Y-53850241D01*
X187258320Y-54085273D01*
X187150147Y-54346426D01*
X187095000Y-54623665D01*
X187095000Y-54906335D01*
X187150147Y-55183574D01*
X187258320Y-55444727D01*
X187415363Y-55679759D01*
X187615241Y-55879637D01*
X187847759Y-56035000D01*
X187615241Y-56190363D01*
X187415363Y-56390241D01*
X187258320Y-56625273D01*
X187150147Y-56886426D01*
X187095000Y-57163665D01*
X187095000Y-57446335D01*
X187150147Y-57723574D01*
X187258320Y-57984727D01*
X187415363Y-58219759D01*
X187615241Y-58419637D01*
X187847759Y-58575000D01*
X187615241Y-58730363D01*
X187415363Y-58930241D01*
X187258320Y-59165273D01*
X187150147Y-59426426D01*
X187095000Y-59703665D01*
X187095000Y-59986335D01*
X187150147Y-60263574D01*
X187258320Y-60524727D01*
X187415363Y-60759759D01*
X187615241Y-60959637D01*
X187847759Y-61115000D01*
X187615241Y-61270363D01*
X187415363Y-61470241D01*
X187258320Y-61705273D01*
X187150147Y-61966426D01*
X187095000Y-62243665D01*
X187095000Y-62526335D01*
X187150147Y-62803574D01*
X187258320Y-63064727D01*
X187415363Y-63299759D01*
X187615241Y-63499637D01*
X187847759Y-63655000D01*
X187615241Y-63810363D01*
X187415363Y-64010241D01*
X187258320Y-64245273D01*
X187150147Y-64506426D01*
X187095000Y-64783665D01*
X187095000Y-65066335D01*
X187150147Y-65343574D01*
X187258320Y-65604727D01*
X187415363Y-65839759D01*
X187615241Y-66039637D01*
X187850273Y-66196680D01*
X188111426Y-66304853D01*
X188388665Y-66360000D01*
X188671335Y-66360000D01*
X188948574Y-66304853D01*
X189209727Y-66196680D01*
X189444759Y-66039637D01*
X189644637Y-65839759D01*
X189801680Y-65604727D01*
X189909853Y-65343574D01*
X189965000Y-65066335D01*
X189965000Y-64783665D01*
X189909853Y-64506426D01*
X189801680Y-64245273D01*
X189644637Y-64010241D01*
X189444759Y-63810363D01*
X189212241Y-63655000D01*
X189444759Y-63499637D01*
X189644637Y-63299759D01*
X189801680Y-63064727D01*
X189909853Y-62803574D01*
X189965000Y-62526335D01*
X189965000Y-62243665D01*
X189909853Y-61966426D01*
X189801680Y-61705273D01*
X189644637Y-61470241D01*
X189444759Y-61270363D01*
X189212241Y-61115000D01*
X189444759Y-60959637D01*
X189644637Y-60759759D01*
X189801680Y-60524727D01*
X189909853Y-60263574D01*
X189965000Y-59986335D01*
X189965000Y-59703665D01*
X189909853Y-59426426D01*
X189801680Y-59165273D01*
X189644637Y-58930241D01*
X189444759Y-58730363D01*
X189212241Y-58575000D01*
X189444759Y-58419637D01*
X189644637Y-58219759D01*
X189801680Y-57984727D01*
X189909853Y-57723574D01*
X189965000Y-57446335D01*
X189965000Y-57163665D01*
X189909853Y-56886426D01*
X189801680Y-56625273D01*
X189644637Y-56390241D01*
X189444759Y-56190363D01*
X189212241Y-56035000D01*
X189444759Y-55879637D01*
X189644637Y-55679759D01*
X189801680Y-55444727D01*
X189909853Y-55183574D01*
X189965000Y-54906335D01*
X189965000Y-54623665D01*
X189909853Y-54346426D01*
X189801680Y-54085273D01*
X189644637Y-53850241D01*
X189444759Y-53650363D01*
X189212241Y-53495000D01*
X189444759Y-53339637D01*
X189644637Y-53139759D01*
X189801680Y-52904727D01*
X189909853Y-52643574D01*
X189965000Y-52366335D01*
X189965000Y-52083665D01*
X189909853Y-51806426D01*
X189801680Y-51545273D01*
X189644637Y-51310241D01*
X189444759Y-51110363D01*
X189212241Y-50955000D01*
X189444759Y-50799637D01*
X189644637Y-50599759D01*
X189801680Y-50364727D01*
X189909853Y-50103574D01*
X189965000Y-49826335D01*
X189965000Y-49543665D01*
X189909853Y-49266426D01*
X189801680Y-49005273D01*
X189644637Y-48770241D01*
X189444759Y-48570363D01*
X189212241Y-48415000D01*
X189444759Y-48259637D01*
X189644637Y-48059759D01*
X189801680Y-47824727D01*
X189909853Y-47563574D01*
X189965000Y-47286335D01*
X189965000Y-47003665D01*
X189910564Y-46729999D01*
X202280198Y-46729999D01*
X202371312Y-46821114D01*
X202335000Y-47003665D01*
X202335000Y-47286335D01*
X202390147Y-47563574D01*
X202498320Y-47824727D01*
X202655363Y-48059759D01*
X202855241Y-48259637D01*
X203087759Y-48415000D01*
X202855241Y-48570363D01*
X202655363Y-48770241D01*
X202498320Y-49005273D01*
X202390147Y-49266426D01*
X202335000Y-49543665D01*
X202335000Y-49826335D01*
X202390147Y-50103574D01*
X202498320Y-50364727D01*
X202655363Y-50599759D01*
X202855241Y-50799637D01*
X203087759Y-50955000D01*
X202855241Y-51110363D01*
X202655363Y-51310241D01*
X202498320Y-51545273D01*
X202390147Y-51806426D01*
X202335000Y-52083665D01*
X202335000Y-52366335D01*
X202390147Y-52643574D01*
X202498320Y-52904727D01*
X202655363Y-53139759D01*
X202855241Y-53339637D01*
X203087759Y-53495000D01*
X202855241Y-53650363D01*
X202655363Y-53850241D01*
X202498320Y-54085273D01*
X202390147Y-54346426D01*
X202335000Y-54623665D01*
X202335000Y-54906335D01*
X202390147Y-55183574D01*
X202498320Y-55444727D01*
X202655363Y-55679759D01*
X202855241Y-55879637D01*
X203087759Y-56035000D01*
X202855241Y-56190363D01*
X202655363Y-56390241D01*
X202498320Y-56625273D01*
X202390147Y-56886426D01*
X202335000Y-57163665D01*
X202335000Y-57446335D01*
X202390147Y-57723574D01*
X202498320Y-57984727D01*
X202655363Y-58219759D01*
X202855241Y-58419637D01*
X203087759Y-58575000D01*
X202855241Y-58730363D01*
X202655363Y-58930241D01*
X202498320Y-59165273D01*
X202390147Y-59426426D01*
X202335000Y-59703665D01*
X202335000Y-59986335D01*
X202390147Y-60263574D01*
X202498320Y-60524727D01*
X202655363Y-60759759D01*
X202855241Y-60959637D01*
X203087759Y-61115000D01*
X202855241Y-61270363D01*
X202655363Y-61470241D01*
X202498320Y-61705273D01*
X202390147Y-61966426D01*
X202335000Y-62243665D01*
X202335000Y-62526335D01*
X202390147Y-62803574D01*
X202498320Y-63064727D01*
X202655363Y-63299759D01*
X202855241Y-63499637D01*
X203087759Y-63655000D01*
X202855241Y-63810363D01*
X202655363Y-64010241D01*
X202498320Y-64245273D01*
X202390147Y-64506426D01*
X202335000Y-64783665D01*
X202335000Y-65066335D01*
X202390147Y-65343574D01*
X202498320Y-65604727D01*
X202655363Y-65839759D01*
X202855241Y-66039637D01*
X203090273Y-66196680D01*
X203351426Y-66304853D01*
X203628665Y-66360000D01*
X203911335Y-66360000D01*
X204188574Y-66304853D01*
X204449727Y-66196680D01*
X204684759Y-66039637D01*
X204884637Y-65839759D01*
X205041680Y-65604727D01*
X205149853Y-65343574D01*
X205205000Y-65066335D01*
X205205000Y-64783665D01*
X205149853Y-64506426D01*
X205041680Y-64245273D01*
X204884637Y-64010241D01*
X204684759Y-63810363D01*
X204452241Y-63655000D01*
X204684759Y-63499637D01*
X204884637Y-63299759D01*
X205041680Y-63064727D01*
X205149853Y-62803574D01*
X205205000Y-62526335D01*
X205205000Y-62243665D01*
X205149853Y-61966426D01*
X205041680Y-61705273D01*
X204884637Y-61470241D01*
X204684759Y-61270363D01*
X204452241Y-61115000D01*
X204684759Y-60959637D01*
X204884637Y-60759759D01*
X205041680Y-60524727D01*
X205149853Y-60263574D01*
X205205000Y-59986335D01*
X205205000Y-59703665D01*
X205149853Y-59426426D01*
X205041680Y-59165273D01*
X204884637Y-58930241D01*
X204684759Y-58730363D01*
X204452241Y-58575000D01*
X204684759Y-58419637D01*
X204884637Y-58219759D01*
X205041680Y-57984727D01*
X205149853Y-57723574D01*
X205205000Y-57446335D01*
X205205000Y-57163665D01*
X205149853Y-56886426D01*
X205041680Y-56625273D01*
X204884637Y-56390241D01*
X204684759Y-56190363D01*
X204452241Y-56035000D01*
X204684759Y-55879637D01*
X204884637Y-55679759D01*
X205041680Y-55444727D01*
X205149853Y-55183574D01*
X205205000Y-54906335D01*
X205205000Y-54623665D01*
X205149853Y-54346426D01*
X205041680Y-54085273D01*
X204884637Y-53850241D01*
X204684759Y-53650363D01*
X204452241Y-53495000D01*
X204684759Y-53339637D01*
X204884637Y-53139759D01*
X205041680Y-52904727D01*
X205149853Y-52643574D01*
X205205000Y-52366335D01*
X205205000Y-52083665D01*
X205149853Y-51806426D01*
X205041680Y-51545273D01*
X204884637Y-51310241D01*
X204684759Y-51110363D01*
X204452241Y-50955000D01*
X204684759Y-50799637D01*
X204884637Y-50599759D01*
X205041680Y-50364727D01*
X205149853Y-50103574D01*
X205205000Y-49826335D01*
X205205000Y-49543665D01*
X205149853Y-49266426D01*
X205041680Y-49005273D01*
X204884637Y-48770241D01*
X204684759Y-48570363D01*
X204452241Y-48415000D01*
X204684759Y-48259637D01*
X204884637Y-48059759D01*
X205041680Y-47824727D01*
X205149853Y-47563574D01*
X205205000Y-47286335D01*
X205205000Y-47003665D01*
X205149853Y-46726426D01*
X205041680Y-46465273D01*
X204884637Y-46230241D01*
X204684759Y-46030363D01*
X204452241Y-45875000D01*
X204684759Y-45719637D01*
X204884637Y-45519759D01*
X205041680Y-45284727D01*
X205149853Y-45023574D01*
X205205000Y-44746335D01*
X205205000Y-44463665D01*
X205149853Y-44186426D01*
X205041680Y-43925273D01*
X204884637Y-43690241D01*
X204684759Y-43490363D01*
X204452241Y-43335000D01*
X204684759Y-43179637D01*
X204884637Y-42979759D01*
X205041680Y-42744727D01*
X205149853Y-42483574D01*
X205205000Y-42206335D01*
X205205000Y-41923665D01*
X205149853Y-41646426D01*
X205041680Y-41385273D01*
X204884637Y-41150241D01*
X204684759Y-40950363D01*
X204452241Y-40795000D01*
X204684759Y-40639637D01*
X204884637Y-40439759D01*
X205041680Y-40204727D01*
X205149853Y-39943574D01*
X205205000Y-39666335D01*
X205205000Y-39383665D01*
X205149853Y-39106426D01*
X205041680Y-38845273D01*
X204884637Y-38610241D01*
X204684759Y-38410363D01*
X204452241Y-38255000D01*
X204684759Y-38099637D01*
X204884637Y-37899759D01*
X205041680Y-37664727D01*
X205149853Y-37403574D01*
X205205000Y-37126335D01*
X205205000Y-36843665D01*
X205149853Y-36566426D01*
X205041680Y-36305273D01*
X204884637Y-36070241D01*
X204684759Y-35870363D01*
X204452241Y-35715000D01*
X204684759Y-35559637D01*
X204884637Y-35359759D01*
X205041680Y-35124727D01*
X205149853Y-34863574D01*
X205205000Y-34586335D01*
X205205000Y-34303665D01*
X205149853Y-34026426D01*
X205041680Y-33765273D01*
X204884637Y-33530241D01*
X204684759Y-33330363D01*
X204449727Y-33173320D01*
X204439135Y-33168933D01*
X204625131Y-33057385D01*
X204833519Y-32868414D01*
X205001037Y-32642420D01*
X205121246Y-32388087D01*
X205161904Y-32254039D01*
X205039915Y-32032000D01*
X203897000Y-32032000D01*
X203897000Y-32052000D01*
X203643000Y-32052000D01*
X203643000Y-32032000D01*
X202500085Y-32032000D01*
X202378096Y-32254039D01*
X202418754Y-32388087D01*
X202538963Y-32642420D01*
X202706481Y-32868414D01*
X202914869Y-33057385D01*
X203100865Y-33168933D01*
X203090273Y-33173320D01*
X202855241Y-33330363D01*
X202655363Y-33530241D01*
X202498320Y-33765273D01*
X202390147Y-34026426D01*
X202335000Y-34303665D01*
X202335000Y-34586335D01*
X202390147Y-34863574D01*
X202498320Y-35124727D01*
X202655363Y-35359759D01*
X202855241Y-35559637D01*
X203087759Y-35715000D01*
X202855241Y-35870363D01*
X202655363Y-36070241D01*
X202498320Y-36305273D01*
X202390147Y-36566426D01*
X202335000Y-36843665D01*
X202335000Y-37126335D01*
X202390147Y-37403574D01*
X202498320Y-37664727D01*
X202655363Y-37899759D01*
X202855241Y-38099637D01*
X203087759Y-38255000D01*
X202855241Y-38410363D01*
X202655363Y-38610241D01*
X202498320Y-38845273D01*
X202390147Y-39106426D01*
X202335000Y-39383665D01*
X202335000Y-39666335D01*
X202390147Y-39943574D01*
X202498320Y-40204727D01*
X202655363Y-40439759D01*
X202855241Y-40639637D01*
X203087759Y-40795000D01*
X202855241Y-40950363D01*
X202655363Y-41150241D01*
X202498320Y-41385273D01*
X202390147Y-41646426D01*
X202335000Y-41923665D01*
X202335000Y-42206335D01*
X202389018Y-42477899D01*
X202367679Y-42480001D01*
X189910564Y-42480001D01*
X189965000Y-42206335D01*
X189965000Y-41923665D01*
X189909853Y-41646426D01*
X189801680Y-41385273D01*
X189644637Y-41150241D01*
X189444759Y-40950363D01*
X189212241Y-40795000D01*
X189444759Y-40639637D01*
X189644637Y-40439759D01*
X189801680Y-40204727D01*
X189909853Y-39943574D01*
X189965000Y-39666335D01*
X189965000Y-39383665D01*
X189909853Y-39106426D01*
X189801680Y-38845273D01*
X189644637Y-38610241D01*
X189444759Y-38410363D01*
X189212241Y-38255000D01*
X189444759Y-38099637D01*
X189644637Y-37899759D01*
X189801680Y-37664727D01*
X189909853Y-37403574D01*
X189965000Y-37126335D01*
X189965000Y-36843665D01*
X189909853Y-36566426D01*
X189801680Y-36305273D01*
X189644637Y-36070241D01*
X189444759Y-35870363D01*
X189212241Y-35715000D01*
X189444759Y-35559637D01*
X189644637Y-35359759D01*
X189801680Y-35124727D01*
X189909853Y-34863574D01*
X189965000Y-34586335D01*
X189965000Y-34303665D01*
X189909853Y-34026426D01*
X189801680Y-33765273D01*
X189644637Y-33530241D01*
X189444759Y-33330363D01*
X189212241Y-33175000D01*
X189444759Y-33019637D01*
X189644637Y-32819759D01*
X189801680Y-32584727D01*
X189909853Y-32323574D01*
X189965000Y-32046335D01*
X189965000Y-31763665D01*
X189909853Y-31486426D01*
X189801680Y-31225273D01*
X189644637Y-30990241D01*
X189446039Y-30791643D01*
X189454482Y-30790812D01*
X189574180Y-30754502D01*
X189684494Y-30695537D01*
X189781185Y-30616185D01*
X189860537Y-30519494D01*
X189919502Y-30409180D01*
X189955812Y-30289482D01*
X189968072Y-30165000D01*
X189968072Y-29223665D01*
X202335000Y-29223665D01*
X202335000Y-29506335D01*
X202390147Y-29783574D01*
X202498320Y-30044727D01*
X202655363Y-30279759D01*
X202855241Y-30479637D01*
X203090273Y-30636680D01*
X203100865Y-30641067D01*
X202914869Y-30752615D01*
X202706481Y-30941586D01*
X202538963Y-31167580D01*
X202418754Y-31421913D01*
X202378096Y-31555961D01*
X202500085Y-31778000D01*
X203643000Y-31778000D01*
X203643000Y-31758000D01*
X203897000Y-31758000D01*
X203897000Y-31778000D01*
X205039915Y-31778000D01*
X205161904Y-31555961D01*
X205121246Y-31421913D01*
X205001037Y-31167580D01*
X204833519Y-30941586D01*
X204625131Y-30752615D01*
X204439135Y-30641067D01*
X204449727Y-30636680D01*
X204684759Y-30479637D01*
X204884637Y-30279759D01*
X205041680Y-30044727D01*
X205149853Y-29783574D01*
X205205000Y-29506335D01*
X205205000Y-29223665D01*
X205149853Y-28946426D01*
X205041680Y-28685273D01*
X204884637Y-28450241D01*
X204684759Y-28250363D01*
X204449727Y-28093320D01*
X204188574Y-27985147D01*
X203911335Y-27930000D01*
X203628665Y-27930000D01*
X203351426Y-27985147D01*
X203090273Y-28093320D01*
X202855241Y-28250363D01*
X202655363Y-28450241D01*
X202498320Y-28685273D01*
X202390147Y-28946426D01*
X202335000Y-29223665D01*
X189968072Y-29223665D01*
X189968072Y-28565000D01*
X189955812Y-28440518D01*
X189919502Y-28320820D01*
X189860537Y-28210506D01*
X189781185Y-28113815D01*
X189684494Y-28034463D01*
X189574180Y-27975498D01*
X189454482Y-27939188D01*
X189330000Y-27926928D01*
X187730000Y-27926928D01*
X187605518Y-27939188D01*
X187485820Y-27975498D01*
X187375506Y-28034463D01*
X187278815Y-28113815D01*
X187199463Y-28210506D01*
X187140498Y-28320820D01*
X187104188Y-28440518D01*
X187091928Y-28565000D01*
X187091928Y-30165000D01*
X187098169Y-30228367D01*
X183823731Y-26953930D01*
X183875000Y-26696184D01*
X183875000Y-26393816D01*
X183816011Y-26097257D01*
X183719441Y-25864117D01*
X203370000Y-25864117D01*
X203370000Y-26205883D01*
X203436675Y-26541081D01*
X203567463Y-26856831D01*
X203757337Y-27140998D01*
X203999002Y-27382663D01*
X204283169Y-27572537D01*
X204598919Y-27703325D01*
X204934117Y-27770000D01*
X205275883Y-27770000D01*
X205611081Y-27703325D01*
X205926831Y-27572537D01*
X206210998Y-27382663D01*
X206452663Y-27140998D01*
X206642537Y-26856831D01*
X206773325Y-26541081D01*
X206840000Y-26205883D01*
X206840000Y-25864117D01*
X206773325Y-25528919D01*
X206642537Y-25213169D01*
X206452663Y-24929002D01*
X206210998Y-24687337D01*
X205926831Y-24497463D01*
X205611081Y-24366675D01*
X205275883Y-24300000D01*
X204934117Y-24300000D01*
X204598919Y-24366675D01*
X204283169Y-24497463D01*
X203999002Y-24687337D01*
X203757337Y-24929002D01*
X203567463Y-25213169D01*
X203436675Y-25528919D01*
X203370000Y-25864117D01*
X183719441Y-25864117D01*
X183700299Y-25817905D01*
X183532312Y-25566495D01*
X183318505Y-25352688D01*
X183067095Y-25184701D01*
X182787743Y-25068989D01*
X182491184Y-25010000D01*
X182188816Y-25010000D01*
X181892257Y-25068989D01*
X181612905Y-25184701D01*
X181361495Y-25352688D01*
X181147688Y-25566495D01*
X181045049Y-25720105D01*
X180864080Y-25660525D01*
X179979605Y-26545000D01*
X180864080Y-27429475D01*
X181045049Y-27369895D01*
X181147688Y-27523505D01*
X181361495Y-27737312D01*
X181612905Y-27905299D01*
X181892257Y-28021011D01*
X182188816Y-28080000D01*
X182491184Y-28080000D01*
X182748930Y-28028731D01*
X187136201Y-32416003D01*
X187159999Y-32445001D01*
X187221273Y-32495287D01*
X187258320Y-32584727D01*
X187415363Y-32819759D01*
X187615241Y-33019637D01*
X187847759Y-33175000D01*
X187615241Y-33330363D01*
X187415363Y-33530241D01*
X187258320Y-33765273D01*
X187150147Y-34026426D01*
X187095000Y-34303665D01*
X187095000Y-34586335D01*
X187150147Y-34863574D01*
X187258320Y-35124727D01*
X187415363Y-35359759D01*
X187615241Y-35559637D01*
X187847759Y-35715000D01*
X187615241Y-35870363D01*
X187415363Y-36070241D01*
X187258320Y-36305273D01*
X187150147Y-36566426D01*
X187095000Y-36843665D01*
X187095000Y-37126335D01*
X187150147Y-37403574D01*
X187258320Y-37664727D01*
X187415363Y-37899759D01*
X187615241Y-38099637D01*
X187847759Y-38255000D01*
X187615241Y-38410363D01*
X187415363Y-38610241D01*
X187258320Y-38845273D01*
X187150147Y-39106426D01*
X187095000Y-39383665D01*
X187095000Y-39666335D01*
X187150147Y-39943574D01*
X187258320Y-40204727D01*
X187415363Y-40439759D01*
X187615241Y-40639637D01*
X187847759Y-40795000D01*
X187615241Y-40950363D01*
X187415363Y-41150241D01*
X187258320Y-41385273D01*
X187150147Y-41646426D01*
X187095000Y-41923665D01*
X187095000Y-42206335D01*
X187149436Y-42480001D01*
X168827612Y-42480001D01*
X168925620Y-42243388D01*
X168977000Y-41985083D01*
X168977000Y-41721717D01*
X168925620Y-41463412D01*
X168824834Y-41220093D01*
X168678516Y-41001112D01*
X168492288Y-40814884D01*
X168273307Y-40668566D01*
X168067698Y-40583400D01*
X168273307Y-40498234D01*
X168492288Y-40351916D01*
X168678516Y-40165688D01*
X168824834Y-39946707D01*
X168925620Y-39703388D01*
X168977000Y-39445083D01*
X168977000Y-39181717D01*
X168925620Y-38923412D01*
X168824834Y-38680093D01*
X168678516Y-38461112D01*
X168492288Y-38274884D01*
X168273307Y-38128566D01*
X168067698Y-38043400D01*
X168273307Y-37958234D01*
X168492288Y-37811916D01*
X168678516Y-37625688D01*
X168824834Y-37406707D01*
X168925620Y-37163388D01*
X168977000Y-36905083D01*
X168977000Y-36641717D01*
X168925620Y-36383412D01*
X168824834Y-36140093D01*
X168678516Y-35921112D01*
X168492288Y-35734884D01*
X168273307Y-35588566D01*
X168067698Y-35503400D01*
X168273307Y-35418234D01*
X168492288Y-35271916D01*
X168678516Y-35085688D01*
X168824834Y-34866707D01*
X168925620Y-34623388D01*
X168977000Y-34365083D01*
X168977000Y-34101717D01*
X168925620Y-33843412D01*
X168824834Y-33600093D01*
X168678516Y-33381112D01*
X168492288Y-33194884D01*
X168273307Y-33048566D01*
X168029988Y-32947780D01*
X167771683Y-32896400D01*
X167508317Y-32896400D01*
X167250012Y-32947780D01*
X167006693Y-33048566D01*
X166787712Y-33194884D01*
X166601484Y-33381112D01*
X166455166Y-33600093D01*
X166370000Y-33805702D01*
X166284834Y-33600093D01*
X166138516Y-33381112D01*
X165952288Y-33194884D01*
X165733307Y-33048566D01*
X165489988Y-32947780D01*
X165231683Y-32896400D01*
X164968317Y-32896400D01*
X164710012Y-32947780D01*
X164466693Y-33048566D01*
X164247712Y-33194884D01*
X164061484Y-33381112D01*
X163915166Y-33600093D01*
X163830000Y-33805702D01*
X163744834Y-33600093D01*
X163598516Y-33381112D01*
X163412288Y-33194884D01*
X163193307Y-33048566D01*
X162949988Y-32947780D01*
X162691683Y-32896400D01*
X162428317Y-32896400D01*
X162170012Y-32947780D01*
X161926693Y-33048566D01*
X161707712Y-33194884D01*
X161521484Y-33381112D01*
X161375166Y-33600093D01*
X161290000Y-33805702D01*
X161204834Y-33600093D01*
X161058516Y-33381112D01*
X160872288Y-33194884D01*
X160653307Y-33048566D01*
X160409988Y-32947780D01*
X160151683Y-32896400D01*
X159888317Y-32896400D01*
X159630012Y-32947780D01*
X159386693Y-33048566D01*
X159167712Y-33194884D01*
X158981484Y-33381112D01*
X158835166Y-33600093D01*
X158750000Y-33805702D01*
X158664834Y-33600093D01*
X158518516Y-33381112D01*
X158332288Y-33194884D01*
X158113307Y-33048566D01*
X157869988Y-32947780D01*
X157611683Y-32896400D01*
X157348317Y-32896400D01*
X157090012Y-32947780D01*
X156846693Y-33048566D01*
X156627712Y-33194884D01*
X156441484Y-33381112D01*
X156295166Y-33600093D01*
X156210000Y-33805702D01*
X156124834Y-33600093D01*
X155978516Y-33381112D01*
X155792288Y-33194884D01*
X155573307Y-33048566D01*
X155329988Y-32947780D01*
X155071683Y-32896400D01*
X154808317Y-32896400D01*
X154550012Y-32947780D01*
X154306693Y-33048566D01*
X154087712Y-33194884D01*
X153901484Y-33381112D01*
X153755166Y-33600093D01*
X153670000Y-33805702D01*
X153584834Y-33600093D01*
X153438516Y-33381112D01*
X153252288Y-33194884D01*
X153033307Y-33048566D01*
X152789988Y-32947780D01*
X152531683Y-32896400D01*
X152268317Y-32896400D01*
X152010012Y-32947780D01*
X151766693Y-33048566D01*
X151547712Y-33194884D01*
X151361484Y-33381112D01*
X151215166Y-33600093D01*
X151114380Y-33843412D01*
X151063000Y-34101717D01*
X151063000Y-34365083D01*
X151114380Y-34623388D01*
X151215166Y-34866707D01*
X151361484Y-35085688D01*
X151547712Y-35271916D01*
X151766693Y-35418234D01*
X151972302Y-35503400D01*
X151766693Y-35588566D01*
X151547712Y-35734884D01*
X151361484Y-35921112D01*
X151215166Y-36140093D01*
X151114380Y-36383412D01*
X151063000Y-36641717D01*
X151063000Y-36905083D01*
X151084654Y-37013945D01*
X150123599Y-37975000D01*
X139768711Y-37975000D01*
X139724774Y-37931063D01*
X139555256Y-37817795D01*
X139366898Y-37739774D01*
X139166939Y-37700000D01*
X139049999Y-37700000D01*
X139049999Y-36014802D01*
X139104801Y-35960000D01*
X139166939Y-35960000D01*
X139366898Y-35920226D01*
X139555256Y-35842205D01*
X139724774Y-35728937D01*
X139868937Y-35584774D01*
X139982205Y-35415256D01*
X140060226Y-35226898D01*
X140100000Y-35026939D01*
X140100000Y-34823061D01*
X140060226Y-34623102D01*
X139982205Y-34434744D01*
X139868937Y-34265226D01*
X139724774Y-34121063D01*
X139555256Y-34007795D01*
X139366898Y-33929774D01*
X139166939Y-33890000D01*
X138963061Y-33890000D01*
X138763102Y-33929774D01*
X138574744Y-34007795D01*
X138405226Y-34121063D01*
X138261063Y-34265226D01*
X138147795Y-34434744D01*
X138069774Y-34623102D01*
X138030000Y-34823061D01*
X138030000Y-34885199D01*
X137779001Y-35136198D01*
X137749998Y-35160000D01*
X137703017Y-35217247D01*
X137655025Y-35275725D01*
X137610108Y-35359759D01*
X137584453Y-35407755D01*
X137540996Y-35551016D01*
X137529999Y-35662669D01*
X137529999Y-35662679D01*
X137526323Y-35700001D01*
X137529999Y-35737324D01*
X137530000Y-39069669D01*
X137526323Y-39107001D01*
X137540997Y-39255986D01*
X137584453Y-39399247D01*
X137655025Y-39531277D01*
X137695606Y-39580724D01*
X137749999Y-39647002D01*
X137778997Y-39670800D01*
X145552599Y-47444403D01*
X145576397Y-47473401D01*
X145605395Y-47497199D01*
X145692122Y-47568374D01*
X145824151Y-47638946D01*
X145967412Y-47682403D01*
X146116398Y-47697077D01*
X146153731Y-47693400D01*
X151299819Y-47693400D01*
X151361484Y-47785688D01*
X151547712Y-47971916D01*
X151766693Y-48118234D01*
X151972302Y-48203400D01*
X151766693Y-48288566D01*
X151547712Y-48434884D01*
X151361484Y-48621112D01*
X151215166Y-48840093D01*
X151114380Y-49083412D01*
X151063000Y-49341717D01*
X151063000Y-49605083D01*
X151114380Y-49863388D01*
X151215166Y-50106707D01*
X151361484Y-50325688D01*
X151547712Y-50511916D01*
X151766693Y-50658234D01*
X151972302Y-50743400D01*
X151766693Y-50828566D01*
X151547712Y-50974884D01*
X151361484Y-51161112D01*
X151215166Y-51380093D01*
X151114380Y-51623412D01*
X151063000Y-51881717D01*
X151063000Y-52145083D01*
X151114380Y-52403388D01*
X151215166Y-52646707D01*
X151361484Y-52865688D01*
X151547712Y-53051916D01*
X151766693Y-53198234D01*
X151972302Y-53283400D01*
X151766693Y-53368566D01*
X151547712Y-53514884D01*
X151361484Y-53701112D01*
X151215166Y-53920093D01*
X151114380Y-54163412D01*
X151063000Y-54421717D01*
X151063000Y-54685083D01*
X151114380Y-54943388D01*
X151215166Y-55186707D01*
X151361484Y-55405688D01*
X151547712Y-55591916D01*
X151766693Y-55738234D01*
X151802772Y-55753178D01*
X151784278Y-55755000D01*
X148538043Y-55755000D01*
X148434637Y-55600241D01*
X148234759Y-55400363D01*
X147999727Y-55243320D01*
X147738574Y-55135147D01*
X147461335Y-55080000D01*
X147178665Y-55080000D01*
X146901426Y-55135147D01*
X146640273Y-55243320D01*
X146405241Y-55400363D01*
X146205363Y-55600241D01*
X146048320Y-55835273D01*
X145940147Y-56096426D01*
X145885000Y-56373665D01*
X145885000Y-56656335D01*
X145940147Y-56933574D01*
X146048320Y-57194727D01*
X146205363Y-57429759D01*
X146405241Y-57629637D01*
X146640273Y-57786680D01*
X146901426Y-57894853D01*
X147178665Y-57950000D01*
X147461335Y-57950000D01*
X147738574Y-57894853D01*
X147999727Y-57786680D01*
X148234759Y-57629637D01*
X148434637Y-57429759D01*
X148538043Y-57275000D01*
X151072929Y-57275000D01*
X151114380Y-57483388D01*
X151215166Y-57726707D01*
X151361484Y-57945688D01*
X151547712Y-58131916D01*
X151766693Y-58278234D01*
X151972302Y-58363400D01*
X151766693Y-58448566D01*
X151547712Y-58594884D01*
X151361484Y-58781112D01*
X151215166Y-59000093D01*
X151114380Y-59243412D01*
X151063000Y-59501717D01*
X151063000Y-59765083D01*
X151084654Y-59873945D01*
X150811997Y-60146602D01*
X150782999Y-60170400D01*
X150759201Y-60199398D01*
X150759200Y-60199399D01*
X150688025Y-60286125D01*
X150617453Y-60418155D01*
X150596968Y-60485688D01*
X150573997Y-60561415D01*
X150563000Y-60673068D01*
X150559323Y-60710401D01*
X150563000Y-60747733D01*
X150562999Y-63881637D01*
X136648998Y-77795639D01*
X136620000Y-77819437D01*
X136596202Y-77848435D01*
X136596201Y-77848436D01*
X136525026Y-77935162D01*
X136454454Y-78067192D01*
X136410998Y-78210453D01*
X136396324Y-78359438D01*
X136400001Y-78396770D01*
X136400001Y-78731821D01*
X136213368Y-78856525D01*
X136081513Y-78988380D01*
X136059502Y-78915820D01*
X136000537Y-78805506D01*
X135921185Y-78708815D01*
X135824494Y-78629463D01*
X135714180Y-78570498D01*
X135594482Y-78534188D01*
X135470000Y-78521928D01*
X133770000Y-78521928D01*
X133645518Y-78534188D01*
X133525820Y-78570498D01*
X133415506Y-78629463D01*
X133318815Y-78708815D01*
X133239463Y-78805506D01*
X133180498Y-78915820D01*
X133144188Y-79035518D01*
X133131928Y-79160000D01*
X133131928Y-79822128D01*
X132840000Y-79530201D01*
X132840000Y-63993665D01*
X136360000Y-63993665D01*
X136360000Y-64276335D01*
X136415147Y-64553574D01*
X136523320Y-64814727D01*
X136680363Y-65049759D01*
X136880241Y-65249637D01*
X137115273Y-65406680D01*
X137376426Y-65514853D01*
X137653665Y-65570000D01*
X137936335Y-65570000D01*
X138213574Y-65514853D01*
X138474727Y-65406680D01*
X138709759Y-65249637D01*
X138909637Y-65049759D01*
X139066680Y-64814727D01*
X139174853Y-64553574D01*
X139230000Y-64276335D01*
X139230000Y-63993665D01*
X139535000Y-63993665D01*
X139535000Y-64276335D01*
X139590147Y-64553574D01*
X139698320Y-64814727D01*
X139855363Y-65049759D01*
X140055241Y-65249637D01*
X140290273Y-65406680D01*
X140551426Y-65514853D01*
X140828665Y-65570000D01*
X141111335Y-65570000D01*
X141388574Y-65514853D01*
X141649727Y-65406680D01*
X141884759Y-65249637D01*
X142084637Y-65049759D01*
X142241680Y-64814727D01*
X142349853Y-64553574D01*
X142405000Y-64276335D01*
X142405000Y-63993665D01*
X142710000Y-63993665D01*
X142710000Y-64276335D01*
X142765147Y-64553574D01*
X142873320Y-64814727D01*
X143030363Y-65049759D01*
X143230241Y-65249637D01*
X143465273Y-65406680D01*
X143726426Y-65514853D01*
X144003665Y-65570000D01*
X144286335Y-65570000D01*
X144563574Y-65514853D01*
X144824727Y-65406680D01*
X145059759Y-65249637D01*
X145259637Y-65049759D01*
X145416680Y-64814727D01*
X145524853Y-64553574D01*
X145580000Y-64276335D01*
X145580000Y-63993665D01*
X145885000Y-63993665D01*
X145885000Y-64276335D01*
X145940147Y-64553574D01*
X146048320Y-64814727D01*
X146205363Y-65049759D01*
X146405241Y-65249637D01*
X146640273Y-65406680D01*
X146901426Y-65514853D01*
X147178665Y-65570000D01*
X147461335Y-65570000D01*
X147738574Y-65514853D01*
X147999727Y-65406680D01*
X148234759Y-65249637D01*
X148434637Y-65049759D01*
X148591680Y-64814727D01*
X148699853Y-64553574D01*
X148755000Y-64276335D01*
X148755000Y-63993665D01*
X148699853Y-63716426D01*
X148591680Y-63455273D01*
X148434637Y-63220241D01*
X148234759Y-63020363D01*
X147999727Y-62863320D01*
X147738574Y-62755147D01*
X147461335Y-62700000D01*
X147178665Y-62700000D01*
X146901426Y-62755147D01*
X146640273Y-62863320D01*
X146405241Y-63020363D01*
X146205363Y-63220241D01*
X146048320Y-63455273D01*
X145940147Y-63716426D01*
X145885000Y-63993665D01*
X145580000Y-63993665D01*
X145524853Y-63716426D01*
X145416680Y-63455273D01*
X145259637Y-63220241D01*
X145059759Y-63020363D01*
X144824727Y-62863320D01*
X144563574Y-62755147D01*
X144286335Y-62700000D01*
X144003665Y-62700000D01*
X143726426Y-62755147D01*
X143465273Y-62863320D01*
X143230241Y-63020363D01*
X143030363Y-63220241D01*
X142873320Y-63455273D01*
X142765147Y-63716426D01*
X142710000Y-63993665D01*
X142405000Y-63993665D01*
X142349853Y-63716426D01*
X142241680Y-63455273D01*
X142084637Y-63220241D01*
X141884759Y-63020363D01*
X141649727Y-62863320D01*
X141388574Y-62755147D01*
X141111335Y-62700000D01*
X140828665Y-62700000D01*
X140551426Y-62755147D01*
X140290273Y-62863320D01*
X140055241Y-63020363D01*
X139855363Y-63220241D01*
X139698320Y-63455273D01*
X139590147Y-63716426D01*
X139535000Y-63993665D01*
X139230000Y-63993665D01*
X139174853Y-63716426D01*
X139066680Y-63455273D01*
X138909637Y-63220241D01*
X138709759Y-63020363D01*
X138474727Y-62863320D01*
X138213574Y-62755147D01*
X137936335Y-62700000D01*
X137653665Y-62700000D01*
X137376426Y-62755147D01*
X137115273Y-62863320D01*
X136880241Y-63020363D01*
X136680363Y-63220241D01*
X136523320Y-63455273D01*
X136415147Y-63716426D01*
X136360000Y-63993665D01*
X132840000Y-63993665D01*
X132840000Y-60450000D01*
X133916289Y-60450000D01*
X133960226Y-60493937D01*
X134129744Y-60607205D01*
X134318102Y-60685226D01*
X134518061Y-60725000D01*
X134721939Y-60725000D01*
X134921898Y-60685226D01*
X135110256Y-60607205D01*
X135279774Y-60493937D01*
X135423937Y-60349774D01*
X135537205Y-60180256D01*
X135615226Y-59991898D01*
X135655000Y-59791939D01*
X135655000Y-59588061D01*
X135615226Y-59388102D01*
X135537205Y-59199744D01*
X135423937Y-59030226D01*
X135279774Y-58886063D01*
X135110256Y-58772795D01*
X134921898Y-58694774D01*
X134721939Y-58655000D01*
X134518061Y-58655000D01*
X134318102Y-58694774D01*
X134129744Y-58772795D01*
X133960226Y-58886063D01*
X133916289Y-58930000D01*
X132840000Y-58930000D01*
X132840000Y-56864040D01*
X136403091Y-56864040D01*
X136497930Y-57128881D01*
X136642615Y-57370131D01*
X136831586Y-57578519D01*
X137057580Y-57746037D01*
X137311913Y-57866246D01*
X137445961Y-57906904D01*
X137668000Y-57784915D01*
X137668000Y-56642000D01*
X137922000Y-56642000D01*
X137922000Y-57784915D01*
X138144039Y-57906904D01*
X138278087Y-57866246D01*
X138532420Y-57746037D01*
X138758414Y-57578519D01*
X138947385Y-57370131D01*
X139092070Y-57128881D01*
X139186909Y-56864040D01*
X139065624Y-56642000D01*
X137922000Y-56642000D01*
X137668000Y-56642000D01*
X136524376Y-56642000D01*
X136403091Y-56864040D01*
X132840000Y-56864040D01*
X132840000Y-56165960D01*
X136403091Y-56165960D01*
X136524376Y-56388000D01*
X137668000Y-56388000D01*
X137668000Y-55245085D01*
X137922000Y-55245085D01*
X137922000Y-56388000D01*
X139065624Y-56388000D01*
X139073454Y-56373665D01*
X139535000Y-56373665D01*
X139535000Y-56656335D01*
X139590147Y-56933574D01*
X139698320Y-57194727D01*
X139855363Y-57429759D01*
X140055241Y-57629637D01*
X140290273Y-57786680D01*
X140551426Y-57894853D01*
X140828665Y-57950000D01*
X141111335Y-57950000D01*
X141388574Y-57894853D01*
X141649727Y-57786680D01*
X141884759Y-57629637D01*
X142084637Y-57429759D01*
X142241680Y-57194727D01*
X142349853Y-56933574D01*
X142405000Y-56656335D01*
X142405000Y-56373665D01*
X142710000Y-56373665D01*
X142710000Y-56656335D01*
X142765147Y-56933574D01*
X142873320Y-57194727D01*
X143030363Y-57429759D01*
X143230241Y-57629637D01*
X143465273Y-57786680D01*
X143726426Y-57894853D01*
X144003665Y-57950000D01*
X144286335Y-57950000D01*
X144563574Y-57894853D01*
X144824727Y-57786680D01*
X145059759Y-57629637D01*
X145259637Y-57429759D01*
X145416680Y-57194727D01*
X145524853Y-56933574D01*
X145580000Y-56656335D01*
X145580000Y-56373665D01*
X145524853Y-56096426D01*
X145416680Y-55835273D01*
X145259637Y-55600241D01*
X145059759Y-55400363D01*
X144824727Y-55243320D01*
X144563574Y-55135147D01*
X144286335Y-55080000D01*
X144003665Y-55080000D01*
X143726426Y-55135147D01*
X143465273Y-55243320D01*
X143230241Y-55400363D01*
X143030363Y-55600241D01*
X142873320Y-55835273D01*
X142765147Y-56096426D01*
X142710000Y-56373665D01*
X142405000Y-56373665D01*
X142349853Y-56096426D01*
X142241680Y-55835273D01*
X142084637Y-55600241D01*
X141884759Y-55400363D01*
X141649727Y-55243320D01*
X141388574Y-55135147D01*
X141111335Y-55080000D01*
X140828665Y-55080000D01*
X140551426Y-55135147D01*
X140290273Y-55243320D01*
X140055241Y-55400363D01*
X139855363Y-55600241D01*
X139698320Y-55835273D01*
X139590147Y-56096426D01*
X139535000Y-56373665D01*
X139073454Y-56373665D01*
X139186909Y-56165960D01*
X139092070Y-55901119D01*
X138947385Y-55659869D01*
X138758414Y-55451481D01*
X138532420Y-55283963D01*
X138278087Y-55163754D01*
X138144039Y-55123096D01*
X137922000Y-55245085D01*
X137668000Y-55245085D01*
X137445961Y-55123096D01*
X137311913Y-55163754D01*
X137057580Y-55283963D01*
X136831586Y-55451481D01*
X136642615Y-55659869D01*
X136497930Y-55901119D01*
X136403091Y-56165960D01*
X132840000Y-56165960D01*
X132840000Y-50968072D01*
X132880000Y-50968072D01*
X133004482Y-50955812D01*
X133124180Y-50919502D01*
X133234494Y-50860537D01*
X133331185Y-50781185D01*
X133410537Y-50684494D01*
X133469502Y-50574180D01*
X133485117Y-50522702D01*
X134766903Y-50522702D01*
X134838486Y-50766671D01*
X135093996Y-50887571D01*
X135368184Y-50956300D01*
X135650512Y-50970217D01*
X135930130Y-50928787D01*
X136196292Y-50833603D01*
X136321514Y-50766671D01*
X136393097Y-50522702D01*
X135580000Y-49709605D01*
X134766903Y-50522702D01*
X133485117Y-50522702D01*
X133505812Y-50454482D01*
X133518072Y-50330000D01*
X133518072Y-49600512D01*
X134139783Y-49600512D01*
X134181213Y-49880130D01*
X134276397Y-50146292D01*
X134343329Y-50271514D01*
X134587298Y-50343097D01*
X135400395Y-49530000D01*
X135759605Y-49530000D01*
X136572702Y-50343097D01*
X136816671Y-50271514D01*
X136937571Y-50016004D01*
X137006300Y-49741816D01*
X137020217Y-49459488D01*
X136978787Y-49179870D01*
X136883603Y-48913708D01*
X136865586Y-48880000D01*
X140951928Y-48880000D01*
X140951928Y-50180000D01*
X140964188Y-50304482D01*
X141000498Y-50424180D01*
X141059463Y-50534494D01*
X141138815Y-50631185D01*
X141235506Y-50710537D01*
X141345820Y-50769502D01*
X141465518Y-50805812D01*
X141590000Y-50818072D01*
X142890000Y-50818072D01*
X143014482Y-50805812D01*
X143134180Y-50769502D01*
X143244494Y-50710537D01*
X143341185Y-50631185D01*
X143420537Y-50534494D01*
X143426765Y-50522842D01*
X143426903Y-50522704D01*
X143498486Y-50766671D01*
X143753996Y-50887571D01*
X144028184Y-50956300D01*
X144310512Y-50970217D01*
X144590130Y-50928787D01*
X144856292Y-50833603D01*
X144981514Y-50766671D01*
X145053097Y-50522702D01*
X144240000Y-49709605D01*
X144225858Y-49723748D01*
X144046253Y-49544143D01*
X144060395Y-49530000D01*
X144419605Y-49530000D01*
X145232702Y-50343097D01*
X145476671Y-50271514D01*
X145597571Y-50016004D01*
X145666300Y-49741816D01*
X145680217Y-49459488D01*
X145638787Y-49179870D01*
X145543603Y-48913708D01*
X145476671Y-48788486D01*
X145232702Y-48716903D01*
X144419605Y-49530000D01*
X144060395Y-49530000D01*
X144046253Y-49515858D01*
X144225858Y-49336253D01*
X144240000Y-49350395D01*
X145053097Y-48537298D01*
X144981514Y-48293329D01*
X144726004Y-48172429D01*
X144451816Y-48103700D01*
X144169488Y-48089783D01*
X143889870Y-48131213D01*
X143623708Y-48226397D01*
X143498486Y-48293329D01*
X143426903Y-48537296D01*
X143426765Y-48537158D01*
X143420537Y-48525506D01*
X143341185Y-48428815D01*
X143244494Y-48349463D01*
X143134180Y-48290498D01*
X143014482Y-48254188D01*
X142890000Y-48241928D01*
X141590000Y-48241928D01*
X141465518Y-48254188D01*
X141345820Y-48290498D01*
X141235506Y-48349463D01*
X141138815Y-48428815D01*
X141059463Y-48525506D01*
X141000498Y-48635820D01*
X140964188Y-48755518D01*
X140951928Y-48880000D01*
X136865586Y-48880000D01*
X136816671Y-48788486D01*
X136572702Y-48716903D01*
X135759605Y-49530000D01*
X135400395Y-49530000D01*
X134587298Y-48716903D01*
X134343329Y-48788486D01*
X134222429Y-49043996D01*
X134153700Y-49318184D01*
X134139783Y-49600512D01*
X133518072Y-49600512D01*
X133518072Y-48730000D01*
X133505812Y-48605518D01*
X133485118Y-48537298D01*
X134766903Y-48537298D01*
X135580000Y-49350395D01*
X136393097Y-48537298D01*
X136321514Y-48293329D01*
X136066004Y-48172429D01*
X135791816Y-48103700D01*
X135509488Y-48089783D01*
X135229870Y-48131213D01*
X134963708Y-48226397D01*
X134838486Y-48293329D01*
X134766903Y-48537298D01*
X133485118Y-48537298D01*
X133469502Y-48485820D01*
X133410537Y-48375506D01*
X133331185Y-48278815D01*
X133234494Y-48199463D01*
X133124180Y-48140498D01*
X133004482Y-48104188D01*
X132880000Y-48091928D01*
X131280000Y-48091928D01*
X131155518Y-48104188D01*
X131035820Y-48140498D01*
X130925506Y-48199463D01*
X130828815Y-48278815D01*
X130749463Y-48375506D01*
X130690498Y-48485820D01*
X130654188Y-48605518D01*
X130641928Y-48730000D01*
X125120000Y-48730000D01*
X125120000Y-34075000D01*
X126781928Y-34075000D01*
X126781928Y-35775000D01*
X126794188Y-35899482D01*
X126830498Y-36019180D01*
X126889463Y-36129494D01*
X126968815Y-36226185D01*
X127065506Y-36305537D01*
X127175820Y-36364502D01*
X127248380Y-36386513D01*
X127116525Y-36518368D01*
X126954010Y-36761589D01*
X126842068Y-37031842D01*
X126785000Y-37318740D01*
X126785000Y-37611260D01*
X126842068Y-37898158D01*
X126954010Y-38168411D01*
X127116525Y-38411632D01*
X127323368Y-38618475D01*
X127497760Y-38735000D01*
X127323368Y-38851525D01*
X127116525Y-39058368D01*
X126954010Y-39301589D01*
X126842068Y-39571842D01*
X126785000Y-39858740D01*
X126785000Y-40151260D01*
X126842068Y-40438158D01*
X126954010Y-40708411D01*
X127116525Y-40951632D01*
X127323368Y-41158475D01*
X127566589Y-41320990D01*
X127836842Y-41432932D01*
X128123740Y-41490000D01*
X128416260Y-41490000D01*
X128703158Y-41432932D01*
X128973411Y-41320990D01*
X129216632Y-41158475D01*
X129423475Y-40951632D01*
X129585990Y-40708411D01*
X129697932Y-40438158D01*
X129755000Y-40151260D01*
X129755000Y-39858740D01*
X129697932Y-39571842D01*
X129585990Y-39301589D01*
X129423475Y-39058368D01*
X129216632Y-38851525D01*
X129042240Y-38735000D01*
X129216632Y-38618475D01*
X129423475Y-38411632D01*
X129585990Y-38168411D01*
X129697932Y-37898158D01*
X129755000Y-37611260D01*
X129755000Y-37318740D01*
X129697932Y-37031842D01*
X129585990Y-36761589D01*
X129423475Y-36518368D01*
X129291620Y-36386513D01*
X129364180Y-36364502D01*
X129474494Y-36305537D01*
X129571185Y-36226185D01*
X129650537Y-36129494D01*
X129709502Y-36019180D01*
X129745812Y-35899482D01*
X129758072Y-35775000D01*
X129758072Y-34075000D01*
X129745812Y-33950518D01*
X129709502Y-33830820D01*
X129650537Y-33720506D01*
X129571185Y-33623815D01*
X129474494Y-33544463D01*
X129364180Y-33485498D01*
X129244482Y-33449188D01*
X129120000Y-33436928D01*
X127420000Y-33436928D01*
X127295518Y-33449188D01*
X127175820Y-33485498D01*
X127065506Y-33544463D01*
X126968815Y-33623815D01*
X126889463Y-33720506D01*
X126830498Y-33830820D01*
X126794188Y-33950518D01*
X126781928Y-34075000D01*
X125120000Y-34075000D01*
X125120000Y-28155000D01*
X131861928Y-28155000D01*
X131874188Y-28279482D01*
X131910498Y-28399180D01*
X131969463Y-28509494D01*
X132048815Y-28606185D01*
X132145506Y-28685537D01*
X132255820Y-28744502D01*
X132375518Y-28780812D01*
X132500000Y-28793072D01*
X133064250Y-28790000D01*
X133223000Y-28631250D01*
X133223000Y-27432000D01*
X132023750Y-27432000D01*
X131865000Y-27590750D01*
X131861928Y-28155000D01*
X125120000Y-28155000D01*
X125120000Y-25864117D01*
X125900000Y-25864117D01*
X125900000Y-26205883D01*
X125966675Y-26541081D01*
X126097463Y-26856831D01*
X126287337Y-27140998D01*
X126529002Y-27382663D01*
X126813169Y-27572537D01*
X127128919Y-27703325D01*
X127464117Y-27770000D01*
X127805883Y-27770000D01*
X128141081Y-27703325D01*
X128456831Y-27572537D01*
X128740998Y-27382663D01*
X128982663Y-27140998D01*
X129172537Y-26856831D01*
X129303325Y-26541081D01*
X129320447Y-26455000D01*
X131861928Y-26455000D01*
X131865000Y-27019250D01*
X132023750Y-27178000D01*
X133223000Y-27178000D01*
X133223000Y-25978750D01*
X133477000Y-25978750D01*
X133477000Y-27178000D01*
X133497000Y-27178000D01*
X133497000Y-27432000D01*
X133477000Y-27432000D01*
X133477000Y-28631250D01*
X133635750Y-28790000D01*
X134200000Y-28793072D01*
X134324482Y-28780812D01*
X134444180Y-28744502D01*
X134554494Y-28685537D01*
X134651185Y-28606185D01*
X134730537Y-28509494D01*
X134789502Y-28399180D01*
X134811513Y-28326620D01*
X134943368Y-28458475D01*
X135186589Y-28620990D01*
X135456842Y-28732932D01*
X135743740Y-28790000D01*
X136036260Y-28790000D01*
X136323158Y-28732932D01*
X136593411Y-28620990D01*
X136836632Y-28458475D01*
X137043475Y-28251632D01*
X137205990Y-28008411D01*
X137317932Y-27738158D01*
X137375000Y-27451260D01*
X137375000Y-27158740D01*
X137317932Y-26871842D01*
X137205990Y-26601589D01*
X137067161Y-26393816D01*
X173185000Y-26393816D01*
X173185000Y-26696184D01*
X173243989Y-26992743D01*
X173359701Y-27272095D01*
X173527688Y-27523505D01*
X173741495Y-27737312D01*
X173992905Y-27905299D01*
X174272257Y-28021011D01*
X174568816Y-28080000D01*
X174871184Y-28080000D01*
X175167743Y-28021011D01*
X175447095Y-27905299D01*
X175698505Y-27737312D01*
X175826737Y-27609080D01*
X176375525Y-27609080D01*
X176459208Y-27863261D01*
X176731775Y-27994158D01*
X177024642Y-28069365D01*
X177326553Y-28085991D01*
X177625907Y-28043397D01*
X177911199Y-27943222D01*
X178060792Y-27863261D01*
X178144475Y-27609080D01*
X178915525Y-27609080D01*
X178999208Y-27863261D01*
X179271775Y-27994158D01*
X179564642Y-28069365D01*
X179866553Y-28085991D01*
X180165907Y-28043397D01*
X180451199Y-27943222D01*
X180600792Y-27863261D01*
X180684475Y-27609080D01*
X179800000Y-26724605D01*
X178915525Y-27609080D01*
X178144475Y-27609080D01*
X177260000Y-26724605D01*
X176375525Y-27609080D01*
X175826737Y-27609080D01*
X175912312Y-27523505D01*
X176014951Y-27369895D01*
X176195920Y-27429475D01*
X177080395Y-26545000D01*
X177439605Y-26545000D01*
X178324080Y-27429475D01*
X178530000Y-27361681D01*
X178735920Y-27429475D01*
X179620395Y-26545000D01*
X178735920Y-25660525D01*
X178530000Y-25728319D01*
X178324080Y-25660525D01*
X177439605Y-26545000D01*
X177080395Y-26545000D01*
X176195920Y-25660525D01*
X176014951Y-25720105D01*
X175912312Y-25566495D01*
X175826737Y-25480920D01*
X176375525Y-25480920D01*
X177260000Y-26365395D01*
X178144475Y-25480920D01*
X178915525Y-25480920D01*
X179800000Y-26365395D01*
X180684475Y-25480920D01*
X180600792Y-25226739D01*
X180328225Y-25095842D01*
X180035358Y-25020635D01*
X179733447Y-25004009D01*
X179434093Y-25046603D01*
X179148801Y-25146778D01*
X178999208Y-25226739D01*
X178915525Y-25480920D01*
X178144475Y-25480920D01*
X178060792Y-25226739D01*
X177788225Y-25095842D01*
X177495358Y-25020635D01*
X177193447Y-25004009D01*
X176894093Y-25046603D01*
X176608801Y-25146778D01*
X176459208Y-25226739D01*
X176375525Y-25480920D01*
X175826737Y-25480920D01*
X175698505Y-25352688D01*
X175447095Y-25184701D01*
X175167743Y-25068989D01*
X174871184Y-25010000D01*
X174568816Y-25010000D01*
X174272257Y-25068989D01*
X173992905Y-25184701D01*
X173741495Y-25352688D01*
X173527688Y-25566495D01*
X173359701Y-25817905D01*
X173243989Y-26097257D01*
X173185000Y-26393816D01*
X137067161Y-26393816D01*
X137043475Y-26358368D01*
X136836632Y-26151525D01*
X136593411Y-25989010D01*
X136323158Y-25877068D01*
X136036260Y-25820000D01*
X135743740Y-25820000D01*
X135456842Y-25877068D01*
X135186589Y-25989010D01*
X134943368Y-26151525D01*
X134811513Y-26283380D01*
X134789502Y-26210820D01*
X134730537Y-26100506D01*
X134651185Y-26003815D01*
X134554494Y-25924463D01*
X134444180Y-25865498D01*
X134324482Y-25829188D01*
X134200000Y-25816928D01*
X133635750Y-25820000D01*
X133477000Y-25978750D01*
X133223000Y-25978750D01*
X133064250Y-25820000D01*
X132500000Y-25816928D01*
X132375518Y-25829188D01*
X132255820Y-25865498D01*
X132145506Y-25924463D01*
X132048815Y-26003815D01*
X131969463Y-26100506D01*
X131910498Y-26210820D01*
X131874188Y-26330518D01*
X131861928Y-26455000D01*
X129320447Y-26455000D01*
X129370000Y-26205883D01*
X129370000Y-25864117D01*
X129303325Y-25528919D01*
X129172537Y-25213169D01*
X128982663Y-24929002D01*
X128740998Y-24687337D01*
X128456831Y-24497463D01*
X128141081Y-24366675D01*
X127805883Y-24300000D01*
X127464117Y-24300000D01*
X127128919Y-24366675D01*
X126813169Y-24497463D01*
X126529002Y-24687337D01*
X126287337Y-24929002D01*
X126097463Y-25213169D01*
X125966675Y-25528919D01*
X125900000Y-25864117D01*
X125120000Y-25864117D01*
X125120000Y-23520000D01*
X207620000Y-23520000D01*
X207620001Y-83160000D01*
%TA.AperFunction,Conductor*%
D22*
G36*
X207620001Y-83160000D02*
G01*
X125120000Y-83160000D01*
X125120000Y-80474117D01*
X125900000Y-80474117D01*
X125900000Y-80815883D01*
X125966675Y-81151081D01*
X126097463Y-81466831D01*
X126287337Y-81750998D01*
X126529002Y-81992663D01*
X126813169Y-82182537D01*
X127128919Y-82313325D01*
X127464117Y-82380000D01*
X127805883Y-82380000D01*
X128141081Y-82313325D01*
X128456831Y-82182537D01*
X128740998Y-81992663D01*
X128982663Y-81750998D01*
X129172537Y-81466831D01*
X129303325Y-81151081D01*
X129370000Y-80815883D01*
X129370000Y-80474117D01*
X129303325Y-80138919D01*
X129172537Y-79823169D01*
X128982663Y-79539002D01*
X128740998Y-79297337D01*
X128456831Y-79107463D01*
X128141081Y-78976675D01*
X127805883Y-78910000D01*
X127464117Y-78910000D01*
X127128919Y-78976675D01*
X126813169Y-79107463D01*
X126529002Y-79297337D01*
X126287337Y-79539002D01*
X126097463Y-79823169D01*
X125966675Y-80138919D01*
X125900000Y-80474117D01*
X125120000Y-80474117D01*
X125120000Y-48730000D01*
X130641928Y-48730000D01*
X130641928Y-50330000D01*
X130654188Y-50454482D01*
X130690498Y-50574180D01*
X130749463Y-50684494D01*
X130828815Y-50781185D01*
X130925506Y-50860537D01*
X131035820Y-50919502D01*
X131155518Y-50955812D01*
X131280000Y-50968072D01*
X131320000Y-50968072D01*
X131320000Y-59652664D01*
X131316323Y-59690000D01*
X131320000Y-59727336D01*
X131320001Y-79807669D01*
X131316324Y-79845002D01*
X131320001Y-79882335D01*
X131330998Y-79993988D01*
X131344180Y-80037444D01*
X131374454Y-80137248D01*
X131445026Y-80269278D01*
X131516201Y-80356004D01*
X131540000Y-80385003D01*
X131568998Y-80408801D01*
X132906204Y-81746009D01*
X132929998Y-81775002D01*
X132958991Y-81798796D01*
X132958995Y-81798800D01*
X133029684Y-81856812D01*
X133045723Y-81869975D01*
X133177752Y-81940547D01*
X133321013Y-81984004D01*
X133432666Y-81995001D01*
X133432675Y-81995001D01*
X133469998Y-81998677D01*
X133507321Y-81995001D01*
X161297677Y-81995001D01*
X161334999Y-81998677D01*
X161372321Y-81995001D01*
X161372332Y-81995001D01*
X161483985Y-81984004D01*
X161627246Y-81940547D01*
X161759275Y-81869975D01*
X161875000Y-81775002D01*
X161898803Y-81745998D01*
X162146729Y-81498072D01*
X163410000Y-81498072D01*
X163534482Y-81485812D01*
X163654180Y-81449502D01*
X163764494Y-81390537D01*
X163861185Y-81311185D01*
X163940537Y-81214494D01*
X163999502Y-81104180D01*
X164021513Y-81031620D01*
X164153368Y-81163475D01*
X164396589Y-81325990D01*
X164666842Y-81437932D01*
X164953740Y-81495000D01*
X165246260Y-81495000D01*
X165533158Y-81437932D01*
X165803411Y-81325990D01*
X166046632Y-81163475D01*
X166253475Y-80956632D01*
X166370000Y-80782240D01*
X166486525Y-80956632D01*
X166693368Y-81163475D01*
X166936589Y-81325990D01*
X167206842Y-81437932D01*
X167493740Y-81495000D01*
X167786260Y-81495000D01*
X168073158Y-81437932D01*
X168343411Y-81325990D01*
X168586632Y-81163475D01*
X168793475Y-80956632D01*
X168915195Y-80774466D01*
X168984822Y-80891355D01*
X169179731Y-81107588D01*
X169413080Y-81281641D01*
X169675901Y-81406825D01*
X169823110Y-81451476D01*
X170053000Y-81330155D01*
X170053000Y-80137000D01*
X170307000Y-80137000D01*
X170307000Y-81330155D01*
X170536890Y-81451476D01*
X170684099Y-81406825D01*
X170946920Y-81281641D01*
X171180269Y-81107588D01*
X171375178Y-80891355D01*
X171450000Y-80765745D01*
X171524822Y-80891355D01*
X171719731Y-81107588D01*
X171953080Y-81281641D01*
X172215901Y-81406825D01*
X172363110Y-81451476D01*
X172593000Y-81330155D01*
X172593000Y-80137000D01*
X172847000Y-80137000D01*
X172847000Y-81330155D01*
X173076890Y-81451476D01*
X173224099Y-81406825D01*
X173486920Y-81281641D01*
X173720269Y-81107588D01*
X173915178Y-80891355D01*
X173933855Y-80860000D01*
X177581928Y-80860000D01*
X177594188Y-80984482D01*
X177630498Y-81104180D01*
X177689463Y-81214494D01*
X177768815Y-81311185D01*
X177865506Y-81390537D01*
X177975820Y-81449502D01*
X178095518Y-81485812D01*
X178220000Y-81498072D01*
X178784250Y-81495000D01*
X178943000Y-81336250D01*
X178943000Y-80137000D01*
X177743750Y-80137000D01*
X177585000Y-80295750D01*
X177581928Y-80860000D01*
X173933855Y-80860000D01*
X174064157Y-80641252D01*
X174161481Y-80366891D01*
X174040814Y-80137000D01*
X172847000Y-80137000D01*
X172593000Y-80137000D01*
X170307000Y-80137000D01*
X170053000Y-80137000D01*
X170033000Y-80137000D01*
X170033000Y-79883000D01*
X170053000Y-79883000D01*
X170053000Y-78689845D01*
X170307000Y-78689845D01*
X170307000Y-79883000D01*
X172593000Y-79883000D01*
X172593000Y-78689845D01*
X172847000Y-78689845D01*
X172847000Y-79883000D01*
X174040814Y-79883000D01*
X174161481Y-79653109D01*
X174064157Y-79378748D01*
X173933856Y-79160000D01*
X177581928Y-79160000D01*
X177585000Y-79724250D01*
X177743750Y-79883000D01*
X178943000Y-79883000D01*
X178943000Y-78683750D01*
X179197000Y-78683750D01*
X179197000Y-79883000D01*
X179217000Y-79883000D01*
X179217000Y-80137000D01*
X179197000Y-80137000D01*
X179197000Y-81336250D01*
X179355750Y-81495000D01*
X179920000Y-81498072D01*
X180044482Y-81485812D01*
X180164180Y-81449502D01*
X180274494Y-81390537D01*
X180371185Y-81311185D01*
X180450537Y-81214494D01*
X180509502Y-81104180D01*
X180531513Y-81031620D01*
X180663368Y-81163475D01*
X180906589Y-81325990D01*
X181176842Y-81437932D01*
X181463740Y-81495000D01*
X181756260Y-81495000D01*
X182043158Y-81437932D01*
X182313411Y-81325990D01*
X182556632Y-81163475D01*
X182763475Y-80956632D01*
X182880000Y-80782240D01*
X182996525Y-80956632D01*
X183203368Y-81163475D01*
X183446589Y-81325990D01*
X183716842Y-81437932D01*
X184003740Y-81495000D01*
X184296260Y-81495000D01*
X184583158Y-81437932D01*
X184853411Y-81325990D01*
X185096632Y-81163475D01*
X185303475Y-80956632D01*
X185368042Y-80860000D01*
X191551928Y-80860000D01*
X191564188Y-80984482D01*
X191600498Y-81104180D01*
X191659463Y-81214494D01*
X191738815Y-81311185D01*
X191835506Y-81390537D01*
X191945820Y-81449502D01*
X192065518Y-81485812D01*
X192190000Y-81498072D01*
X192754250Y-81495000D01*
X192913000Y-81336250D01*
X192913000Y-80137000D01*
X191713750Y-80137000D01*
X191555000Y-80295750D01*
X191551928Y-80860000D01*
X185368042Y-80860000D01*
X185465990Y-80713411D01*
X185577932Y-80443158D01*
X185635000Y-80156260D01*
X185635000Y-79863740D01*
X185577932Y-79576842D01*
X185465990Y-79306589D01*
X185368043Y-79160000D01*
X191551928Y-79160000D01*
X191555000Y-79724250D01*
X191713750Y-79883000D01*
X192913000Y-79883000D01*
X192913000Y-78683750D01*
X193167000Y-78683750D01*
X193167000Y-79883000D01*
X193187000Y-79883000D01*
X193187000Y-80137000D01*
X193167000Y-80137000D01*
X193167000Y-81336250D01*
X193325750Y-81495000D01*
X193890000Y-81498072D01*
X194014482Y-81485812D01*
X194134180Y-81449502D01*
X194244494Y-81390537D01*
X194341185Y-81311185D01*
X194420537Y-81214494D01*
X194479502Y-81104180D01*
X194501513Y-81031620D01*
X194633368Y-81163475D01*
X194876589Y-81325990D01*
X195146842Y-81437932D01*
X195433740Y-81495000D01*
X195726260Y-81495000D01*
X196013158Y-81437932D01*
X196283411Y-81325990D01*
X196526632Y-81163475D01*
X196733475Y-80956632D01*
X196850000Y-80782240D01*
X196966525Y-80956632D01*
X197173368Y-81163475D01*
X197416589Y-81325990D01*
X197686842Y-81437932D01*
X197973740Y-81495000D01*
X198266260Y-81495000D01*
X198553158Y-81437932D01*
X198823411Y-81325990D01*
X199066632Y-81163475D01*
X199273475Y-80956632D01*
X199435990Y-80713411D01*
X199535108Y-80474117D01*
X203370000Y-80474117D01*
X203370000Y-80815883D01*
X203436675Y-81151081D01*
X203567463Y-81466831D01*
X203757337Y-81750998D01*
X203999002Y-81992663D01*
X204283169Y-82182537D01*
X204598919Y-82313325D01*
X204934117Y-82380000D01*
X205275883Y-82380000D01*
X205611081Y-82313325D01*
X205926831Y-82182537D01*
X206210998Y-81992663D01*
X206452663Y-81750998D01*
X206642537Y-81466831D01*
X206773325Y-81151081D01*
X206840000Y-80815883D01*
X206840000Y-80474117D01*
X206773325Y-80138919D01*
X206642537Y-79823169D01*
X206452663Y-79539002D01*
X206210998Y-79297337D01*
X205926831Y-79107463D01*
X205611081Y-78976675D01*
X205275883Y-78910000D01*
X204934117Y-78910000D01*
X204598919Y-78976675D01*
X204283169Y-79107463D01*
X203999002Y-79297337D01*
X203757337Y-79539002D01*
X203567463Y-79823169D01*
X203436675Y-80138919D01*
X203370000Y-80474117D01*
X199535108Y-80474117D01*
X199547932Y-80443158D01*
X199605000Y-80156260D01*
X199605000Y-79863740D01*
X199547932Y-79576842D01*
X199435990Y-79306589D01*
X199273475Y-79063368D01*
X199066632Y-78856525D01*
X198823411Y-78694010D01*
X198553158Y-78582068D01*
X198266260Y-78525000D01*
X197973740Y-78525000D01*
X197686842Y-78582068D01*
X197416589Y-78694010D01*
X197173368Y-78856525D01*
X196966525Y-79063368D01*
X196850000Y-79237760D01*
X196733475Y-79063368D01*
X196526632Y-78856525D01*
X196283411Y-78694010D01*
X196013158Y-78582068D01*
X195726260Y-78525000D01*
X195433740Y-78525000D01*
X195146842Y-78582068D01*
X194876589Y-78694010D01*
X194633368Y-78856525D01*
X194501513Y-78988380D01*
X194479502Y-78915820D01*
X194420537Y-78805506D01*
X194341185Y-78708815D01*
X194244494Y-78629463D01*
X194134180Y-78570498D01*
X194014482Y-78534188D01*
X193890000Y-78521928D01*
X193325750Y-78525000D01*
X193167000Y-78683750D01*
X192913000Y-78683750D01*
X192754250Y-78525000D01*
X192190000Y-78521928D01*
X192065518Y-78534188D01*
X191945820Y-78570498D01*
X191835506Y-78629463D01*
X191738815Y-78708815D01*
X191659463Y-78805506D01*
X191600498Y-78915820D01*
X191564188Y-79035518D01*
X191551928Y-79160000D01*
X185368043Y-79160000D01*
X185303475Y-79063368D01*
X185096632Y-78856525D01*
X184853411Y-78694010D01*
X184583158Y-78582068D01*
X184296260Y-78525000D01*
X184003740Y-78525000D01*
X183716842Y-78582068D01*
X183446589Y-78694010D01*
X183203368Y-78856525D01*
X182996525Y-79063368D01*
X182880000Y-79237760D01*
X182763475Y-79063368D01*
X182556632Y-78856525D01*
X182313411Y-78694010D01*
X182043158Y-78582068D01*
X181756260Y-78525000D01*
X181463740Y-78525000D01*
X181176842Y-78582068D01*
X180906589Y-78694010D01*
X180663368Y-78856525D01*
X180531513Y-78988380D01*
X180509502Y-78915820D01*
X180450537Y-78805506D01*
X180371185Y-78708815D01*
X180274494Y-78629463D01*
X180164180Y-78570498D01*
X180044482Y-78534188D01*
X179920000Y-78521928D01*
X179355750Y-78525000D01*
X179197000Y-78683750D01*
X178943000Y-78683750D01*
X178784250Y-78525000D01*
X178220000Y-78521928D01*
X178095518Y-78534188D01*
X177975820Y-78570498D01*
X177865506Y-78629463D01*
X177768815Y-78708815D01*
X177689463Y-78805506D01*
X177630498Y-78915820D01*
X177594188Y-79035518D01*
X177581928Y-79160000D01*
X173933856Y-79160000D01*
X173915178Y-79128645D01*
X173720269Y-78912412D01*
X173486920Y-78738359D01*
X173224099Y-78613175D01*
X173076890Y-78568524D01*
X172847000Y-78689845D01*
X172593000Y-78689845D01*
X172363110Y-78568524D01*
X172215901Y-78613175D01*
X171953080Y-78738359D01*
X171719731Y-78912412D01*
X171524822Y-79128645D01*
X171450000Y-79254255D01*
X171375178Y-79128645D01*
X171180269Y-78912412D01*
X170946920Y-78738359D01*
X170684099Y-78613175D01*
X170536890Y-78568524D01*
X170307000Y-78689845D01*
X170053000Y-78689845D01*
X169823110Y-78568524D01*
X169675901Y-78613175D01*
X169413080Y-78738359D01*
X169179731Y-78912412D01*
X168984822Y-79128645D01*
X168915195Y-79245534D01*
X168793475Y-79063368D01*
X168586632Y-78856525D01*
X168343411Y-78694010D01*
X168073158Y-78582068D01*
X167786260Y-78525000D01*
X167493740Y-78525000D01*
X167206842Y-78582068D01*
X166936589Y-78694010D01*
X166693368Y-78856525D01*
X166486525Y-79063368D01*
X166370000Y-79237760D01*
X166253475Y-79063368D01*
X166046632Y-78856525D01*
X165803411Y-78694010D01*
X165533158Y-78582068D01*
X165246260Y-78525000D01*
X164953740Y-78525000D01*
X164666842Y-78582068D01*
X164396589Y-78694010D01*
X164153368Y-78856525D01*
X164021513Y-78988380D01*
X163999502Y-78915820D01*
X163940537Y-78805506D01*
X163861185Y-78708815D01*
X163764494Y-78629463D01*
X163654180Y-78570498D01*
X163534482Y-78534188D01*
X163410000Y-78521928D01*
X161710000Y-78521928D01*
X161585518Y-78534188D01*
X161465820Y-78570498D01*
X161355506Y-78629463D01*
X161258815Y-78708815D01*
X161179463Y-78805506D01*
X161120498Y-78915820D01*
X161084188Y-79035518D01*
X161071928Y-79160000D01*
X161071928Y-80423271D01*
X161020198Y-80475001D01*
X156354742Y-80475001D01*
X156367932Y-80443158D01*
X156425000Y-80156260D01*
X156425000Y-79863740D01*
X156367932Y-79576842D01*
X156255990Y-79306589D01*
X156093475Y-79063368D01*
X155886632Y-78856525D01*
X155712240Y-78740000D01*
X155886632Y-78623475D01*
X156093475Y-78416632D01*
X156255990Y-78173411D01*
X156367932Y-77903158D01*
X156425000Y-77616260D01*
X156425000Y-77323740D01*
X156367932Y-77036842D01*
X156255990Y-76766589D01*
X156093475Y-76523368D01*
X155886632Y-76316525D01*
X155643411Y-76154010D01*
X155373158Y-76042068D01*
X155086260Y-75985000D01*
X154793740Y-75985000D01*
X154506842Y-76042068D01*
X154236589Y-76154010D01*
X153993368Y-76316525D01*
X153786525Y-76523368D01*
X153670000Y-76697760D01*
X153553475Y-76523368D01*
X153346632Y-76316525D01*
X153103411Y-76154010D01*
X152833158Y-76042068D01*
X152546260Y-75985000D01*
X152253740Y-75985000D01*
X151966842Y-76042068D01*
X151696589Y-76154010D01*
X151453368Y-76316525D01*
X151246525Y-76523368D01*
X151130000Y-76697760D01*
X151013475Y-76523368D01*
X150806632Y-76316525D01*
X150563411Y-76154010D01*
X150293158Y-76042068D01*
X150006260Y-75985000D01*
X149713740Y-75985000D01*
X149426842Y-76042068D01*
X149156589Y-76154010D01*
X148913368Y-76316525D01*
X148706525Y-76523368D01*
X148544010Y-76766589D01*
X148432068Y-77036842D01*
X148375000Y-77323740D01*
X148375000Y-77616260D01*
X148432068Y-77903158D01*
X148544010Y-78173411D01*
X148706525Y-78416632D01*
X148838380Y-78548487D01*
X148765820Y-78570498D01*
X148655506Y-78629463D01*
X148558815Y-78708815D01*
X148479463Y-78805506D01*
X148420498Y-78915820D01*
X148384188Y-79035518D01*
X148371928Y-79160000D01*
X148371928Y-80475001D01*
X141103131Y-80475001D01*
X141141481Y-80366891D01*
X141020814Y-80137000D01*
X139827000Y-80137000D01*
X139827000Y-80157000D01*
X139573000Y-80157000D01*
X139573000Y-80137000D01*
X139553000Y-80137000D01*
X139553000Y-79883000D01*
X139573000Y-79883000D01*
X139573000Y-78689845D01*
X139827000Y-78689845D01*
X139827000Y-79883000D01*
X141020814Y-79883000D01*
X141141481Y-79653109D01*
X141044157Y-79378748D01*
X140895178Y-79128645D01*
X140700269Y-78912412D01*
X140466920Y-78738359D01*
X140204099Y-78613175D01*
X140056890Y-78568524D01*
X139827000Y-78689845D01*
X139573000Y-78689845D01*
X139343110Y-78568524D01*
X139195901Y-78613175D01*
X138933080Y-78738359D01*
X138699731Y-78912412D01*
X138504822Y-79128645D01*
X138435195Y-79245534D01*
X138313475Y-79063368D01*
X138106632Y-78856525D01*
X137920000Y-78731822D01*
X137920000Y-78674239D01*
X151228130Y-65366110D01*
X151361484Y-65565688D01*
X151547712Y-65751916D01*
X151766693Y-65898234D01*
X151972302Y-65983400D01*
X151766693Y-66068566D01*
X151547712Y-66214884D01*
X151361484Y-66401112D01*
X151215166Y-66620093D01*
X151114380Y-66863412D01*
X151063000Y-67121717D01*
X151063000Y-67385083D01*
X151114380Y-67643388D01*
X151215166Y-67886707D01*
X151361484Y-68105688D01*
X151547712Y-68291916D01*
X151766693Y-68438234D01*
X152010012Y-68539020D01*
X152268317Y-68590400D01*
X152531683Y-68590400D01*
X152789988Y-68539020D01*
X153033307Y-68438234D01*
X153252288Y-68291916D01*
X153368106Y-68176098D01*
X166896907Y-68176098D01*
X166956610Y-68410071D01*
X167195397Y-68521169D01*
X167451269Y-68583547D01*
X167714395Y-68594808D01*
X167974661Y-68554520D01*
X168222067Y-68464231D01*
X168323390Y-68410071D01*
X168364470Y-68249080D01*
X173835525Y-68249080D01*
X173919208Y-68503261D01*
X174191775Y-68634158D01*
X174484642Y-68709365D01*
X174786553Y-68725991D01*
X175085907Y-68683397D01*
X175371199Y-68583222D01*
X175520792Y-68503261D01*
X175604475Y-68249080D01*
X174720000Y-67364605D01*
X173835525Y-68249080D01*
X168364470Y-68249080D01*
X168383093Y-68176098D01*
X167640000Y-67433005D01*
X166896907Y-68176098D01*
X153368106Y-68176098D01*
X153438516Y-68105688D01*
X153584834Y-67886707D01*
X153685620Y-67643388D01*
X153737000Y-67385083D01*
X153737000Y-67327795D01*
X166298592Y-67327795D01*
X166338880Y-67588061D01*
X166429169Y-67835467D01*
X166483329Y-67936790D01*
X166717302Y-67996493D01*
X167460395Y-67253400D01*
X167819605Y-67253400D01*
X168562698Y-67996493D01*
X168796671Y-67936790D01*
X168907769Y-67698003D01*
X168970147Y-67442131D01*
X168978303Y-67251553D01*
X173179009Y-67251553D01*
X173221603Y-67550907D01*
X173321778Y-67836199D01*
X173401739Y-67985792D01*
X173655920Y-68069475D01*
X174540395Y-67185000D01*
X174899605Y-67185000D01*
X175784080Y-68069475D01*
X175965049Y-68009895D01*
X176067688Y-68163505D01*
X176281495Y-68377312D01*
X176532905Y-68545299D01*
X176812257Y-68661011D01*
X177108816Y-68720000D01*
X177411184Y-68720000D01*
X177707743Y-68661011D01*
X177987095Y-68545299D01*
X178238505Y-68377312D01*
X178452312Y-68163505D01*
X178530000Y-68047237D01*
X178607688Y-68163505D01*
X178821495Y-68377312D01*
X179072905Y-68545299D01*
X179352257Y-68661011D01*
X179648816Y-68720000D01*
X179951184Y-68720000D01*
X180247743Y-68661011D01*
X180527095Y-68545299D01*
X180778505Y-68377312D01*
X180992312Y-68163505D01*
X181070000Y-68047237D01*
X181147688Y-68163505D01*
X181361495Y-68377312D01*
X181612905Y-68545299D01*
X181892257Y-68661011D01*
X182188816Y-68720000D01*
X182491184Y-68720000D01*
X182787743Y-68661011D01*
X183067095Y-68545299D01*
X183318505Y-68377312D01*
X183532312Y-68163505D01*
X183700299Y-67912095D01*
X183816011Y-67632743D01*
X183875000Y-67336184D01*
X183875000Y-67033816D01*
X183816011Y-66737257D01*
X183700299Y-66457905D01*
X183532312Y-66206495D01*
X183318505Y-65992688D01*
X183067095Y-65824701D01*
X182787743Y-65708989D01*
X182491184Y-65650000D01*
X182188816Y-65650000D01*
X181892257Y-65708989D01*
X181612905Y-65824701D01*
X181361495Y-65992688D01*
X181147688Y-66206495D01*
X181070000Y-66322763D01*
X180992312Y-66206495D01*
X180778505Y-65992688D01*
X180527095Y-65824701D01*
X180247743Y-65708989D01*
X179951184Y-65650000D01*
X179648816Y-65650000D01*
X179352257Y-65708989D01*
X179072905Y-65824701D01*
X178821495Y-65992688D01*
X178607688Y-66206495D01*
X178530000Y-66322763D01*
X178452312Y-66206495D01*
X178238505Y-65992688D01*
X177987095Y-65824701D01*
X177707743Y-65708989D01*
X177411184Y-65650000D01*
X177108816Y-65650000D01*
X176812257Y-65708989D01*
X176532905Y-65824701D01*
X176281495Y-65992688D01*
X176067688Y-66206495D01*
X175965049Y-66360105D01*
X175784080Y-66300525D01*
X174899605Y-67185000D01*
X174540395Y-67185000D01*
X173655920Y-66300525D01*
X173401739Y-66384208D01*
X173270842Y-66656775D01*
X173195635Y-66949642D01*
X173179009Y-67251553D01*
X168978303Y-67251553D01*
X168981408Y-67179005D01*
X168941120Y-66918739D01*
X168850831Y-66671333D01*
X168796671Y-66570010D01*
X168562698Y-66510307D01*
X167819605Y-67253400D01*
X167460395Y-67253400D01*
X166717302Y-66510307D01*
X166483329Y-66570010D01*
X166372231Y-66808797D01*
X166309853Y-67064669D01*
X166298592Y-67327795D01*
X153737000Y-67327795D01*
X153737000Y-67121717D01*
X153685620Y-66863412D01*
X153584834Y-66620093D01*
X153438516Y-66401112D01*
X153252288Y-66214884D01*
X153033307Y-66068566D01*
X152827698Y-65983400D01*
X153033307Y-65898234D01*
X153252288Y-65751916D01*
X153438516Y-65565688D01*
X153584834Y-65346707D01*
X153670000Y-65141098D01*
X153755166Y-65346707D01*
X153901484Y-65565688D01*
X154087712Y-65751916D01*
X154306693Y-65898234D01*
X154550012Y-65999020D01*
X154808317Y-66050400D01*
X155071683Y-66050400D01*
X155329988Y-65999020D01*
X155573307Y-65898234D01*
X155635554Y-65856642D01*
X157463000Y-65856642D01*
X157463000Y-66110158D01*
X157512459Y-66358804D01*
X157609476Y-66593023D01*
X157750322Y-66803815D01*
X157929585Y-66983078D01*
X158140377Y-67123924D01*
X158374596Y-67220941D01*
X158623242Y-67270400D01*
X158876758Y-67270400D01*
X159125404Y-67220941D01*
X159359623Y-67123924D01*
X159570415Y-66983078D01*
X159749678Y-66803815D01*
X159890524Y-66593023D01*
X159987541Y-66358804D01*
X160020000Y-66195622D01*
X160052459Y-66358804D01*
X160149476Y-66593023D01*
X160290322Y-66803815D01*
X160469585Y-66983078D01*
X160680377Y-67123924D01*
X160914596Y-67220941D01*
X161163242Y-67270400D01*
X161416758Y-67270400D01*
X161665404Y-67220941D01*
X161899623Y-67123924D01*
X162110415Y-66983078D01*
X162289678Y-66803815D01*
X162430524Y-66593023D01*
X162527541Y-66358804D01*
X162577000Y-66110158D01*
X162577000Y-65856642D01*
X162527541Y-65607996D01*
X162430524Y-65373777D01*
X162289678Y-65162985D01*
X162110415Y-64983722D01*
X161899623Y-64842876D01*
X161665404Y-64745859D01*
X161416758Y-64696400D01*
X161163242Y-64696400D01*
X160914596Y-64745859D01*
X160680377Y-64842876D01*
X160469585Y-64983722D01*
X160290322Y-65162985D01*
X160149476Y-65373777D01*
X160052459Y-65607996D01*
X160020000Y-65771178D01*
X159987541Y-65607996D01*
X159890524Y-65373777D01*
X159749678Y-65162985D01*
X159570415Y-64983722D01*
X159359623Y-64842876D01*
X159125404Y-64745859D01*
X158876758Y-64696400D01*
X158623242Y-64696400D01*
X158374596Y-64745859D01*
X158140377Y-64842876D01*
X157929585Y-64983722D01*
X157750322Y-65162985D01*
X157609476Y-65373777D01*
X157512459Y-65607996D01*
X157463000Y-65856642D01*
X155635554Y-65856642D01*
X155792288Y-65751916D01*
X155978516Y-65565688D01*
X156124834Y-65346707D01*
X156225620Y-65103388D01*
X156277000Y-64845083D01*
X156277000Y-64581717D01*
X156225620Y-64323412D01*
X156124834Y-64080093D01*
X155978516Y-63861112D01*
X155792288Y-63674884D01*
X155573307Y-63528566D01*
X155329988Y-63427780D01*
X155071683Y-63376400D01*
X154808317Y-63376400D01*
X154550012Y-63427780D01*
X154306693Y-63528566D01*
X154087712Y-63674884D01*
X153901484Y-63861112D01*
X153755166Y-64080093D01*
X153670000Y-64285702D01*
X153584834Y-64080093D01*
X153438516Y-63861112D01*
X153252288Y-63674884D01*
X153033307Y-63528566D01*
X152827698Y-63443400D01*
X153033307Y-63358234D01*
X153252288Y-63211916D01*
X153438516Y-63025688D01*
X153584834Y-62806707D01*
X153685620Y-62563388D01*
X153737000Y-62305083D01*
X153737000Y-62041717D01*
X153685620Y-61783412D01*
X153584834Y-61540093D01*
X153438516Y-61321112D01*
X153252288Y-61134884D01*
X153033307Y-60988566D01*
X152827698Y-60903400D01*
X153033307Y-60818234D01*
X153252288Y-60671916D01*
X153438516Y-60485688D01*
X153584834Y-60266707D01*
X153685620Y-60023388D01*
X153737000Y-59765083D01*
X153737000Y-59501717D01*
X153685620Y-59243412D01*
X153584834Y-59000093D01*
X153438516Y-58781112D01*
X153252288Y-58594884D01*
X153033307Y-58448566D01*
X152827698Y-58363400D01*
X153033307Y-58278234D01*
X153252288Y-58131916D01*
X153438516Y-57945688D01*
X153584834Y-57726707D01*
X153685620Y-57483388D01*
X153737000Y-57225083D01*
X153737000Y-56961717D01*
X153685620Y-56703412D01*
X153584834Y-56460093D01*
X153438516Y-56241112D01*
X153252288Y-56054884D01*
X153033307Y-55908566D01*
X152827698Y-55823400D01*
X153033307Y-55738234D01*
X153252288Y-55591916D01*
X153438516Y-55405688D01*
X153584834Y-55186707D01*
X153685620Y-54943388D01*
X153737000Y-54685083D01*
X153737000Y-54421717D01*
X153685620Y-54163412D01*
X153584834Y-53920093D01*
X153438516Y-53701112D01*
X153252288Y-53514884D01*
X153033307Y-53368566D01*
X152827698Y-53283400D01*
X153033307Y-53198234D01*
X153252288Y-53051916D01*
X153438516Y-52865688D01*
X153584834Y-52646707D01*
X153685620Y-52403388D01*
X153737000Y-52145083D01*
X153737000Y-51881717D01*
X153685620Y-51623412D01*
X153584834Y-51380093D01*
X153438516Y-51161112D01*
X153252288Y-50974884D01*
X153033307Y-50828566D01*
X152827698Y-50743400D01*
X153033307Y-50658234D01*
X153252288Y-50511916D01*
X153438516Y-50325688D01*
X153584834Y-50106707D01*
X153685620Y-49863388D01*
X153737000Y-49605083D01*
X153737000Y-49341717D01*
X153685620Y-49083412D01*
X153584834Y-48840093D01*
X153438516Y-48621112D01*
X153252288Y-48434884D01*
X153033307Y-48288566D01*
X152827698Y-48203400D01*
X153033307Y-48118234D01*
X153252288Y-47971916D01*
X153438516Y-47785688D01*
X153584834Y-47566707D01*
X153685620Y-47323388D01*
X153737000Y-47065083D01*
X153737000Y-46801717D01*
X153685620Y-46543412D01*
X153584834Y-46300093D01*
X153538267Y-46230401D01*
X166501733Y-46230401D01*
X166455166Y-46300093D01*
X166354380Y-46543412D01*
X166303000Y-46801717D01*
X166303000Y-47065083D01*
X166354380Y-47323388D01*
X166455166Y-47566707D01*
X166601484Y-47785688D01*
X166787712Y-47971916D01*
X167006693Y-48118234D01*
X167212302Y-48203400D01*
X167006693Y-48288566D01*
X166787712Y-48434884D01*
X166601484Y-48621112D01*
X166455166Y-48840093D01*
X166354380Y-49083412D01*
X166303000Y-49341717D01*
X166303000Y-49605083D01*
X166354380Y-49863388D01*
X166455166Y-50106707D01*
X166601484Y-50325688D01*
X166787712Y-50511916D01*
X167006693Y-50658234D01*
X167212302Y-50743400D01*
X167006693Y-50828566D01*
X166787712Y-50974884D01*
X166601484Y-51161112D01*
X166455166Y-51380093D01*
X166354380Y-51623412D01*
X166303000Y-51881717D01*
X166303000Y-52145083D01*
X166354380Y-52403388D01*
X166455166Y-52646707D01*
X166601484Y-52865688D01*
X166787712Y-53051916D01*
X167006693Y-53198234D01*
X167212302Y-53283400D01*
X167006693Y-53368566D01*
X166787712Y-53514884D01*
X166601484Y-53701112D01*
X166455166Y-53920093D01*
X166354380Y-54163412D01*
X166303000Y-54421717D01*
X166303000Y-54685083D01*
X166354380Y-54943388D01*
X166455166Y-55186707D01*
X166601484Y-55405688D01*
X166787712Y-55591916D01*
X167006693Y-55738234D01*
X167212302Y-55823400D01*
X167006693Y-55908566D01*
X166787712Y-56054884D01*
X166601484Y-56241112D01*
X166455166Y-56460093D01*
X166354380Y-56703412D01*
X166303000Y-56961717D01*
X166303000Y-57225083D01*
X166354380Y-57483388D01*
X166455166Y-57726707D01*
X166601484Y-57945688D01*
X166787712Y-58131916D01*
X167006693Y-58278234D01*
X167212302Y-58363400D01*
X167006693Y-58448566D01*
X166787712Y-58594884D01*
X166601484Y-58781112D01*
X166455166Y-59000093D01*
X166354380Y-59243412D01*
X166303000Y-59501717D01*
X166303000Y-59765083D01*
X166354380Y-60023388D01*
X166455166Y-60266707D01*
X166601484Y-60485688D01*
X166787712Y-60671916D01*
X167006693Y-60818234D01*
X167212302Y-60903400D01*
X167006693Y-60988566D01*
X166787712Y-61134884D01*
X166601484Y-61321112D01*
X166455166Y-61540093D01*
X166354380Y-61783412D01*
X166303000Y-62041717D01*
X166303000Y-62305083D01*
X166354380Y-62563388D01*
X166455166Y-62806707D01*
X166601484Y-63025688D01*
X166787712Y-63211916D01*
X167006693Y-63358234D01*
X167212302Y-63443400D01*
X167006693Y-63528566D01*
X166787712Y-63674884D01*
X166601484Y-63861112D01*
X166455166Y-64080093D01*
X166354380Y-64323412D01*
X166303000Y-64581717D01*
X166303000Y-64845083D01*
X166354380Y-65103388D01*
X166455166Y-65346707D01*
X166601484Y-65565688D01*
X166787712Y-65751916D01*
X167006693Y-65898234D01*
X167215938Y-65984906D01*
X167057933Y-66042569D01*
X166956610Y-66096729D01*
X166896907Y-66330702D01*
X167640000Y-67073795D01*
X168383093Y-66330702D01*
X168329563Y-66120920D01*
X173835525Y-66120920D01*
X174720000Y-67005395D01*
X175604475Y-66120920D01*
X175520792Y-65866739D01*
X175248225Y-65735842D01*
X174955358Y-65660635D01*
X174653447Y-65644009D01*
X174354093Y-65686603D01*
X174068801Y-65786778D01*
X173919208Y-65866739D01*
X173835525Y-66120920D01*
X168329563Y-66120920D01*
X168323390Y-66096729D01*
X168084603Y-65985631D01*
X168070571Y-65982210D01*
X168273307Y-65898234D01*
X168492288Y-65751916D01*
X168678516Y-65565688D01*
X168824834Y-65346707D01*
X168925620Y-65103388D01*
X168977000Y-64845083D01*
X168977000Y-64581717D01*
X168925620Y-64323412D01*
X168824834Y-64080093D01*
X168678516Y-63861112D01*
X168492288Y-63674884D01*
X168273307Y-63528566D01*
X168067698Y-63443400D01*
X168273307Y-63358234D01*
X168492288Y-63211916D01*
X168678516Y-63025688D01*
X168824834Y-62806707D01*
X168925620Y-62563388D01*
X168977000Y-62305083D01*
X168977000Y-62041717D01*
X168925620Y-61783412D01*
X168824834Y-61540093D01*
X168678516Y-61321112D01*
X168492288Y-61134884D01*
X168273307Y-60988566D01*
X168067698Y-60903400D01*
X168273307Y-60818234D01*
X168492288Y-60671916D01*
X168678516Y-60485688D01*
X168824834Y-60266707D01*
X168925620Y-60023388D01*
X168977000Y-59765083D01*
X168977000Y-59501717D01*
X168925620Y-59243412D01*
X168824834Y-59000093D01*
X168678516Y-58781112D01*
X168492288Y-58594884D01*
X168273307Y-58448566D01*
X168067698Y-58363400D01*
X168273307Y-58278234D01*
X168492288Y-58131916D01*
X168678516Y-57945688D01*
X168824834Y-57726707D01*
X168925620Y-57483388D01*
X168977000Y-57225083D01*
X168977000Y-56961717D01*
X168925620Y-56703412D01*
X168824834Y-56460093D01*
X168678516Y-56241112D01*
X168492288Y-56054884D01*
X168273307Y-55908566D01*
X168067698Y-55823400D01*
X168273307Y-55738234D01*
X168492288Y-55591916D01*
X168678516Y-55405688D01*
X168824834Y-55186707D01*
X168925620Y-54943388D01*
X168977000Y-54685083D01*
X168977000Y-54421717D01*
X168925620Y-54163412D01*
X168824834Y-53920093D01*
X168678516Y-53701112D01*
X168492288Y-53514884D01*
X168273307Y-53368566D01*
X168067698Y-53283400D01*
X168273307Y-53198234D01*
X168492288Y-53051916D01*
X168678516Y-52865688D01*
X168824834Y-52646707D01*
X168925620Y-52403388D01*
X168977000Y-52145083D01*
X168977000Y-51881717D01*
X168925620Y-51623412D01*
X168824834Y-51380093D01*
X168678516Y-51161112D01*
X168492288Y-50974884D01*
X168273307Y-50828566D01*
X168067698Y-50743400D01*
X168273307Y-50658234D01*
X168492288Y-50511916D01*
X168678516Y-50325688D01*
X168824834Y-50106707D01*
X168925620Y-49863388D01*
X168977000Y-49605083D01*
X168977000Y-49341717D01*
X168925620Y-49083412D01*
X168824834Y-48840093D01*
X168678516Y-48621112D01*
X168492288Y-48434884D01*
X168273307Y-48288566D01*
X168067698Y-48203400D01*
X168273307Y-48118234D01*
X168492288Y-47971916D01*
X168678516Y-47785688D01*
X168824834Y-47566707D01*
X168925620Y-47323388D01*
X168977000Y-47065083D01*
X168977000Y-46801717D01*
X168962734Y-46729999D01*
X187149436Y-46729999D01*
X187095000Y-47003665D01*
X187095000Y-47286335D01*
X187150147Y-47563574D01*
X187258320Y-47824727D01*
X187415363Y-48059759D01*
X187615241Y-48259637D01*
X187847759Y-48415000D01*
X187615241Y-48570363D01*
X187415363Y-48770241D01*
X187258320Y-49005273D01*
X187150147Y-49266426D01*
X187095000Y-49543665D01*
X187095000Y-49826335D01*
X187150147Y-50103574D01*
X187258320Y-50364727D01*
X187415363Y-50599759D01*
X187615241Y-50799637D01*
X187847759Y-50955000D01*
X187615241Y-51110363D01*
X187415363Y-51310241D01*
X187258320Y-51545273D01*
X187150147Y-51806426D01*
X187095000Y-52083665D01*
X187095000Y-52366335D01*
X187150147Y-52643574D01*
X187258320Y-52904727D01*
X187415363Y-53139759D01*
X187615241Y-53339637D01*
X187847759Y-53495000D01*
X187615241Y-53650363D01*
X187415363Y-53850241D01*
X187258320Y-54085273D01*
X187150147Y-54346426D01*
X187095000Y-54623665D01*
X187095000Y-54906335D01*
X187150147Y-55183574D01*
X187258320Y-55444727D01*
X187415363Y-55679759D01*
X187615241Y-55879637D01*
X187847759Y-56035000D01*
X187615241Y-56190363D01*
X187415363Y-56390241D01*
X187258320Y-56625273D01*
X187150147Y-56886426D01*
X187095000Y-57163665D01*
X187095000Y-57446335D01*
X187150147Y-57723574D01*
X187258320Y-57984727D01*
X187415363Y-58219759D01*
X187615241Y-58419637D01*
X187847759Y-58575000D01*
X187615241Y-58730363D01*
X187415363Y-58930241D01*
X187258320Y-59165273D01*
X187150147Y-59426426D01*
X187095000Y-59703665D01*
X187095000Y-59986335D01*
X187150147Y-60263574D01*
X187258320Y-60524727D01*
X187415363Y-60759759D01*
X187615241Y-60959637D01*
X187847759Y-61115000D01*
X187615241Y-61270363D01*
X187415363Y-61470241D01*
X187258320Y-61705273D01*
X187150147Y-61966426D01*
X187095000Y-62243665D01*
X187095000Y-62526335D01*
X187150147Y-62803574D01*
X187258320Y-63064727D01*
X187415363Y-63299759D01*
X187615241Y-63499637D01*
X187847759Y-63655000D01*
X187615241Y-63810363D01*
X187415363Y-64010241D01*
X187258320Y-64245273D01*
X187150147Y-64506426D01*
X187095000Y-64783665D01*
X187095000Y-65066335D01*
X187150147Y-65343574D01*
X187258320Y-65604727D01*
X187415363Y-65839759D01*
X187615241Y-66039637D01*
X187850273Y-66196680D01*
X188111426Y-66304853D01*
X188388665Y-66360000D01*
X188671335Y-66360000D01*
X188948574Y-66304853D01*
X189209727Y-66196680D01*
X189444759Y-66039637D01*
X189644637Y-65839759D01*
X189801680Y-65604727D01*
X189909853Y-65343574D01*
X189965000Y-65066335D01*
X189965000Y-64783665D01*
X189909853Y-64506426D01*
X189801680Y-64245273D01*
X189644637Y-64010241D01*
X189444759Y-63810363D01*
X189212241Y-63655000D01*
X189444759Y-63499637D01*
X189644637Y-63299759D01*
X189801680Y-63064727D01*
X189909853Y-62803574D01*
X189965000Y-62526335D01*
X189965000Y-62243665D01*
X189909853Y-61966426D01*
X189801680Y-61705273D01*
X189644637Y-61470241D01*
X189444759Y-61270363D01*
X189212241Y-61115000D01*
X189444759Y-60959637D01*
X189644637Y-60759759D01*
X189801680Y-60524727D01*
X189909853Y-60263574D01*
X189965000Y-59986335D01*
X189965000Y-59703665D01*
X189909853Y-59426426D01*
X189801680Y-59165273D01*
X189644637Y-58930241D01*
X189444759Y-58730363D01*
X189212241Y-58575000D01*
X189444759Y-58419637D01*
X189644637Y-58219759D01*
X189801680Y-57984727D01*
X189909853Y-57723574D01*
X189965000Y-57446335D01*
X189965000Y-57163665D01*
X189909853Y-56886426D01*
X189801680Y-56625273D01*
X189644637Y-56390241D01*
X189444759Y-56190363D01*
X189212241Y-56035000D01*
X189444759Y-55879637D01*
X189644637Y-55679759D01*
X189801680Y-55444727D01*
X189909853Y-55183574D01*
X189965000Y-54906335D01*
X189965000Y-54623665D01*
X189909853Y-54346426D01*
X189801680Y-54085273D01*
X189644637Y-53850241D01*
X189444759Y-53650363D01*
X189212241Y-53495000D01*
X189444759Y-53339637D01*
X189644637Y-53139759D01*
X189801680Y-52904727D01*
X189909853Y-52643574D01*
X189965000Y-52366335D01*
X189965000Y-52083665D01*
X189909853Y-51806426D01*
X189801680Y-51545273D01*
X189644637Y-51310241D01*
X189444759Y-51110363D01*
X189212241Y-50955000D01*
X189444759Y-50799637D01*
X189644637Y-50599759D01*
X189801680Y-50364727D01*
X189909853Y-50103574D01*
X189965000Y-49826335D01*
X189965000Y-49543665D01*
X189909853Y-49266426D01*
X189801680Y-49005273D01*
X189644637Y-48770241D01*
X189444759Y-48570363D01*
X189212241Y-48415000D01*
X189444759Y-48259637D01*
X189644637Y-48059759D01*
X189801680Y-47824727D01*
X189909853Y-47563574D01*
X189965000Y-47286335D01*
X189965000Y-47003665D01*
X189910564Y-46729999D01*
X202280198Y-46729999D01*
X202371312Y-46821114D01*
X202335000Y-47003665D01*
X202335000Y-47286335D01*
X202390147Y-47563574D01*
X202498320Y-47824727D01*
X202655363Y-48059759D01*
X202855241Y-48259637D01*
X203087759Y-48415000D01*
X202855241Y-48570363D01*
X202655363Y-48770241D01*
X202498320Y-49005273D01*
X202390147Y-49266426D01*
X202335000Y-49543665D01*
X202335000Y-49826335D01*
X202390147Y-50103574D01*
X202498320Y-50364727D01*
X202655363Y-50599759D01*
X202855241Y-50799637D01*
X203087759Y-50955000D01*
X202855241Y-51110363D01*
X202655363Y-51310241D01*
X202498320Y-51545273D01*
X202390147Y-51806426D01*
X202335000Y-52083665D01*
X202335000Y-52366335D01*
X202390147Y-52643574D01*
X202498320Y-52904727D01*
X202655363Y-53139759D01*
X202855241Y-53339637D01*
X203087759Y-53495000D01*
X202855241Y-53650363D01*
X202655363Y-53850241D01*
X202498320Y-54085273D01*
X202390147Y-54346426D01*
X202335000Y-54623665D01*
X202335000Y-54906335D01*
X202390147Y-55183574D01*
X202498320Y-55444727D01*
X202655363Y-55679759D01*
X202855241Y-55879637D01*
X203087759Y-56035000D01*
X202855241Y-56190363D01*
X202655363Y-56390241D01*
X202498320Y-56625273D01*
X202390147Y-56886426D01*
X202335000Y-57163665D01*
X202335000Y-57446335D01*
X202390147Y-57723574D01*
X202498320Y-57984727D01*
X202655363Y-58219759D01*
X202855241Y-58419637D01*
X203087759Y-58575000D01*
X202855241Y-58730363D01*
X202655363Y-58930241D01*
X202498320Y-59165273D01*
X202390147Y-59426426D01*
X202335000Y-59703665D01*
X202335000Y-59986335D01*
X202390147Y-60263574D01*
X202498320Y-60524727D01*
X202655363Y-60759759D01*
X202855241Y-60959637D01*
X203087759Y-61115000D01*
X202855241Y-61270363D01*
X202655363Y-61470241D01*
X202498320Y-61705273D01*
X202390147Y-61966426D01*
X202335000Y-62243665D01*
X202335000Y-62526335D01*
X202390147Y-62803574D01*
X202498320Y-63064727D01*
X202655363Y-63299759D01*
X202855241Y-63499637D01*
X203087759Y-63655000D01*
X202855241Y-63810363D01*
X202655363Y-64010241D01*
X202498320Y-64245273D01*
X202390147Y-64506426D01*
X202335000Y-64783665D01*
X202335000Y-65066335D01*
X202390147Y-65343574D01*
X202498320Y-65604727D01*
X202655363Y-65839759D01*
X202855241Y-66039637D01*
X203090273Y-66196680D01*
X203351426Y-66304853D01*
X203628665Y-66360000D01*
X203911335Y-66360000D01*
X204188574Y-66304853D01*
X204449727Y-66196680D01*
X204684759Y-66039637D01*
X204884637Y-65839759D01*
X205041680Y-65604727D01*
X205149853Y-65343574D01*
X205205000Y-65066335D01*
X205205000Y-64783665D01*
X205149853Y-64506426D01*
X205041680Y-64245273D01*
X204884637Y-64010241D01*
X204684759Y-63810363D01*
X204452241Y-63655000D01*
X204684759Y-63499637D01*
X204884637Y-63299759D01*
X205041680Y-63064727D01*
X205149853Y-62803574D01*
X205205000Y-62526335D01*
X205205000Y-62243665D01*
X205149853Y-61966426D01*
X205041680Y-61705273D01*
X204884637Y-61470241D01*
X204684759Y-61270363D01*
X204452241Y-61115000D01*
X204684759Y-60959637D01*
X204884637Y-60759759D01*
X205041680Y-60524727D01*
X205149853Y-60263574D01*
X205205000Y-59986335D01*
X205205000Y-59703665D01*
X205149853Y-59426426D01*
X205041680Y-59165273D01*
X204884637Y-58930241D01*
X204684759Y-58730363D01*
X204452241Y-58575000D01*
X204684759Y-58419637D01*
X204884637Y-58219759D01*
X205041680Y-57984727D01*
X205149853Y-57723574D01*
X205205000Y-57446335D01*
X205205000Y-57163665D01*
X205149853Y-56886426D01*
X205041680Y-56625273D01*
X204884637Y-56390241D01*
X204684759Y-56190363D01*
X204452241Y-56035000D01*
X204684759Y-55879637D01*
X204884637Y-55679759D01*
X205041680Y-55444727D01*
X205149853Y-55183574D01*
X205205000Y-54906335D01*
X205205000Y-54623665D01*
X205149853Y-54346426D01*
X205041680Y-54085273D01*
X204884637Y-53850241D01*
X204684759Y-53650363D01*
X204452241Y-53495000D01*
X204684759Y-53339637D01*
X204884637Y-53139759D01*
X205041680Y-52904727D01*
X205149853Y-52643574D01*
X205205000Y-52366335D01*
X205205000Y-52083665D01*
X205149853Y-51806426D01*
X205041680Y-51545273D01*
X204884637Y-51310241D01*
X204684759Y-51110363D01*
X204452241Y-50955000D01*
X204684759Y-50799637D01*
X204884637Y-50599759D01*
X205041680Y-50364727D01*
X205149853Y-50103574D01*
X205205000Y-49826335D01*
X205205000Y-49543665D01*
X205149853Y-49266426D01*
X205041680Y-49005273D01*
X204884637Y-48770241D01*
X204684759Y-48570363D01*
X204452241Y-48415000D01*
X204684759Y-48259637D01*
X204884637Y-48059759D01*
X205041680Y-47824727D01*
X205149853Y-47563574D01*
X205205000Y-47286335D01*
X205205000Y-47003665D01*
X205149853Y-46726426D01*
X205041680Y-46465273D01*
X204884637Y-46230241D01*
X204684759Y-46030363D01*
X204452241Y-45875000D01*
X204684759Y-45719637D01*
X204884637Y-45519759D01*
X205041680Y-45284727D01*
X205149853Y-45023574D01*
X205205000Y-44746335D01*
X205205000Y-44463665D01*
X205149853Y-44186426D01*
X205041680Y-43925273D01*
X204884637Y-43690241D01*
X204684759Y-43490363D01*
X204452241Y-43335000D01*
X204684759Y-43179637D01*
X204884637Y-42979759D01*
X205041680Y-42744727D01*
X205149853Y-42483574D01*
X205205000Y-42206335D01*
X205205000Y-41923665D01*
X205149853Y-41646426D01*
X205041680Y-41385273D01*
X204884637Y-41150241D01*
X204684759Y-40950363D01*
X204452241Y-40795000D01*
X204684759Y-40639637D01*
X204884637Y-40439759D01*
X205041680Y-40204727D01*
X205149853Y-39943574D01*
X205205000Y-39666335D01*
X205205000Y-39383665D01*
X205149853Y-39106426D01*
X205041680Y-38845273D01*
X204884637Y-38610241D01*
X204684759Y-38410363D01*
X204452241Y-38255000D01*
X204684759Y-38099637D01*
X204884637Y-37899759D01*
X205041680Y-37664727D01*
X205149853Y-37403574D01*
X205205000Y-37126335D01*
X205205000Y-36843665D01*
X205149853Y-36566426D01*
X205041680Y-36305273D01*
X204884637Y-36070241D01*
X204684759Y-35870363D01*
X204452241Y-35715000D01*
X204684759Y-35559637D01*
X204884637Y-35359759D01*
X205041680Y-35124727D01*
X205149853Y-34863574D01*
X205205000Y-34586335D01*
X205205000Y-34303665D01*
X205149853Y-34026426D01*
X205041680Y-33765273D01*
X204884637Y-33530241D01*
X204684759Y-33330363D01*
X204449727Y-33173320D01*
X204439135Y-33168933D01*
X204625131Y-33057385D01*
X204833519Y-32868414D01*
X205001037Y-32642420D01*
X205121246Y-32388087D01*
X205161904Y-32254039D01*
X205039915Y-32032000D01*
X203897000Y-32032000D01*
X203897000Y-32052000D01*
X203643000Y-32052000D01*
X203643000Y-32032000D01*
X202500085Y-32032000D01*
X202378096Y-32254039D01*
X202418754Y-32388087D01*
X202538963Y-32642420D01*
X202706481Y-32868414D01*
X202914869Y-33057385D01*
X203100865Y-33168933D01*
X203090273Y-33173320D01*
X202855241Y-33330363D01*
X202655363Y-33530241D01*
X202498320Y-33765273D01*
X202390147Y-34026426D01*
X202335000Y-34303665D01*
X202335000Y-34586335D01*
X202390147Y-34863574D01*
X202498320Y-35124727D01*
X202655363Y-35359759D01*
X202855241Y-35559637D01*
X203087759Y-35715000D01*
X202855241Y-35870363D01*
X202655363Y-36070241D01*
X202498320Y-36305273D01*
X202390147Y-36566426D01*
X202335000Y-36843665D01*
X202335000Y-37126335D01*
X202390147Y-37403574D01*
X202498320Y-37664727D01*
X202655363Y-37899759D01*
X202855241Y-38099637D01*
X203087759Y-38255000D01*
X202855241Y-38410363D01*
X202655363Y-38610241D01*
X202498320Y-38845273D01*
X202390147Y-39106426D01*
X202335000Y-39383665D01*
X202335000Y-39666335D01*
X202390147Y-39943574D01*
X202498320Y-40204727D01*
X202655363Y-40439759D01*
X202855241Y-40639637D01*
X203087759Y-40795000D01*
X202855241Y-40950363D01*
X202655363Y-41150241D01*
X202498320Y-41385273D01*
X202390147Y-41646426D01*
X202335000Y-41923665D01*
X202335000Y-42206335D01*
X202389018Y-42477899D01*
X202367679Y-42480001D01*
X189910564Y-42480001D01*
X189965000Y-42206335D01*
X189965000Y-41923665D01*
X189909853Y-41646426D01*
X189801680Y-41385273D01*
X189644637Y-41150241D01*
X189444759Y-40950363D01*
X189212241Y-40795000D01*
X189444759Y-40639637D01*
X189644637Y-40439759D01*
X189801680Y-40204727D01*
X189909853Y-39943574D01*
X189965000Y-39666335D01*
X189965000Y-39383665D01*
X189909853Y-39106426D01*
X189801680Y-38845273D01*
X189644637Y-38610241D01*
X189444759Y-38410363D01*
X189212241Y-38255000D01*
X189444759Y-38099637D01*
X189644637Y-37899759D01*
X189801680Y-37664727D01*
X189909853Y-37403574D01*
X189965000Y-37126335D01*
X189965000Y-36843665D01*
X189909853Y-36566426D01*
X189801680Y-36305273D01*
X189644637Y-36070241D01*
X189444759Y-35870363D01*
X189212241Y-35715000D01*
X189444759Y-35559637D01*
X189644637Y-35359759D01*
X189801680Y-35124727D01*
X189909853Y-34863574D01*
X189965000Y-34586335D01*
X189965000Y-34303665D01*
X189909853Y-34026426D01*
X189801680Y-33765273D01*
X189644637Y-33530241D01*
X189444759Y-33330363D01*
X189212241Y-33175000D01*
X189444759Y-33019637D01*
X189644637Y-32819759D01*
X189801680Y-32584727D01*
X189909853Y-32323574D01*
X189965000Y-32046335D01*
X189965000Y-31763665D01*
X189909853Y-31486426D01*
X189801680Y-31225273D01*
X189644637Y-30990241D01*
X189446039Y-30791643D01*
X189454482Y-30790812D01*
X189574180Y-30754502D01*
X189684494Y-30695537D01*
X189781185Y-30616185D01*
X189860537Y-30519494D01*
X189919502Y-30409180D01*
X189955812Y-30289482D01*
X189968072Y-30165000D01*
X189968072Y-29223665D01*
X202335000Y-29223665D01*
X202335000Y-29506335D01*
X202390147Y-29783574D01*
X202498320Y-30044727D01*
X202655363Y-30279759D01*
X202855241Y-30479637D01*
X203090273Y-30636680D01*
X203100865Y-30641067D01*
X202914869Y-30752615D01*
X202706481Y-30941586D01*
X202538963Y-31167580D01*
X202418754Y-31421913D01*
X202378096Y-31555961D01*
X202500085Y-31778000D01*
X203643000Y-31778000D01*
X203643000Y-31758000D01*
X203897000Y-31758000D01*
X203897000Y-31778000D01*
X205039915Y-31778000D01*
X205161904Y-31555961D01*
X205121246Y-31421913D01*
X205001037Y-31167580D01*
X204833519Y-30941586D01*
X204625131Y-30752615D01*
X204439135Y-30641067D01*
X204449727Y-30636680D01*
X204684759Y-30479637D01*
X204884637Y-30279759D01*
X205041680Y-30044727D01*
X205149853Y-29783574D01*
X205205000Y-29506335D01*
X205205000Y-29223665D01*
X205149853Y-28946426D01*
X205041680Y-28685273D01*
X204884637Y-28450241D01*
X204684759Y-28250363D01*
X204449727Y-28093320D01*
X204188574Y-27985147D01*
X203911335Y-27930000D01*
X203628665Y-27930000D01*
X203351426Y-27985147D01*
X203090273Y-28093320D01*
X202855241Y-28250363D01*
X202655363Y-28450241D01*
X202498320Y-28685273D01*
X202390147Y-28946426D01*
X202335000Y-29223665D01*
X189968072Y-29223665D01*
X189968072Y-28565000D01*
X189955812Y-28440518D01*
X189919502Y-28320820D01*
X189860537Y-28210506D01*
X189781185Y-28113815D01*
X189684494Y-28034463D01*
X189574180Y-27975498D01*
X189454482Y-27939188D01*
X189330000Y-27926928D01*
X187730000Y-27926928D01*
X187605518Y-27939188D01*
X187485820Y-27975498D01*
X187375506Y-28034463D01*
X187278815Y-28113815D01*
X187199463Y-28210506D01*
X187140498Y-28320820D01*
X187104188Y-28440518D01*
X187091928Y-28565000D01*
X187091928Y-30165000D01*
X187098169Y-30228367D01*
X183823731Y-26953930D01*
X183875000Y-26696184D01*
X183875000Y-26393816D01*
X183816011Y-26097257D01*
X183719441Y-25864117D01*
X203370000Y-25864117D01*
X203370000Y-26205883D01*
X203436675Y-26541081D01*
X203567463Y-26856831D01*
X203757337Y-27140998D01*
X203999002Y-27382663D01*
X204283169Y-27572537D01*
X204598919Y-27703325D01*
X204934117Y-27770000D01*
X205275883Y-27770000D01*
X205611081Y-27703325D01*
X205926831Y-27572537D01*
X206210998Y-27382663D01*
X206452663Y-27140998D01*
X206642537Y-26856831D01*
X206773325Y-26541081D01*
X206840000Y-26205883D01*
X206840000Y-25864117D01*
X206773325Y-25528919D01*
X206642537Y-25213169D01*
X206452663Y-24929002D01*
X206210998Y-24687337D01*
X205926831Y-24497463D01*
X205611081Y-24366675D01*
X205275883Y-24300000D01*
X204934117Y-24300000D01*
X204598919Y-24366675D01*
X204283169Y-24497463D01*
X203999002Y-24687337D01*
X203757337Y-24929002D01*
X203567463Y-25213169D01*
X203436675Y-25528919D01*
X203370000Y-25864117D01*
X183719441Y-25864117D01*
X183700299Y-25817905D01*
X183532312Y-25566495D01*
X183318505Y-25352688D01*
X183067095Y-25184701D01*
X182787743Y-25068989D01*
X182491184Y-25010000D01*
X182188816Y-25010000D01*
X181892257Y-25068989D01*
X181612905Y-25184701D01*
X181361495Y-25352688D01*
X181147688Y-25566495D01*
X181045049Y-25720105D01*
X180864080Y-25660525D01*
X179979605Y-26545000D01*
X180864080Y-27429475D01*
X181045049Y-27369895D01*
X181147688Y-27523505D01*
X181361495Y-27737312D01*
X181612905Y-27905299D01*
X181892257Y-28021011D01*
X182188816Y-28080000D01*
X182491184Y-28080000D01*
X182748930Y-28028731D01*
X187136201Y-32416003D01*
X187159999Y-32445001D01*
X187221273Y-32495287D01*
X187258320Y-32584727D01*
X187415363Y-32819759D01*
X187615241Y-33019637D01*
X187847759Y-33175000D01*
X187615241Y-33330363D01*
X187415363Y-33530241D01*
X187258320Y-33765273D01*
X187150147Y-34026426D01*
X187095000Y-34303665D01*
X187095000Y-34586335D01*
X187150147Y-34863574D01*
X187258320Y-35124727D01*
X187415363Y-35359759D01*
X187615241Y-35559637D01*
X187847759Y-35715000D01*
X187615241Y-35870363D01*
X187415363Y-36070241D01*
X187258320Y-36305273D01*
X187150147Y-36566426D01*
X187095000Y-36843665D01*
X187095000Y-37126335D01*
X187150147Y-37403574D01*
X187258320Y-37664727D01*
X187415363Y-37899759D01*
X187615241Y-38099637D01*
X187847759Y-38255000D01*
X187615241Y-38410363D01*
X187415363Y-38610241D01*
X187258320Y-38845273D01*
X187150147Y-39106426D01*
X187095000Y-39383665D01*
X187095000Y-39666335D01*
X187150147Y-39943574D01*
X187258320Y-40204727D01*
X187415363Y-40439759D01*
X187615241Y-40639637D01*
X187847759Y-40795000D01*
X187615241Y-40950363D01*
X187415363Y-41150241D01*
X187258320Y-41385273D01*
X187150147Y-41646426D01*
X187095000Y-41923665D01*
X187095000Y-42206335D01*
X187149436Y-42480001D01*
X168827612Y-42480001D01*
X168925620Y-42243388D01*
X168977000Y-41985083D01*
X168977000Y-41721717D01*
X168925620Y-41463412D01*
X168824834Y-41220093D01*
X168678516Y-41001112D01*
X168492288Y-40814884D01*
X168273307Y-40668566D01*
X168067698Y-40583400D01*
X168273307Y-40498234D01*
X168492288Y-40351916D01*
X168678516Y-40165688D01*
X168824834Y-39946707D01*
X168925620Y-39703388D01*
X168977000Y-39445083D01*
X168977000Y-39181717D01*
X168925620Y-38923412D01*
X168824834Y-38680093D01*
X168678516Y-38461112D01*
X168492288Y-38274884D01*
X168273307Y-38128566D01*
X168067698Y-38043400D01*
X168273307Y-37958234D01*
X168492288Y-37811916D01*
X168678516Y-37625688D01*
X168824834Y-37406707D01*
X168925620Y-37163388D01*
X168977000Y-36905083D01*
X168977000Y-36641717D01*
X168925620Y-36383412D01*
X168824834Y-36140093D01*
X168678516Y-35921112D01*
X168492288Y-35734884D01*
X168273307Y-35588566D01*
X168067698Y-35503400D01*
X168273307Y-35418234D01*
X168492288Y-35271916D01*
X168678516Y-35085688D01*
X168824834Y-34866707D01*
X168925620Y-34623388D01*
X168977000Y-34365083D01*
X168977000Y-34101717D01*
X168925620Y-33843412D01*
X168824834Y-33600093D01*
X168678516Y-33381112D01*
X168492288Y-33194884D01*
X168273307Y-33048566D01*
X168029988Y-32947780D01*
X167771683Y-32896400D01*
X167508317Y-32896400D01*
X167250012Y-32947780D01*
X167006693Y-33048566D01*
X166787712Y-33194884D01*
X166601484Y-33381112D01*
X166455166Y-33600093D01*
X166370000Y-33805702D01*
X166284834Y-33600093D01*
X166138516Y-33381112D01*
X165952288Y-33194884D01*
X165733307Y-33048566D01*
X165489988Y-32947780D01*
X165231683Y-32896400D01*
X164968317Y-32896400D01*
X164710012Y-32947780D01*
X164466693Y-33048566D01*
X164247712Y-33194884D01*
X164061484Y-33381112D01*
X163915166Y-33600093D01*
X163830000Y-33805702D01*
X163744834Y-33600093D01*
X163598516Y-33381112D01*
X163412288Y-33194884D01*
X163193307Y-33048566D01*
X162949988Y-32947780D01*
X162691683Y-32896400D01*
X162428317Y-32896400D01*
X162170012Y-32947780D01*
X161926693Y-33048566D01*
X161707712Y-33194884D01*
X161521484Y-33381112D01*
X161375166Y-33600093D01*
X161290000Y-33805702D01*
X161204834Y-33600093D01*
X161058516Y-33381112D01*
X160872288Y-33194884D01*
X160653307Y-33048566D01*
X160409988Y-32947780D01*
X160151683Y-32896400D01*
X159888317Y-32896400D01*
X159630012Y-32947780D01*
X159386693Y-33048566D01*
X159167712Y-33194884D01*
X158981484Y-33381112D01*
X158835166Y-33600093D01*
X158750000Y-33805702D01*
X158664834Y-33600093D01*
X158518516Y-33381112D01*
X158332288Y-33194884D01*
X158113307Y-33048566D01*
X157869988Y-32947780D01*
X157611683Y-32896400D01*
X157348317Y-32896400D01*
X157090012Y-32947780D01*
X156846693Y-33048566D01*
X156627712Y-33194884D01*
X156441484Y-33381112D01*
X156295166Y-33600093D01*
X156210000Y-33805702D01*
X156124834Y-33600093D01*
X155978516Y-33381112D01*
X155792288Y-33194884D01*
X155573307Y-33048566D01*
X155329988Y-32947780D01*
X155071683Y-32896400D01*
X154808317Y-32896400D01*
X154550012Y-32947780D01*
X154306693Y-33048566D01*
X154087712Y-33194884D01*
X153901484Y-33381112D01*
X153755166Y-33600093D01*
X153670000Y-33805702D01*
X153584834Y-33600093D01*
X153438516Y-33381112D01*
X153252288Y-33194884D01*
X153033307Y-33048566D01*
X152789988Y-32947780D01*
X152531683Y-32896400D01*
X152268317Y-32896400D01*
X152010012Y-32947780D01*
X151766693Y-33048566D01*
X151547712Y-33194884D01*
X151361484Y-33381112D01*
X151215166Y-33600093D01*
X151114380Y-33843412D01*
X151063000Y-34101717D01*
X151063000Y-34365083D01*
X151114380Y-34623388D01*
X151215166Y-34866707D01*
X151361484Y-35085688D01*
X151547712Y-35271916D01*
X151766693Y-35418234D01*
X151972302Y-35503400D01*
X151766693Y-35588566D01*
X151547712Y-35734884D01*
X151361484Y-35921112D01*
X151215166Y-36140093D01*
X151114380Y-36383412D01*
X151063000Y-36641717D01*
X151063000Y-36905083D01*
X151084654Y-37013945D01*
X150123599Y-37975000D01*
X139768711Y-37975000D01*
X139724774Y-37931063D01*
X139555256Y-37817795D01*
X139366898Y-37739774D01*
X139166939Y-37700000D01*
X139049999Y-37700000D01*
X139049999Y-36014802D01*
X139104801Y-35960000D01*
X139166939Y-35960000D01*
X139366898Y-35920226D01*
X139555256Y-35842205D01*
X139724774Y-35728937D01*
X139868937Y-35584774D01*
X139982205Y-35415256D01*
X140060226Y-35226898D01*
X140100000Y-35026939D01*
X140100000Y-34823061D01*
X140060226Y-34623102D01*
X139982205Y-34434744D01*
X139868937Y-34265226D01*
X139724774Y-34121063D01*
X139555256Y-34007795D01*
X139366898Y-33929774D01*
X139166939Y-33890000D01*
X138963061Y-33890000D01*
X138763102Y-33929774D01*
X138574744Y-34007795D01*
X138405226Y-34121063D01*
X138261063Y-34265226D01*
X138147795Y-34434744D01*
X138069774Y-34623102D01*
X138030000Y-34823061D01*
X138030000Y-34885199D01*
X137779001Y-35136198D01*
X137749998Y-35160000D01*
X137703017Y-35217247D01*
X137655025Y-35275725D01*
X137610108Y-35359759D01*
X137584453Y-35407755D01*
X137540996Y-35551016D01*
X137529999Y-35662669D01*
X137529999Y-35662679D01*
X137526323Y-35700001D01*
X137529999Y-35737324D01*
X137530000Y-39069669D01*
X137526323Y-39107001D01*
X137540997Y-39255986D01*
X137584453Y-39399247D01*
X137655025Y-39531277D01*
X137695606Y-39580724D01*
X137749999Y-39647002D01*
X137778997Y-39670800D01*
X145552599Y-47444403D01*
X145576397Y-47473401D01*
X145605395Y-47497199D01*
X145692122Y-47568374D01*
X145824151Y-47638946D01*
X145967412Y-47682403D01*
X146116398Y-47697077D01*
X146153731Y-47693400D01*
X151299819Y-47693400D01*
X151361484Y-47785688D01*
X151547712Y-47971916D01*
X151766693Y-48118234D01*
X151972302Y-48203400D01*
X151766693Y-48288566D01*
X151547712Y-48434884D01*
X151361484Y-48621112D01*
X151215166Y-48840093D01*
X151114380Y-49083412D01*
X151063000Y-49341717D01*
X151063000Y-49605083D01*
X151114380Y-49863388D01*
X151215166Y-50106707D01*
X151361484Y-50325688D01*
X151547712Y-50511916D01*
X151766693Y-50658234D01*
X151972302Y-50743400D01*
X151766693Y-50828566D01*
X151547712Y-50974884D01*
X151361484Y-51161112D01*
X151215166Y-51380093D01*
X151114380Y-51623412D01*
X151063000Y-51881717D01*
X151063000Y-52145083D01*
X151114380Y-52403388D01*
X151215166Y-52646707D01*
X151361484Y-52865688D01*
X151547712Y-53051916D01*
X151766693Y-53198234D01*
X151972302Y-53283400D01*
X151766693Y-53368566D01*
X151547712Y-53514884D01*
X151361484Y-53701112D01*
X151215166Y-53920093D01*
X151114380Y-54163412D01*
X151063000Y-54421717D01*
X151063000Y-54685083D01*
X151114380Y-54943388D01*
X151215166Y-55186707D01*
X151361484Y-55405688D01*
X151547712Y-55591916D01*
X151766693Y-55738234D01*
X151802772Y-55753178D01*
X151784278Y-55755000D01*
X148538043Y-55755000D01*
X148434637Y-55600241D01*
X148234759Y-55400363D01*
X147999727Y-55243320D01*
X147738574Y-55135147D01*
X147461335Y-55080000D01*
X147178665Y-55080000D01*
X146901426Y-55135147D01*
X146640273Y-55243320D01*
X146405241Y-55400363D01*
X146205363Y-55600241D01*
X146048320Y-55835273D01*
X145940147Y-56096426D01*
X145885000Y-56373665D01*
X145885000Y-56656335D01*
X145940147Y-56933574D01*
X146048320Y-57194727D01*
X146205363Y-57429759D01*
X146405241Y-57629637D01*
X146640273Y-57786680D01*
X146901426Y-57894853D01*
X147178665Y-57950000D01*
X147461335Y-57950000D01*
X147738574Y-57894853D01*
X147999727Y-57786680D01*
X148234759Y-57629637D01*
X148434637Y-57429759D01*
X148538043Y-57275000D01*
X151072929Y-57275000D01*
X151114380Y-57483388D01*
X151215166Y-57726707D01*
X151361484Y-57945688D01*
X151547712Y-58131916D01*
X151766693Y-58278234D01*
X151972302Y-58363400D01*
X151766693Y-58448566D01*
X151547712Y-58594884D01*
X151361484Y-58781112D01*
X151215166Y-59000093D01*
X151114380Y-59243412D01*
X151063000Y-59501717D01*
X151063000Y-59765083D01*
X151084654Y-59873945D01*
X150811997Y-60146602D01*
X150782999Y-60170400D01*
X150759201Y-60199398D01*
X150759200Y-60199399D01*
X150688025Y-60286125D01*
X150617453Y-60418155D01*
X150596968Y-60485688D01*
X150573997Y-60561415D01*
X150563000Y-60673068D01*
X150559323Y-60710401D01*
X150563000Y-60747733D01*
X150562999Y-63881637D01*
X136648998Y-77795639D01*
X136620000Y-77819437D01*
X136596202Y-77848435D01*
X136596201Y-77848436D01*
X136525026Y-77935162D01*
X136454454Y-78067192D01*
X136410998Y-78210453D01*
X136396324Y-78359438D01*
X136400001Y-78396770D01*
X136400001Y-78731821D01*
X136213368Y-78856525D01*
X136081513Y-78988380D01*
X136059502Y-78915820D01*
X136000537Y-78805506D01*
X135921185Y-78708815D01*
X135824494Y-78629463D01*
X135714180Y-78570498D01*
X135594482Y-78534188D01*
X135470000Y-78521928D01*
X133770000Y-78521928D01*
X133645518Y-78534188D01*
X133525820Y-78570498D01*
X133415506Y-78629463D01*
X133318815Y-78708815D01*
X133239463Y-78805506D01*
X133180498Y-78915820D01*
X133144188Y-79035518D01*
X133131928Y-79160000D01*
X133131928Y-79822128D01*
X132840000Y-79530201D01*
X132840000Y-63993665D01*
X136360000Y-63993665D01*
X136360000Y-64276335D01*
X136415147Y-64553574D01*
X136523320Y-64814727D01*
X136680363Y-65049759D01*
X136880241Y-65249637D01*
X137115273Y-65406680D01*
X137376426Y-65514853D01*
X137653665Y-65570000D01*
X137936335Y-65570000D01*
X138213574Y-65514853D01*
X138474727Y-65406680D01*
X138709759Y-65249637D01*
X138909637Y-65049759D01*
X139066680Y-64814727D01*
X139174853Y-64553574D01*
X139230000Y-64276335D01*
X139230000Y-63993665D01*
X139535000Y-63993665D01*
X139535000Y-64276335D01*
X139590147Y-64553574D01*
X139698320Y-64814727D01*
X139855363Y-65049759D01*
X140055241Y-65249637D01*
X140290273Y-65406680D01*
X140551426Y-65514853D01*
X140828665Y-65570000D01*
X141111335Y-65570000D01*
X141388574Y-65514853D01*
X141649727Y-65406680D01*
X141884759Y-65249637D01*
X142084637Y-65049759D01*
X142241680Y-64814727D01*
X142349853Y-64553574D01*
X142405000Y-64276335D01*
X142405000Y-63993665D01*
X142710000Y-63993665D01*
X142710000Y-64276335D01*
X142765147Y-64553574D01*
X142873320Y-64814727D01*
X143030363Y-65049759D01*
X143230241Y-65249637D01*
X143465273Y-65406680D01*
X143726426Y-65514853D01*
X144003665Y-65570000D01*
X144286335Y-65570000D01*
X144563574Y-65514853D01*
X144824727Y-65406680D01*
X145059759Y-65249637D01*
X145259637Y-65049759D01*
X145416680Y-64814727D01*
X145524853Y-64553574D01*
X145580000Y-64276335D01*
X145580000Y-63993665D01*
X145885000Y-63993665D01*
X145885000Y-64276335D01*
X145940147Y-64553574D01*
X146048320Y-64814727D01*
X146205363Y-65049759D01*
X146405241Y-65249637D01*
X146640273Y-65406680D01*
X146901426Y-65514853D01*
X147178665Y-65570000D01*
X147461335Y-65570000D01*
X147738574Y-65514853D01*
X147999727Y-65406680D01*
X148234759Y-65249637D01*
X148434637Y-65049759D01*
X148591680Y-64814727D01*
X148699853Y-64553574D01*
X148755000Y-64276335D01*
X148755000Y-63993665D01*
X148699853Y-63716426D01*
X148591680Y-63455273D01*
X148434637Y-63220241D01*
X148234759Y-63020363D01*
X147999727Y-62863320D01*
X147738574Y-62755147D01*
X147461335Y-62700000D01*
X147178665Y-62700000D01*
X146901426Y-62755147D01*
X146640273Y-62863320D01*
X146405241Y-63020363D01*
X146205363Y-63220241D01*
X146048320Y-63455273D01*
X145940147Y-63716426D01*
X145885000Y-63993665D01*
X145580000Y-63993665D01*
X145524853Y-63716426D01*
X145416680Y-63455273D01*
X145259637Y-63220241D01*
X145059759Y-63020363D01*
X144824727Y-62863320D01*
X144563574Y-62755147D01*
X144286335Y-62700000D01*
X144003665Y-62700000D01*
X143726426Y-62755147D01*
X143465273Y-62863320D01*
X143230241Y-63020363D01*
X143030363Y-63220241D01*
X142873320Y-63455273D01*
X142765147Y-63716426D01*
X142710000Y-63993665D01*
X142405000Y-63993665D01*
X142349853Y-63716426D01*
X142241680Y-63455273D01*
X142084637Y-63220241D01*
X141884759Y-63020363D01*
X141649727Y-62863320D01*
X141388574Y-62755147D01*
X141111335Y-62700000D01*
X140828665Y-62700000D01*
X140551426Y-62755147D01*
X140290273Y-62863320D01*
X140055241Y-63020363D01*
X139855363Y-63220241D01*
X139698320Y-63455273D01*
X139590147Y-63716426D01*
X139535000Y-63993665D01*
X139230000Y-63993665D01*
X139174853Y-63716426D01*
X139066680Y-63455273D01*
X138909637Y-63220241D01*
X138709759Y-63020363D01*
X138474727Y-62863320D01*
X138213574Y-62755147D01*
X137936335Y-62700000D01*
X137653665Y-62700000D01*
X137376426Y-62755147D01*
X137115273Y-62863320D01*
X136880241Y-63020363D01*
X136680363Y-63220241D01*
X136523320Y-63455273D01*
X136415147Y-63716426D01*
X136360000Y-63993665D01*
X132840000Y-63993665D01*
X132840000Y-60450000D01*
X133916289Y-60450000D01*
X133960226Y-60493937D01*
X134129744Y-60607205D01*
X134318102Y-60685226D01*
X134518061Y-60725000D01*
X134721939Y-60725000D01*
X134921898Y-60685226D01*
X135110256Y-60607205D01*
X135279774Y-60493937D01*
X135423937Y-60349774D01*
X135537205Y-60180256D01*
X135615226Y-59991898D01*
X135655000Y-59791939D01*
X135655000Y-59588061D01*
X135615226Y-59388102D01*
X135537205Y-59199744D01*
X135423937Y-59030226D01*
X135279774Y-58886063D01*
X135110256Y-58772795D01*
X134921898Y-58694774D01*
X134721939Y-58655000D01*
X134518061Y-58655000D01*
X134318102Y-58694774D01*
X134129744Y-58772795D01*
X133960226Y-58886063D01*
X133916289Y-58930000D01*
X132840000Y-58930000D01*
X132840000Y-56864040D01*
X136403091Y-56864040D01*
X136497930Y-57128881D01*
X136642615Y-57370131D01*
X136831586Y-57578519D01*
X137057580Y-57746037D01*
X137311913Y-57866246D01*
X137445961Y-57906904D01*
X137668000Y-57784915D01*
X137668000Y-56642000D01*
X137922000Y-56642000D01*
X137922000Y-57784915D01*
X138144039Y-57906904D01*
X138278087Y-57866246D01*
X138532420Y-57746037D01*
X138758414Y-57578519D01*
X138947385Y-57370131D01*
X139092070Y-57128881D01*
X139186909Y-56864040D01*
X139065624Y-56642000D01*
X137922000Y-56642000D01*
X137668000Y-56642000D01*
X136524376Y-56642000D01*
X136403091Y-56864040D01*
X132840000Y-56864040D01*
X132840000Y-56165960D01*
X136403091Y-56165960D01*
X136524376Y-56388000D01*
X137668000Y-56388000D01*
X137668000Y-55245085D01*
X137922000Y-55245085D01*
X137922000Y-56388000D01*
X139065624Y-56388000D01*
X139073454Y-56373665D01*
X139535000Y-56373665D01*
X139535000Y-56656335D01*
X139590147Y-56933574D01*
X139698320Y-57194727D01*
X139855363Y-57429759D01*
X140055241Y-57629637D01*
X140290273Y-57786680D01*
X140551426Y-57894853D01*
X140828665Y-57950000D01*
X141111335Y-57950000D01*
X141388574Y-57894853D01*
X141649727Y-57786680D01*
X141884759Y-57629637D01*
X142084637Y-57429759D01*
X142241680Y-57194727D01*
X142349853Y-56933574D01*
X142405000Y-56656335D01*
X142405000Y-56373665D01*
X142710000Y-56373665D01*
X142710000Y-56656335D01*
X142765147Y-56933574D01*
X142873320Y-57194727D01*
X143030363Y-57429759D01*
X143230241Y-57629637D01*
X143465273Y-57786680D01*
X143726426Y-57894853D01*
X144003665Y-57950000D01*
X144286335Y-57950000D01*
X144563574Y-57894853D01*
X144824727Y-57786680D01*
X145059759Y-57629637D01*
X145259637Y-57429759D01*
X145416680Y-57194727D01*
X145524853Y-56933574D01*
X145580000Y-56656335D01*
X145580000Y-56373665D01*
X145524853Y-56096426D01*
X145416680Y-55835273D01*
X145259637Y-55600241D01*
X145059759Y-55400363D01*
X144824727Y-55243320D01*
X144563574Y-55135147D01*
X144286335Y-55080000D01*
X144003665Y-55080000D01*
X143726426Y-55135147D01*
X143465273Y-55243320D01*
X143230241Y-55400363D01*
X143030363Y-55600241D01*
X142873320Y-55835273D01*
X142765147Y-56096426D01*
X142710000Y-56373665D01*
X142405000Y-56373665D01*
X142349853Y-56096426D01*
X142241680Y-55835273D01*
X142084637Y-55600241D01*
X141884759Y-55400363D01*
X141649727Y-55243320D01*
X141388574Y-55135147D01*
X141111335Y-55080000D01*
X140828665Y-55080000D01*
X140551426Y-55135147D01*
X140290273Y-55243320D01*
X140055241Y-55400363D01*
X139855363Y-55600241D01*
X139698320Y-55835273D01*
X139590147Y-56096426D01*
X139535000Y-56373665D01*
X139073454Y-56373665D01*
X139186909Y-56165960D01*
X139092070Y-55901119D01*
X138947385Y-55659869D01*
X138758414Y-55451481D01*
X138532420Y-55283963D01*
X138278087Y-55163754D01*
X138144039Y-55123096D01*
X137922000Y-55245085D01*
X137668000Y-55245085D01*
X137445961Y-55123096D01*
X137311913Y-55163754D01*
X137057580Y-55283963D01*
X136831586Y-55451481D01*
X136642615Y-55659869D01*
X136497930Y-55901119D01*
X136403091Y-56165960D01*
X132840000Y-56165960D01*
X132840000Y-50968072D01*
X132880000Y-50968072D01*
X133004482Y-50955812D01*
X133124180Y-50919502D01*
X133234494Y-50860537D01*
X133331185Y-50781185D01*
X133410537Y-50684494D01*
X133469502Y-50574180D01*
X133485117Y-50522702D01*
X134766903Y-50522702D01*
X134838486Y-50766671D01*
X135093996Y-50887571D01*
X135368184Y-50956300D01*
X135650512Y-50970217D01*
X135930130Y-50928787D01*
X136196292Y-50833603D01*
X136321514Y-50766671D01*
X136393097Y-50522702D01*
X135580000Y-49709605D01*
X134766903Y-50522702D01*
X133485117Y-50522702D01*
X133505812Y-50454482D01*
X133518072Y-50330000D01*
X133518072Y-49600512D01*
X134139783Y-49600512D01*
X134181213Y-49880130D01*
X134276397Y-50146292D01*
X134343329Y-50271514D01*
X134587298Y-50343097D01*
X135400395Y-49530000D01*
X135759605Y-49530000D01*
X136572702Y-50343097D01*
X136816671Y-50271514D01*
X136937571Y-50016004D01*
X137006300Y-49741816D01*
X137020217Y-49459488D01*
X136978787Y-49179870D01*
X136883603Y-48913708D01*
X136865586Y-48880000D01*
X140951928Y-48880000D01*
X140951928Y-50180000D01*
X140964188Y-50304482D01*
X141000498Y-50424180D01*
X141059463Y-50534494D01*
X141138815Y-50631185D01*
X141235506Y-50710537D01*
X141345820Y-50769502D01*
X141465518Y-50805812D01*
X141590000Y-50818072D01*
X142890000Y-50818072D01*
X143014482Y-50805812D01*
X143134180Y-50769502D01*
X143244494Y-50710537D01*
X143341185Y-50631185D01*
X143420537Y-50534494D01*
X143426765Y-50522842D01*
X143426903Y-50522704D01*
X143498486Y-50766671D01*
X143753996Y-50887571D01*
X144028184Y-50956300D01*
X144310512Y-50970217D01*
X144590130Y-50928787D01*
X144856292Y-50833603D01*
X144981514Y-50766671D01*
X145053097Y-50522702D01*
X144240000Y-49709605D01*
X144225858Y-49723748D01*
X144046253Y-49544143D01*
X144060395Y-49530000D01*
X144419605Y-49530000D01*
X145232702Y-50343097D01*
X145476671Y-50271514D01*
X145597571Y-50016004D01*
X145666300Y-49741816D01*
X145680217Y-49459488D01*
X145638787Y-49179870D01*
X145543603Y-48913708D01*
X145476671Y-48788486D01*
X145232702Y-48716903D01*
X144419605Y-49530000D01*
X144060395Y-49530000D01*
X144046253Y-49515858D01*
X144225858Y-49336253D01*
X144240000Y-49350395D01*
X145053097Y-48537298D01*
X144981514Y-48293329D01*
X144726004Y-48172429D01*
X144451816Y-48103700D01*
X144169488Y-48089783D01*
X143889870Y-48131213D01*
X143623708Y-48226397D01*
X143498486Y-48293329D01*
X143426903Y-48537296D01*
X143426765Y-48537158D01*
X143420537Y-48525506D01*
X143341185Y-48428815D01*
X143244494Y-48349463D01*
X143134180Y-48290498D01*
X143014482Y-48254188D01*
X142890000Y-48241928D01*
X141590000Y-48241928D01*
X141465518Y-48254188D01*
X141345820Y-48290498D01*
X141235506Y-48349463D01*
X141138815Y-48428815D01*
X141059463Y-48525506D01*
X141000498Y-48635820D01*
X140964188Y-48755518D01*
X140951928Y-48880000D01*
X136865586Y-48880000D01*
X136816671Y-48788486D01*
X136572702Y-48716903D01*
X135759605Y-49530000D01*
X135400395Y-49530000D01*
X134587298Y-48716903D01*
X134343329Y-48788486D01*
X134222429Y-49043996D01*
X134153700Y-49318184D01*
X134139783Y-49600512D01*
X133518072Y-49600512D01*
X133518072Y-48730000D01*
X133505812Y-48605518D01*
X133485118Y-48537298D01*
X134766903Y-48537298D01*
X135580000Y-49350395D01*
X136393097Y-48537298D01*
X136321514Y-48293329D01*
X136066004Y-48172429D01*
X135791816Y-48103700D01*
X135509488Y-48089783D01*
X135229870Y-48131213D01*
X134963708Y-48226397D01*
X134838486Y-48293329D01*
X134766903Y-48537298D01*
X133485118Y-48537298D01*
X133469502Y-48485820D01*
X133410537Y-48375506D01*
X133331185Y-48278815D01*
X133234494Y-48199463D01*
X133124180Y-48140498D01*
X133004482Y-48104188D01*
X132880000Y-48091928D01*
X131280000Y-48091928D01*
X131155518Y-48104188D01*
X131035820Y-48140498D01*
X130925506Y-48199463D01*
X130828815Y-48278815D01*
X130749463Y-48375506D01*
X130690498Y-48485820D01*
X130654188Y-48605518D01*
X130641928Y-48730000D01*
X125120000Y-48730000D01*
X125120000Y-34075000D01*
X126781928Y-34075000D01*
X126781928Y-35775000D01*
X126794188Y-35899482D01*
X126830498Y-36019180D01*
X126889463Y-36129494D01*
X126968815Y-36226185D01*
X127065506Y-36305537D01*
X127175820Y-36364502D01*
X127248380Y-36386513D01*
X127116525Y-36518368D01*
X126954010Y-36761589D01*
X126842068Y-37031842D01*
X126785000Y-37318740D01*
X126785000Y-37611260D01*
X126842068Y-37898158D01*
X126954010Y-38168411D01*
X127116525Y-38411632D01*
X127323368Y-38618475D01*
X127497760Y-38735000D01*
X127323368Y-38851525D01*
X127116525Y-39058368D01*
X126954010Y-39301589D01*
X126842068Y-39571842D01*
X126785000Y-39858740D01*
X126785000Y-40151260D01*
X126842068Y-40438158D01*
X126954010Y-40708411D01*
X127116525Y-40951632D01*
X127323368Y-41158475D01*
X127566589Y-41320990D01*
X127836842Y-41432932D01*
X128123740Y-41490000D01*
X128416260Y-41490000D01*
X128703158Y-41432932D01*
X128973411Y-41320990D01*
X129216632Y-41158475D01*
X129423475Y-40951632D01*
X129585990Y-40708411D01*
X129697932Y-40438158D01*
X129755000Y-40151260D01*
X129755000Y-39858740D01*
X129697932Y-39571842D01*
X129585990Y-39301589D01*
X129423475Y-39058368D01*
X129216632Y-38851525D01*
X129042240Y-38735000D01*
X129216632Y-38618475D01*
X129423475Y-38411632D01*
X129585990Y-38168411D01*
X129697932Y-37898158D01*
X129755000Y-37611260D01*
X129755000Y-37318740D01*
X129697932Y-37031842D01*
X129585990Y-36761589D01*
X129423475Y-36518368D01*
X129291620Y-36386513D01*
X129364180Y-36364502D01*
X129474494Y-36305537D01*
X129571185Y-36226185D01*
X129650537Y-36129494D01*
X129709502Y-36019180D01*
X129745812Y-35899482D01*
X129758072Y-35775000D01*
X129758072Y-34075000D01*
X129745812Y-33950518D01*
X129709502Y-33830820D01*
X129650537Y-33720506D01*
X129571185Y-33623815D01*
X129474494Y-33544463D01*
X129364180Y-33485498D01*
X129244482Y-33449188D01*
X129120000Y-33436928D01*
X127420000Y-33436928D01*
X127295518Y-33449188D01*
X127175820Y-33485498D01*
X127065506Y-33544463D01*
X126968815Y-33623815D01*
X126889463Y-33720506D01*
X126830498Y-33830820D01*
X126794188Y-33950518D01*
X126781928Y-34075000D01*
X125120000Y-34075000D01*
X125120000Y-28155000D01*
X131861928Y-28155000D01*
X131874188Y-28279482D01*
X131910498Y-28399180D01*
X131969463Y-28509494D01*
X132048815Y-28606185D01*
X132145506Y-28685537D01*
X132255820Y-28744502D01*
X132375518Y-28780812D01*
X132500000Y-28793072D01*
X133064250Y-28790000D01*
X133223000Y-28631250D01*
X133223000Y-27432000D01*
X132023750Y-27432000D01*
X131865000Y-27590750D01*
X131861928Y-28155000D01*
X125120000Y-28155000D01*
X125120000Y-25864117D01*
X125900000Y-25864117D01*
X125900000Y-26205883D01*
X125966675Y-26541081D01*
X126097463Y-26856831D01*
X126287337Y-27140998D01*
X126529002Y-27382663D01*
X126813169Y-27572537D01*
X127128919Y-27703325D01*
X127464117Y-27770000D01*
X127805883Y-27770000D01*
X128141081Y-27703325D01*
X128456831Y-27572537D01*
X128740998Y-27382663D01*
X128982663Y-27140998D01*
X129172537Y-26856831D01*
X129303325Y-26541081D01*
X129320447Y-26455000D01*
X131861928Y-26455000D01*
X131865000Y-27019250D01*
X132023750Y-27178000D01*
X133223000Y-27178000D01*
X133223000Y-25978750D01*
X133477000Y-25978750D01*
X133477000Y-27178000D01*
X133497000Y-27178000D01*
X133497000Y-27432000D01*
X133477000Y-27432000D01*
X133477000Y-28631250D01*
X133635750Y-28790000D01*
X134200000Y-28793072D01*
X134324482Y-28780812D01*
X134444180Y-28744502D01*
X134554494Y-28685537D01*
X134651185Y-28606185D01*
X134730537Y-28509494D01*
X134789502Y-28399180D01*
X134811513Y-28326620D01*
X134943368Y-28458475D01*
X135186589Y-28620990D01*
X135456842Y-28732932D01*
X135743740Y-28790000D01*
X136036260Y-28790000D01*
X136323158Y-28732932D01*
X136593411Y-28620990D01*
X136836632Y-28458475D01*
X137043475Y-28251632D01*
X137205990Y-28008411D01*
X137317932Y-27738158D01*
X137375000Y-27451260D01*
X137375000Y-27158740D01*
X137317932Y-26871842D01*
X137205990Y-26601589D01*
X137067161Y-26393816D01*
X173185000Y-26393816D01*
X173185000Y-26696184D01*
X173243989Y-26992743D01*
X173359701Y-27272095D01*
X173527688Y-27523505D01*
X173741495Y-27737312D01*
X173992905Y-27905299D01*
X174272257Y-28021011D01*
X174568816Y-28080000D01*
X174871184Y-28080000D01*
X175167743Y-28021011D01*
X175447095Y-27905299D01*
X175698505Y-27737312D01*
X175826737Y-27609080D01*
X176375525Y-27609080D01*
X176459208Y-27863261D01*
X176731775Y-27994158D01*
X177024642Y-28069365D01*
X177326553Y-28085991D01*
X177625907Y-28043397D01*
X177911199Y-27943222D01*
X178060792Y-27863261D01*
X178144475Y-27609080D01*
X178915525Y-27609080D01*
X178999208Y-27863261D01*
X179271775Y-27994158D01*
X179564642Y-28069365D01*
X179866553Y-28085991D01*
X180165907Y-28043397D01*
X180451199Y-27943222D01*
X180600792Y-27863261D01*
X180684475Y-27609080D01*
X179800000Y-26724605D01*
X178915525Y-27609080D01*
X178144475Y-27609080D01*
X177260000Y-26724605D01*
X176375525Y-27609080D01*
X175826737Y-27609080D01*
X175912312Y-27523505D01*
X176014951Y-27369895D01*
X176195920Y-27429475D01*
X177080395Y-26545000D01*
X177439605Y-26545000D01*
X178324080Y-27429475D01*
X178530000Y-27361681D01*
X178735920Y-27429475D01*
X179620395Y-26545000D01*
X178735920Y-25660525D01*
X178530000Y-25728319D01*
X178324080Y-25660525D01*
X177439605Y-26545000D01*
X177080395Y-26545000D01*
X176195920Y-25660525D01*
X176014951Y-25720105D01*
X175912312Y-25566495D01*
X175826737Y-25480920D01*
X176375525Y-25480920D01*
X177260000Y-26365395D01*
X178144475Y-25480920D01*
X178915525Y-25480920D01*
X179800000Y-26365395D01*
X180684475Y-25480920D01*
X180600792Y-25226739D01*
X180328225Y-25095842D01*
X180035358Y-25020635D01*
X179733447Y-25004009D01*
X179434093Y-25046603D01*
X179148801Y-25146778D01*
X178999208Y-25226739D01*
X178915525Y-25480920D01*
X178144475Y-25480920D01*
X178060792Y-25226739D01*
X177788225Y-25095842D01*
X177495358Y-25020635D01*
X177193447Y-25004009D01*
X176894093Y-25046603D01*
X176608801Y-25146778D01*
X176459208Y-25226739D01*
X176375525Y-25480920D01*
X175826737Y-25480920D01*
X175698505Y-25352688D01*
X175447095Y-25184701D01*
X175167743Y-25068989D01*
X174871184Y-25010000D01*
X174568816Y-25010000D01*
X174272257Y-25068989D01*
X173992905Y-25184701D01*
X173741495Y-25352688D01*
X173527688Y-25566495D01*
X173359701Y-25817905D01*
X173243989Y-26097257D01*
X173185000Y-26393816D01*
X137067161Y-26393816D01*
X137043475Y-26358368D01*
X136836632Y-26151525D01*
X136593411Y-25989010D01*
X136323158Y-25877068D01*
X136036260Y-25820000D01*
X135743740Y-25820000D01*
X135456842Y-25877068D01*
X135186589Y-25989010D01*
X134943368Y-26151525D01*
X134811513Y-26283380D01*
X134789502Y-26210820D01*
X134730537Y-26100506D01*
X134651185Y-26003815D01*
X134554494Y-25924463D01*
X134444180Y-25865498D01*
X134324482Y-25829188D01*
X134200000Y-25816928D01*
X133635750Y-25820000D01*
X133477000Y-25978750D01*
X133223000Y-25978750D01*
X133064250Y-25820000D01*
X132500000Y-25816928D01*
X132375518Y-25829188D01*
X132255820Y-25865498D01*
X132145506Y-25924463D01*
X132048815Y-26003815D01*
X131969463Y-26100506D01*
X131910498Y-26210820D01*
X131874188Y-26330518D01*
X131861928Y-26455000D01*
X129320447Y-26455000D01*
X129370000Y-26205883D01*
X129370000Y-25864117D01*
X129303325Y-25528919D01*
X129172537Y-25213169D01*
X128982663Y-24929002D01*
X128740998Y-24687337D01*
X128456831Y-24497463D01*
X128141081Y-24366675D01*
X127805883Y-24300000D01*
X127464117Y-24300000D01*
X127128919Y-24366675D01*
X126813169Y-24497463D01*
X126529002Y-24687337D01*
X126287337Y-24929002D01*
X126097463Y-25213169D01*
X125966675Y-25528919D01*
X125900000Y-25864117D01*
X125120000Y-25864117D01*
X125120000Y-23520000D01*
X207620000Y-23520000D01*
X207620001Y-83160000D01*
G37*
%TD.AperFunction*%
%TD*%
M02*
