%TF.GenerationSoftware,KiCad,Pcbnew,5.1.10*%
%TF.CreationDate,2021-07-23T12:05:05+02:00*%
%TF.ProjectId,kicad,6b696361-642e-46b6-9963-61645f706362,rev?*%
%TF.SameCoordinates,Original*%
%TF.FileFunction,Soldermask,Bot*%
%TF.FilePolarity,Negative*%
%FSLAX46Y46*%
G04 Gerber Fmt 4.6, Leading zero omitted, Abs format (unit mm)*
G04 Created by KiCad (PCBNEW 5.1.10) date 2021-07-23 12:05:05*
%MOMM*%
%LPD*%
G01*
G04 APERTURE LIST*
%ADD10C,2.200000*%
%ADD11C,1.404000*%
%ADD12C,1.304000*%
%ADD13O,1.600000X1.600000*%
%ADD14C,1.600000*%
%ADD15O,1.700000X1.700000*%
%ADD16R,1.700000X1.700000*%
%ADD17C,1.800000*%
%ADD18R,1.300000X1.300000*%
%ADD19R,1.600000X1.600000*%
G04 APERTURE END LIST*
D10*
%TO.C,REF\u002A\u002A*%
X127635000Y-26035000D03*
%TD*%
%TO.C,REF\u002A\u002A*%
X127635000Y-80645000D03*
%TD*%
%TO.C,REF\u002A\u002A*%
X205105000Y-80645000D03*
%TD*%
%TO.C,REF\u002A\u002A*%
X205105000Y-26035000D03*
%TD*%
D11*
%TO.C,U1*%
X167640000Y-36773400D03*
X152400000Y-67253400D03*
X154940000Y-64713400D03*
X152400000Y-64713400D03*
X152400000Y-62173400D03*
X152400000Y-59633400D03*
X152400000Y-57093400D03*
X152400000Y-54553400D03*
X152400000Y-52013400D03*
X152400000Y-49473400D03*
X152400000Y-46933400D03*
X152400000Y-44393400D03*
X152400000Y-41853400D03*
X152400000Y-39313400D03*
X152400000Y-36773400D03*
X152400000Y-34233400D03*
X154940000Y-34233400D03*
X157480000Y-34233400D03*
X160020000Y-34233400D03*
X162560000Y-34233400D03*
X165100000Y-34233400D03*
X167640000Y-34233400D03*
X167640000Y-39313400D03*
X167640000Y-41853400D03*
X167640000Y-44393400D03*
X167640000Y-46933400D03*
X167640000Y-49473400D03*
X167640000Y-52013400D03*
X167640000Y-54553400D03*
X167640000Y-57093400D03*
X167640000Y-59633400D03*
X167640000Y-62173400D03*
D12*
X161290000Y-65983400D03*
X158750000Y-65983400D03*
D11*
X167640000Y-64713400D03*
X167640000Y-67253400D03*
%TD*%
D13*
%TO.C,R4*%
X147320000Y-56515000D03*
D14*
X147320000Y-64135000D03*
%TD*%
D13*
%TO.C,R3*%
X144145000Y-56515000D03*
D14*
X144145000Y-64135000D03*
%TD*%
D13*
%TO.C,R2*%
X140970000Y-56515000D03*
D14*
X140970000Y-64135000D03*
%TD*%
D13*
%TO.C,R1*%
X137795000Y-56515000D03*
D14*
X137795000Y-64135000D03*
%TD*%
D15*
%TO.C,SW2*%
X154940000Y-77470000D03*
X154940000Y-80010000D03*
X152400000Y-77470000D03*
X152400000Y-80010000D03*
X149860000Y-77470000D03*
D16*
X149860000Y-80010000D03*
%TD*%
D15*
%TO.C,RV1*%
X139700000Y-80010000D03*
X137160000Y-80010000D03*
D16*
X134620000Y-80010000D03*
%TD*%
D15*
%TO.C,J5*%
X184150000Y-80010000D03*
X181610000Y-80010000D03*
D16*
X179070000Y-80010000D03*
%TD*%
D15*
%TO.C,J4*%
X198120000Y-80010000D03*
X195580000Y-80010000D03*
D16*
X193040000Y-80010000D03*
%TD*%
D15*
%TO.C,J3*%
X135890000Y-27305000D03*
D16*
X133350000Y-27305000D03*
%TD*%
D15*
%TO.C,J2*%
X128270000Y-40005000D03*
X128270000Y-37465000D03*
D16*
X128270000Y-34925000D03*
%TD*%
D15*
%TO.C,J1*%
X172720000Y-80010000D03*
X170180000Y-80010000D03*
X167640000Y-80010000D03*
X165100000Y-80010000D03*
D16*
X162560000Y-80010000D03*
%TD*%
D17*
%TO.C,U4*%
X182340000Y-67185000D03*
X182340000Y-26545000D03*
X179800000Y-67185000D03*
X179800000Y-26545000D03*
X177260000Y-67185000D03*
X177260000Y-26545000D03*
X174720000Y-67185000D03*
X174720000Y-26545000D03*
%TD*%
D18*
%TO.C,C2*%
X142240000Y-49530000D03*
D14*
X144240000Y-49530000D03*
%TD*%
%TO.C,C1*%
X135580000Y-49530000D03*
D19*
X132080000Y-49530000D03*
%TD*%
D13*
%TO.C,A1*%
X203770000Y-64925000D03*
X188530000Y-64925000D03*
X203770000Y-29365000D03*
X188530000Y-62385000D03*
X203770000Y-31905000D03*
X188530000Y-59845000D03*
X203770000Y-34445000D03*
X188530000Y-57305000D03*
X203770000Y-36985000D03*
X188530000Y-54765000D03*
X203770000Y-39525000D03*
X188530000Y-52225000D03*
X203770000Y-42065000D03*
X188530000Y-49685000D03*
X203770000Y-44605000D03*
X188530000Y-47145000D03*
X203770000Y-47145000D03*
X188530000Y-44605000D03*
X203770000Y-49685000D03*
X188530000Y-42065000D03*
X203770000Y-52225000D03*
X188530000Y-39525000D03*
X203770000Y-54765000D03*
X188530000Y-36985000D03*
X203770000Y-57305000D03*
X188530000Y-34445000D03*
X203770000Y-59845000D03*
X188530000Y-31905000D03*
X203770000Y-62385000D03*
D19*
X188530000Y-29365000D03*
%TD*%
M02*
